<?xml version="1.0" encoding="UTF-8" standalone="no"?>
<svg
   xmlns:dc="http://purl.org/dc/elements/1.1/"
   xmlns:cc="http://creativecommons.org/ns#"
   xmlns:rdf="http://www.w3.org/1999/02/22-rdf-syntax-ns#"
   xmlns:svg="http://www.w3.org/2000/svg"
   xmlns="http://www.w3.org/2000/svg"
   xmlns:sodipodi="http://sodipodi.sourceforge.net/DTD/sodipodi-0.dtd"
   xmlns:inkscape="http://www.inkscape.org/namespaces/inkscape"
   width="1920"
   height="1080"
   viewBox="0 0 508 285.75"
   version="1.1"
   id="svg105"
   inkscape:export-filename="C:\Users\Changyuan\點陣圖.png"
   inkscape:export-xdpi="300"
   inkscape:export-ydpi="300"
   inkscape:version="1.0.1 (3bc2e813f5, 2020-09-07)"
   sodipodi:docname="圖畫-1.svg">
  <defs
     id="defs99" />
  <sodipodi:namedview
     id="base"
     pagecolor="#ffffff"
     bordercolor="#666666"
     borderopacity="1.0"
     inkscape:pageopacity="0.0"
     inkscape:pageshadow="2"
     inkscape:zoom="0.52640172"
     inkscape:cx="286.65486"
     inkscape:cy="523.98912"
     inkscape:document-units="mm"
     inkscape:current-layer="layer1"
     inkscape:document-rotation="0"
     showgrid="false"
     units="px"
     showguides="false"
     inkscape:window-width="1920"
     inkscape:window-height="1001"
     inkscape:window-x="-9"
     inkscape:window-y="-9"
     inkscape:window-maximized="1" />
  <metadata
     id="metadata102">
    <rdf:RDF>
      <cc:Work
         rdf:about="">
        <dc:format>image/svg+xml</dc:format>
        <dc:type
           rdf:resource="http://purl.org/dc/dcmitype/StillImage" />
        <dc:title></dc:title>
      </cc:Work>
    </rdf:RDF>
  </metadata>
  <g
     inkscape:label="Layer 1"
     inkscape:groupmode="layer"
     id="layer1">
    <rect
       style="fill:#0000ff;stroke:#000000;stroke-width:0.529167;stroke-opacity:1"
       id="rect238"
       width="508"
       height="285.75"
       x="0.26673716"
       y="0.26529351" />
    <path
       id="path215"
       style="fill:#aa4400;stroke:#000000;stroke-width:2;stroke-opacity:1"
       d="M 1598.4128,1.012242 1.0081404,1.0026841 1.0279033,1079.0076 891.79836,1078.9907 c 23.55715,-1.7144 45.95066,-21.6727 69.58836,-21.5063 8.80928,-0.2279 17.76803,-3.2897 23.89453,-9.8301 8.61774,-7.7647 15.32795,-17.836 25.48635,-23.7559 5.6357,-1.7692 12.1737,0.246 17.3086,-3.5117 4.6697,-3.5118 3.9646,-10.0872 2.7773,-15.1133 -0.4385,-1.74 -0.048,-3.7858 -0.6914,-5.45504 3.5676,1.84894 7.1201,3.73204 10.6016,5.71684 10.6853,7.2135 15.2906,20.1585 24.8867,28.4453 5.9298,4.0926 14.1123,1.9163 19.3086,-2.4102 6.508,-4.7784 11.0512,-12.8093 19.3301,-14.7773 7.3076,-0.1282 13.1874,-4.8791 19.4648,-7.9551 7.6384,-3.1422 16.5118,-3.0843 23.3574,-8.1524 9.8482,-6.20847 17.6499,-15.42677 28.2813,-20.02339 10.0703,-5.23011 16.4026,-15.24203 21.6406,-24.91406 0.8803,-2.3107 0.6114,-4.59412 -0.3008,-6.69336 3.7568,3.77191 7.5601,7.42622 13.0449,8.38281 9.6986,1.02146 20.0762,0.79983 28.7461,-4.2207 6.9365,-3.72291 13.6424,-7.9091 21.0059,-10.77735 19.3057,-8.22962 40.5068,-13.49464 56.8769,-27.29687 12.9775,-10.86716 18.3448,-28.01951 31.5567,-38.61719 10.9959,-7.42877 23.4909,-13.07052 32.7461,-22.81641 2.022,-3.12052 1.7359,-7.31914 4.6348,-9.94531 5.3282,-6.90811 6.3937,-15.7968 9.5097,-23.72265 4.8589,-13.6009 9.8167,-27.1639 14.0059,-40.99024 3.1442,-9.9473 9.7237,-19.12729 9.5234,-29.90234 -0.2865,-5.82478 -6.566,-9.18754 -11.8437,-9.47071 -3.5071,-0.20664 -7.0592,-0.51454 -10.5957,-0.99218 4.6106,0.20541 9.2726,0.0517 13.8281,0.26757 3.0238,0.0408 6.0486,0.0765 9.0723,0.1211 10.0642,-11.64125 19.4672,-24.46448 23.5214,-39.54102 5.3644,-17.70191 5.4695,-36.39808 5.2676,-54.73242 -3.6318,-4.92401 -8.8037,-8.36956 -13.1504,-12.60547 -3.5844,-3.21214 -7.6728,-6.28929 -9.9844,-10.57422 0.3032,-4.39725 3.3237,-8.14427 3.3848,-12.6289 0.7907,-7.65918 -4.1024,-14.29549 -8.1973,-20.28321 -4.6881,-6.63783 -10.9295,-11.96893 -15.9667,-18.28906 -1.4294,-2.0403 0.2446,-4.36584 -0.17,-6.63476 0.047,-7.52981 -0.5156,-15.24586 -2.8847,-22.41211 -3.4235,-6.76642 -11.6124,-8.37789 -16.8203,-13.31641 -17.5817,-13.72864 -28.1974,-33.84524 -39.1485,-52.78906 -3.9672,-6.76815 -8.0826,-13.45146 -12.4629,-19.96094 8.5177,-14.79587 17.1416,-29.36106 29.0293,-41.82031 9.728,-11.63172 17.8798,-24.55084 28.2305,-35.65235 8.2645,-9.36867 17.1866,-19.68979 18.4551,-32.65625 0.5031,-6.88064 -0.6148,-14.43051 -5.0684,-19.90234 -5.4923,-5.32307 -13.7409,-4.29342 -20.7402,-4.4375 -3.7419,0.17753 -7.4847,0.35567 -11.2266,0.5332 -13.487,0.78236 -27.5222,1.74695 -39.7988,7.90625 -8.0873,4.57679 -14.7686,11.45343 -23.5879,14.76758 -8.1432,3.75948 -16.8438,6.50531 -25.8379,6.99414 -5.7949,0.70353 -10.9296,4.34134 -13.6094,9.50977 -0.084,0.14441 -0.1679,0.29586 -0.2519,0.4414 2.3739,-5.88174 2.8783,-12.58568 2.834,-18.84961 -0.3591,-9.16561 -1.6039,-18.27712 -2.5274,-27.39453 -0.6361,-4.42873 -2.1292,-10.05585 1.6758,-13.6582 4.4421,-4.50491 9.541,-8.31463 14.0234,-12.78906 19.0306,-17.583 35.7272,-37.4643 52.6875,-56.98633 2.9063,-3.26389 6.431,-5.85502 10.0664,-8.22266 -3.1057,5.02867 -3.6137,11.30278 -3.8339,17.08008 0.1247,3.67353 0.3436,8.16859 3.4101,10.63672 2.7528,-0.11463 1.9007,2.49413 2.1836,4.52539 0.5897,8.45634 1.1367,17.50909 5.9063,24.80274 2.2311,3.1039 7.0233,4.86168 10.1601,2.01367 10.5581,-6.71293 19.2233,-15.88757 28.3418,-24.35352 7.1596,-6.83834 13.758,-14.59604 22.7598,-19.0918 7.8883,-4.38504 16.4527,-7.79369 25.4101,-9.07031 l 3.0039,1.53125 c -0.5611,5.53717 2.9631,10.3254 4.8379,15.28516 5.2863,11.05884 10.5208,22.49205 11.5059,34.875 0.9993,7.62646 4.0233,15.91116 11.2558,19.6582 5.3573,2.4859 10.9827,-0.77385 16.3614,-1.51172 7.2281,-1.24309 14.8109,-1.31182 21.9746,0.36914 3.3228,0.78724 7.0053,2.53013 7.4179,6.36133 1.3015,8.53116 -3.426,16.19307 -6.291,23.86328 -1.8553,4.69297 -2.083,10.18426 0.7461,14.55274 4.6415,7.70327 13.0488,13.39527 14.5957,22.76562 0.2963,7.45257 0.8885,14.94919 2.4961,22.26953 2.1694,8.9607 4.792,18.60804 11.8379,25.04102 2.3764,2.12833 5.5864,3.61688 8.7442,2.34961 6.9165,-1.96993 11.8132,-7.65905 17.4296,-11.80859 14.1913,-11.82052 28.2585,-23.89426 41.1563,-37.12696 6.242,-8.08989 5.557,-19.03093 4.4375,-28.60742 -2.1888,-13.14669 -8.7116,-24.98286 -14.2148,-36.95508 -7.037,-14.58439 -14.5641,-29.40678 -26.5547,-40.61719 -9.5452,-9.51205 -18.5213,-19.65845 -25.8789,-30.97656 -5.1924,-7.27828 -12.5431,-14.32119 -12.7207,-23.85547 0.2524,-8.27179 5.7638,-14.96634 11.0039,-20.67187 7.8483,-8.67318 18.437,-15.96619 21.7421,-27.7793 3.6761,-15.26999 -2.9815,-31.21178 2.0743,-46.16992 3.8862,-12.553667 14.7815,-21.694042 17.7636,-34.634766 3.3535,-8.032332 9.3994,-14.776106 11.6446,-23.310547 -2.1996,-0.830328 1.1198,-53.517055 1.1198,-53.517055 z M 1460.875,814.92188 c -0.4623,-0.0144 -0.926,-0.006 -1.3867,0.0234 -10.9456,0.91166 -19.1309,9.90379 -23.6231,19.28125 -6.1233,11.56653 -14.26,22.04211 -19.5371,34.04102 -4.5652,14.04125 -1.5157,30.46729 8.2539,41.63867 7.6539,9.07657 17.841,15.57265 28.1153,21.28125 2.7586,1.7136 5.41,-0.70684 7.416,-2.51758 6.2229,-6.48272 7.9515,-15.74194 10.2597,-24.10547 3.9335,-14.6863 5.6837,-29.86333 5.8848,-45.04883 0.034,-9.68314 0.4683,-19.41949 -0.4473,-29.06835 -0.5332,-6.4373 -4.4394,-12.83951 -10.8574,-14.78321 -1.3095,-0.45382 -2.6911,-0.69894 -4.0781,-0.74218 z m -346.6602,222.25582 c -8.7313,0.8216 -18.134,3.7581 -23.7207,10.9121 -3.6375,5.9248 -0.4528,13.2159 3.4961,18.1036 3.0707,4.8494 9.4644,8.6124 15.1075,5.8007 6.7266,-2.5979 13.0686,-6.5827 18.0273,-11.8183 3.8567,-5.3292 1.3325,-12.4876 -2.1445,-17.3164 -2.4947,-3.3763 -6.4762,-5.8174 -10.7657,-5.6817 z"
       transform="scale(0.26458333)"
       sodipodi:nodetypes="ccccccccccccccccccccccccccccccccccccccccccccccccccccccccccccccccccccccccccccccccccccccccccccccccsccccccccccsccccccc" />
    <path
       id="path161"
       style="fill:#d9f4fd;stroke-width:0.52916667;stroke:#000000;stroke-opacity:1"
       d="m 376.42969,19.421875 c -1.389,0.156989 -2.94905,0.155036 -4.1121,1.008529 -1.66972,1.579125 -3.33897,3.158755 -5.009,4.737565 0.0667,3.431444 0.4473,6.845222 0.84961,10.25 -2.79153,3.867724 -5.90858,7.530772 -8.27378,11.691177 -1.48361,2.933843 -1.34138,6.307249 -2.02895,9.447495 -0.16541,0.884245 -0.75509,1.550221 -1.36492,2.159903 -1.00804,1.376211 -1.15815,3.179113 -1.22102,4.828378 0.033,0.971953 0.091,2.161426 0.90235,2.814453 0.72833,-0.03033 0.50314,0.659929 0.57799,1.197368 0.15603,2.237407 0.30069,4.632621 1.56263,6.562398 0.59032,0.821241 1.85824,1.286297 2.6882,0.53276 2.7935,-1.77613 5.08636,-4.203512 7.49897,-6.443462 1.8943,-1.80931 3.63978,-3.861851 6.02149,-5.051352 2.08713,-1.160211 4.3532,-2.062443 6.72319,-2.400214 0.7755,-0.1347 1.25955,-0.797176 1.48935,-1.494522 0.88699,-1.455746 1.88493,-2.873682 2.35338,-4.53469 2.35584,-6.377369 3.91361,-13.037786 4.838,-19.768614 0.27039,-1.845117 0.62711,-3.6812 1.17062,-5.466859 -0.13239,-1.331763 -1.41513,-2.051645 -2.24735,-2.947801 -2.49626,-2.227666 -5.08922,-4.406514 -8.01356,-6.053752 -1.35213,-0.697125 -2.87286,-1.144851 -4.4051,-1.06876 z" />
    <path
       id="path157"
       style="fill:#fc73fd;stroke-width:0.52916667;stroke:#000000;stroke-opacity:1"
       d="m 420.82812,13.853516 c -1.85645,0.129982 -2.88765,1.890288 -3.78112,3.297288 -3.15833,4.333231 -6.24918,8.694642 -9.99111,12.549749 -1.77508,1.42673 -4.12788,1.702761 -6.27723,1.834424 -2.9633,0.132119 -5.89567,-0.66153 -8.75718,-1.464665 -0.97956,-0.08941 -1.76392,0.831533 -1.73521,1.769792 -1.20222,5.53801 -1.42055,11.269659 -3.16979,16.619625 -0.64806,2.013483 -1.145,4.075328 -1.79188,6.08561 -0.91507,2.291065 -2.62131,4.225807 -3.28554,6.61677 -0.14846,1.465041 0.78437,2.732202 1.28043,4.044471 1.39866,2.925985 2.78314,5.950692 3.04379,9.227014 0.26439,2.017834 1.0649,4.209768 2.97852,5.201172 1.41745,0.657726 2.90558,-0.204464 4.32868,-0.39969 1.91244,-0.328902 3.91885,-0.347324 5.81424,0.09743 0.87916,0.20829 1.85337,0.669444 1.96255,1.683116 0.34433,2.257201 -0.90662,4.284617 -1.66464,6.314028 -0.4909,1.241682 -0.55096,2.694622 0.19759,3.850449 1.22806,2.038158 3.45229,3.543784 3.86158,6.023023 0.0784,1.971824 0.23541,3.955515 0.66075,5.892355 0.57397,2.37085 1.26799,4.92316 3.13222,6.62522 0.62876,0.56312 1.47775,0.95732 2.31324,0.62202 1.83001,-0.52121 3.12559,-2.02673 4.6116,-3.12463 3.75478,-3.12751 7.47692,-6.32198 10.88947,-9.823132 1.65153,-2.140451 1.47018,-5.035006 1.17397,-7.568786 -0.57911,-3.478396 -2.30495,-6.610367 -3.76102,-9.778016 -1.86186,-3.858788 -3.85321,-7.780194 -7.02572,-10.74628 -2.52549,-2.51673 -4.90061,-5.201229 -6.84732,-8.195811 -1.37381,-1.925712 -3.31864,-3.789219 -3.36564,-6.311829 0.0668,-2.188579 1.52508,-3.960183 2.91152,-5.469772 2.07653,-2.294778 4.8779,-4.224281 5.75238,-7.349832 0.97262,-4.040185 -0.78852,-8.258278 0.54916,-12.215952 1.02824,-3.321491 3.91064,-5.739769 4.69966,-9.163669 0.88728,-2.125221 2.48708,-3.909206 3.08112,-6.167277 -0.58198,-0.219691 -1.14251,-0.612195 -1.78907,-0.574218 z" />
    <path
       id="path155"
       style="fill:#e2de9e;stroke-width:0.52916667;stroke:#000000;stroke-opacity:1"
       d="m 110.56641,52.341797 c -1.12204,0.281761 -2.14087,0.921465 -3.22128,1.340265 -3.55786,1.594146 -7.08325,3.321554 -10.870605,4.313126 -2.956687,0.800341 -5.7852,1.885547 -8.775166,2.460822 -1.932509,0.187756 -3.845506,0.559614 -5.695808,1.159865 -4.01594,1.124127 -8.094193,2.74182 -10.982849,5.871671 -3.642359,3.738957 -6.041474,8.513309 -7.732754,13.405752 -0.95051,3.147136 -0.741333,6.47206 -0.745442,9.716642 0.05721,1.839507 0.304529,3.726166 1.276615,5.329027 0.968176,1.733122 1.896173,3.539417 2.121079,5.543053 0.224697,1.205 0.183232,2.51285 0.718943,3.62553 1.050735,1.52808 3.103819,1.53634 4.768952,1.5391 4.166329,0.01 8.327336,-0.27568 12.494252,-0.27145 9.141608,-0.1461 18.284783,-0.12143 27.427263,-0.12911 1.74202,1.4552 3.36653,3.47445 5.79871,3.65853 1.85845,0.18923 3.74259,0.057 5.58154,0.4459 5.33905,0.77855 10.44779,2.67835 15.25842,5.07721 1.67046,0.66962 3.30487,1.42785 4.79545,2.44366 3.81187,2.4023 7.92544,4.28105 11.73775,6.64033 2.35774,1.38743 4.68312,2.85901 7.23462,3.86952 1.41222,0.63457 2.27667,2.00413 3.54443,2.85398 6.45065,4.9382 14.07706,7.95224 20.94158,12.22884 4.51299,2.74036 9.12985,5.31071 13.57562,8.16011 4.43723,2.86074 8.64023,6.07681 13.1824,8.77196 2.13119,1.03936 4.50173,1.55424 6.49077,2.89232 1.43151,0.84127 2.66546,2.05212 3.31574,3.59827 0.50843,0.88168 1.70814,1.57919 2.65255,0.90625 1.19398,-0.7074 2.10887,-1.84083 2.79334,-3.02735 0.58342,-1.24001 0.007,-2.57438 -0.60251,-3.67704 -0.882,-1.69765 -1.88393,-3.46675 -1.76974,-5.45096 -0.30831,-5.43701 0.10903,-10.88925 -0.19083,-16.32512 -0.11361,-1.06222 -0.24026,-2.24286 -1.15153,-2.94343 -1.22906,-1.15883 -1.5806,-2.90655 -2.13398,-4.44043 -0.60999,-2.09602 -1.44967,-4.18698 -2.99847,-5.77566 -2.10021,-2.42205 -4.38903,-4.68683 -6.24546,-7.31247 -1.12632,-1.53603 -2.46176,-2.90397 -3.9066,-4.136 -3.02079,-3.14724 -5.63482,-6.67208 -7.98295,-10.34136 -1.01456,-1.66805 -1.57771,-3.55169 -1.99702,-5.443228 -0.7176,-2.329704 -2.5629,-4.405133 -5.01272,-4.916258 -2.43856,-0.685743 -4.23235,-2.551354 -6.02529,-4.225824 -1.51212,-1.420424 -3.28409,-2.592991 -5.26231,-3.218116 -2.38567,-0.969124 -4.7166,-2.222613 -7.31013,-2.52313 -2.53435,-0.841996 -4.64559,-2.723579 -7.29533,-3.427901 -2.38642,-0.772396 -4.82777,-1.149415 -7.10204,-2.143326 -2.10555,-0.812449 -4.06539,-1.512663 -5.91601,-2.793492 -1.99834,-2.427439 -1.79488,-5.92983 -3.83399,-8.34375 -1.16797,-1.599991 -3.29467,-2.412031 -4.00042,-4.349973 -0.22901,-1.236755 -0.0745,-2.514075 -0.12262,-3.767214 -6.16175,-2.334563 -12.4219,-4.573076 -18.97133,-5.516473 -5.9028,-0.91704 -11.89326,-1.13868 -17.85484,-1.352668 z" />
    <path
       id="path153"
       style="fill:#b0f6aa;stroke-width:0.52916667;stroke:#000000;stroke-opacity:1"
       d="m 386.15625,215.62109 c -2.89603,0.24121 -5.06145,2.62045 -6.25,5.10157 -1.62012,3.06031 -3.77309,5.83181 -5.16931,9.00652 -1.20787,3.71508 -0.40116,8.06109 2.18373,11.01685 2.02508,2.40151 4.7203,4.12052 7.43871,5.63092 0.72989,0.45339 1.43141,-0.18726 1.96215,-0.66635 1.64648,-1.71522 2.10372,-4.16523 2.71444,-6.37808 1.04073,-3.88575 1.50408,-7.90123 1.5573,-11.91906 0.009,-2.562 0.12377,-5.13792 -0.11848,-7.69085 -0.14108,-1.7032 -1.17448,-3.3974 -2.87257,-3.91167 -0.46197,-0.1601 -0.95835,-0.22135 -1.44597,-0.18985 z" />
    <path
       id="path149"
       style="fill:#fdfd00;stroke-width:0.52916667;stroke:#000000;stroke-opacity:1"
       d="m 62.625,103.78711 c -6.095452,0.29145 -12.196048,0.75391 -18.30156,0.47157 -0.835461,-0.11937 -1.737657,0.0903 -2.242951,0.81675 -1.658297,2.19502 -3.707107,3.99091 -5.965487,5.49356 -1.948828,1.23483 -4.081169,2.61644 -4.894299,4.89535 -1.046345,1.99861 -1.958723,4.16879 -1.861328,6.46925 -0.206166,2.43388 -1.602973,4.5866 -1.717518,7.03558 -0.02593,0.86726 -0.512109,1.57447 -0.966076,2.26911 -0.757528,1.74585 -0.535933,3.71504 -0.653195,5.57002 -0.135274,6.45199 -0.141509,12.90932 0.03796,19.35967 0.04158,1.60816 -0.0056,3.54695 1.138672,4.89062 0.83171,1.51991 0.714654,3.20485 0.923324,4.87374 0.103138,2.29299 0.2139,4.84136 1.858433,6.62762 1.940566,2.28329 3.58459,4.78992 5.447383,7.13138 1.730376,2.20431 3.837893,4.09372 6.213192,5.57956 3.041568,2.10089 6.137604,4.17609 9.480221,5.76163 1.251985,0.27263 2.431189,0.75375 3.555233,1.36035 1.852875,0.89101 3.82571,1.52271 5.840742,1.90479 2.074448,0.86998 3.809904,2.3605 5.567092,3.73195 1.951826,1.58255 3.780966,3.41464 6.058023,4.52192 1.194908,0.32898 2.390159,0.65779 3.483113,1.25969 2.81583,1.27112 5.371036,3.02856 7.886317,4.79879 4.236054,2.44739 9.20645,2.89593 13.921762,3.78721 4.815876,0.85784 9.653026,1.60561 14.458456,2.51552 2.71725,0.66151 5.44737,1.30695 8.24515,1.50832 4.74074,0.48018 9.55567,0.69326 14.28969,0.0461 1.23943,-0.24458 2.76874,-0.51221 3.43007,-1.7172 0.53743,-1.17591 0.29905,-2.53192 0.13195,-3.7635 -0.31808,-1.42516 -1.27948,-2.56771 -2.04406,-3.76384 -0.0145,-0.42853 0.82319,-0.20502 1.12891,-0.33008 2.4936,0.054 4.91738,0.2642 7.41529,0.37067 6.58452,0.32667 13.17427,0.53104 19.76244,0.768 1.53879,-1.41969 2.7067,-3.27904 4.52892,-4.36393 1.6814,-0.60907 3.50475,-0.25194 5.24811,-0.30387 2.18341,0.23835 3.71508,1.98325 5.3633,3.24568 1.39023,1.12666 2.59098,2.46071 3.82054,3.74743 1.9098,1.55065 4.47631,1.90066 6.85359,2.01844 2.20483,-0.0865 4.0775,-1.5996 5.16265,-3.43962 1.17896,-1.7415 2.56412,-3.48134 4.50237,-4.44975 0.75872,-0.45347 1.66339,-0.54408 2.49318,-0.70047 3.19162,-1.85632 5.30738,-5.18317 8.76194,-6.64187 1.33741,-0.62827 2.20476,-1.89495 2.6757,-3.25837 1.25322,-2.89794 1.81264,-6.01661 2.50275,-9.07791 0.54224,-2.25174 2.02258,-4.22004 2.15058,-6.57865 0.22913,-0.83219 1.35054,-0.92451 1.4772,-1.81677 0.26032,-0.85985 0.36378,-1.81686 1.10175,-2.43307 1.18092,-1.25455 2.49948,-2.63402 2.58366,-4.46098 0.23812,-2.67169 -1.66447,-5.02237 -3.86449,-6.30142 -2.06916,-1.34478 -4.5299,-1.88579 -6.68903,-3.03308 -6.30315,-4.00143 -12.26297,-8.53399 -18.76197,-12.22784 -4.473,-2.55935 -8.78368,-5.39783 -13.36504,-7.76647 -4.76485,-2.55238 -9.64186,-4.96127 -13.98188,-8.21721 -2.37002,-1.67067 -4.63127,-3.55274 -7.31464,-4.71107 -4.76995,-2.82409 -9.52647,-5.67217 -14.43562,-8.25054 -4.7926,-2.54021 -9.66402,-4.96158 -14.71003,-6.95856 -3.98162,-1.44153 -8.24774,-1.63075 -12.41506,-2.10299 -1.50424,-0.1749 -2.94982,-0.7549 -4.08475,-1.76635 -0.9463,-0.68081 -1.79604,-1.57212 -2.79357,-2.13123 -11.897694,-0.0222 -23.815636,-0.0719 -35.680307,0.92197 -1.788029,0.053 -3.52059,0.17051 -5.199327,-0.22841 -1.844083,-0.3549 -3.220426,-1.71027 -4.832451,-2.55253 -0.844868,-0.41235 -1.806244,-0.4106 -2.725025,-0.4047 z" />
    <path
       id="path147"
       style="fill:#3ac9c6;stroke-width:0.52916667;stroke:#000000;stroke-opacity:1"
       d="m 361.64844,21.259766 c -3.39821,0.103731 -6.99486,0.549714 -9.80765,2.630813 -2.0612,1.356507 -4.51176,1.882714 -6.76323,2.831523 -5.75252,2.189211 -11.39285,4.53663 -17.272,6.345185 -1.93028,0.520797 -3.81059,1.275659 -5.41137,2.496311 -2.98043,2.138912 -5.69231,4.889454 -9.28791,5.973025 -2.73931,0.665295 -5.06618,2.43194 -7.7607,3.087685 -1.76014,0.656517 -3.36507,1.696768 -5.21097,2.132854 -2.75986,0.797905 -5.56811,1.489944 -8.16341,2.753555 -3.5755,1.401556 -7.46695,1.899901 -10.90641,3.66796 -3.05536,1.422417 -6.03361,2.930934 -9.19749,4.029707 -0.92578,0.418352 -2.14343,0.73479 -2.57628,1.738882 -0.18235,0.883659 0.39749,1.678811 0.42877,2.553806 0.6899,3.769677 0.44167,7.846244 2.34611,11.296521 1.20482,2.128978 3.10725,3.715383 4.99269,5.216079 1.31514,1.142895 2.50834,2.630098 2.61275,4.440619 0.67728,3.936294 0.1553,8.136018 -0.95892,11.947541 -0.94955,3.581131 -2.36554,7.043608 -3.0064,10.701258 -0.62032,4.42131 0.0577,8.97161 -0.46501,13.34476 -0.14771,1.26672 -0.0583,2.7326 1.00582,3.60512 1.00778,1.12711 2.3211,2.10357 3.88989,2.15797 2.87969,0.18336 5.78038,0.15648 8.6582,-0.0566 1.74129,-0.14148 3.49624,-0.48092 5.00087,-1.41489 1.90735,-1.10532 3.6442,-2.48739 5.41515,-3.78591 3.83026,-3.67665 6.71749,-8.29064 10.95974,-11.54078 3.03589,-1.64784 6.14942,-3.14585 9.36651,-4.40778 2.73491,-1.06711 5.42149,-2.21146 8.3565,-2.59329 2.36387,-0.32072 4.82434,-1.105464 6.40441,-2.997929 1.63207,-1.871114 1.91457,-4.501556 1.89765,-6.889038 -0.095,-2.425068 -0.42474,-4.836079 -0.66908,-7.248393 -0.1683,-1.171768 -0.56327,-2.660144 0.44348,-3.613266 1.17532,-1.191925 2.5242,-2.199966 3.71017,-3.383826 5.03517,-4.652168 9.45296,-9.912774 13.94039,-15.077978 0.92539,-1.03925 2.08542,-1.82538 3.2516,-2.554325 1.50373,-1.328046 1.40964,-3.499506 1.69321,-5.320066 0.24459,-2.654068 0.89815,-5.334986 2.44414,-7.548483 2.19616,-3.641506 5.10105,-6.813178 7.22616,-10.493245 0.51617,-1.383422 -0.34172,-2.762575 -0.33898,-4.160371 -0.35615,-2.651992 -0.0709,-5.34363 -0.30504,-7.997777 -0.21692,-1.11422 -1.29215,-1.903294 -2.4137,-1.838914 -1.17166,-0.116065 -2.35489,-0.0589 -3.52966,-0.02827 z" />
    <path
       id="path145"
       style="fill:#ac00fc;stroke-width:0.52916667;stroke:#000000;stroke-opacity:1"
       d="m 310.66602,175.31641 c -1.51698,0.34938 -2.96356,1.05384 -4.51436,1.32896 -5.70238,1.29659 -11.43538,2.47132 -17.26235,2.97481 -2.48398,0.18178 -4.97556,-0.17964 -7.34094,-0.93958 -2.44521,-0.71531 -5.00856,-1.83847 -7.59134,-1.12005 -2.95101,0.73821 -5.80693,2.0432 -8.16462,3.98241 -1.38329,1.11089 -2.4148,2.56355 -3.40019,4.01678 -1.87329,2.41927 -3.76108,4.94203 -6.31575,6.68241 -3.07539,1.7505 -6.73422,1.18522 -10.11378,1.46172 -1.8073,0.0944 -3.60774,0.58783 -5.1024,1.63118 -3.02664,1.67553 -6.54365,2.93299 -9.88177,3.18057 -1.93206,0.12821 -4.18528,0.48211 -5.7566,-0.94039 -1.5809,-1.16909 -2.05373,-3.1902 -2.30984,-5.03142 -0.75913,-4.44134 -0.61144,-9.10533 -1.82874,-13.49851 -0.22063,-0.85635 -1.16155,-1.67981 -2.05014,-1.15858 -0.86528,0.74305 -0.90417,1.98281 -1.3643,2.96275 -1.32268,3.72684 -2.00243,7.6449 -3.27422,11.38574 -0.70725,2.07403 -1.90253,4.13936 -3.92914,5.15527 -2.6535,1.70136 -4.73461,4.13718 -7.32854,5.91148 -1.33464,0.81235 -2.97452,0.92787 -4.26005,1.85038 -1.52426,0.88559 -2.54685,2.34801 -3.49173,3.79031 -1.12975,1.64459 -2.68273,3.33838 -4.81851,3.43951 -2.78829,0.22886 -5.63306,-0.72167 -7.78039,-2.50476 -2.493,-1.96966 -4.65326,-4.40556 -7.46216,-5.94623 -0.86755,-0.59842 -1.98029,0.12392 -2.20307,1.05321 -0.4348,2.04092 0.0928,4.13855 0.46826,6.14985 0.41334,1.96009 0.85229,3.95838 0.7544,5.98296 1.23053,0.87851 2.77943,0.46469 4.16211,0.71875 1.49483,0.45875 2.28829,1.9667 3.08861,3.19039 0.56411,1.24814 0.75457,2.64738 1.54005,3.8003 1.3986,2.49764 3.55376,4.68985 4.08173,7.58944 0.26468,2.87897 1.87924,5.57163 4.13336,7.34174 1.01311,0.57716 2.3049,0.42771 3.21894,1.22435 1.69842,1.14174 3.21994,2.5496 5.06481,3.46791 1.68613,1.01061 3.52212,1.79093 5.44057,2.20753 1.74089,1.02763 3.06739,2.60795 4.49352,4.01431 1.59989,1.68592 3.15954,3.40941 4.75286,5.10153 4.44731,0.13024 8.89716,0.69931 13.35161,0.40242 2.81443,-0.41054 5.23655,-2.35875 8.15332,-2.26104 4.25332,-0.21619 8.48498,-0.0372 12.70992,0.38206 2.07615,0.25585 4.22798,0.64803 6.14537,1.25994 3.16652,0.95319 6.14262,2.63211 8.40345,5.06818 1.15968,1.1209 2.39976,2.41637 4.11094,2.53591 1.45604,0.14318 2.97511,0.10345 4.30221,0.82212 1.30439,0.65978 2.60326,1.34207 3.87137,2.065 2.82716,1.90859 4.04566,5.33364 6.58462,7.52619 1.56894,1.08285 3.73397,0.50663 5.10882,-0.63808 1.7219,-1.26429 2.92431,-3.38921 5.11477,-3.90991 1.93349,-0.0339 3.48873,-1.2907 5.14964,-2.10455 2.02099,-0.83137 4.36906,-0.81624 6.18029,-2.15715 2.60567,-1.64267 4.66981,-4.08124 7.48269,-5.29743 2.66443,-1.3838 4.33977,-4.03286 5.72565,-6.59192 0.56383,-1.48003 -0.63751,-2.9245 -1.78605,-3.71185 -1.96871,-1.20634 -4.32491,-0.38244 -6.41916,-0.0657 -1.15845,0.21417 -2.47027,0.18056 -3.38074,-0.66697 -2.6737,-1.80902 -5.0651,-3.89461 -7.31262,-6.21389 -0.82048,-1.17038 -1.34904,-2.53089 -2.26398,-3.6224 -1.76953,-2.47169 -3.63894,-5.02109 -4.22342,-8.0724 -0.69561,-3.12402 -0.57626,-6.41424 -0.0951,-9.5944 0.50106,-2.36671 1.97656,-4.39636 3.83962,-5.8281 1.88083,-1.60702 4.17835,-2.70221 5.90779,-4.48214 1.47109,-2.0342 1.25975,-4.67184 1.50729,-7.04454 0.30174,-4.2488 0.21389,-8.4965 1.113,-12.65876 0.96097,-3.10124 3.54716,-5.29725 4.9633,-8.16376 0.82334,-1.5837 1.7382,-3.11713 2.81555,-4.54056 0.53361,-0.79559 0.91012,-2.16792 -0.1265,-2.74099 -0.18405,-0.0899 -0.382,-0.15236 -0.58789,-0.15234 z" />
    <path
       id="path141"
       style="fill:#d73852;stroke:#000000;stroke-width:0.529167;stroke-opacity:1"
       d="m 173.98242,218.33984 c -1.29403,3.19943 -2.57008,6.40999 -3.90234,9.59571 -0.97992,2.31591 -2.99012,4.16415 -3.86435,6.58008 -1.05448,2.48759 -1.0345,5.36067 -0.0241,7.85913 0.53965,1.65636 1.64456,3.22851 3.33272,3.84877 2.07354,1.11651 3.71499,2.90467 4.98569,4.8019 0.74815,1.0611 0.55491,2.49139 1.40483,3.49344 1.43948,1.83855 3.45064,3.14174 4.84056,5.0313 1.8848,2.44625 3.72137,5.09649 4.3578,8.16663 0.66682,1.10339 1.94547,1.59752 3.00182,2.24339 1.57576,0.83791 3.32592,1.31283 5.1017,1.43629 2.17906,0.45075 3.63906,2.41022 5.82155,2.85071 1.99435,0.52339 4.07664,0.43303 6.11204,0.66492 1.53411,-1.91828 2.56533,-2.67507 4.48006,-4.26355 5.10328,1.46617 14.09978,0.77884 19.0064,2.22511 3.63281,1.07903 4.33128,4.38271 7.02526,5.63414 6.23283,0.44664 12.45094,1.24114 18.70508,1.28516 2.33079,-0.0603 4.7007,-0.87069 6.32167,-2.60117 2.28011,-2.05442 4.05567,-4.71909 6.74342,-6.28538 1.49113,-0.46811 3.22105,0.0653 4.57965,-0.92892 1.23554,-0.92918 1.0488,-2.66898 0.73467,-3.9988 -0.15971,-0.63375 0.10272,-1.42297 -0.51613,-1.89081 -0.84367,-0.55075 -1.92637,-0.60786 -2.91197,-0.72344 -1.52218,-0.0984 -3.26131,-0.21359 -4.2805,-1.52323 -2.07017,-2.06833 -4.43037,-3.88681 -7.15574,-5.00229 -5.94313,-2.66017 -12.55946,-3.59023 -19.03265,-3.30963 -3.58026,0.18338 -7.13089,0.98265 -10.40608,2.45069 -3.32541,1.11386 -6.76329,0.23811 -10.15159,-0.0642 -1.52189,-0.21774 -3.09528,-0.25466 -4.57662,-0.64265 -1.52954,-1.07967 -2.46201,-2.76169 -3.73688,-4.10029 -1.7742,-2.17556 -3.95667,-4.21985 -6.74847,-4.93636 -2.09286,-0.67356 -4.10035,-1.74832 -5.55147,-3.43259 -1.17141,-1.1879 -2.63071,-2.14555 -4.29169,-2.43538 -2.8134,-1.16784 -4.47471,-3.92377 -5.87512,-6.4791 -1.00248,-1.91951 -1.51125,-4.03952 -2.17589,-6.08164 -0.77851,-1.65955 -2.89751,-2.29215 -3.23281,-4.21217 -0.33616,-1.23287 -0.84262,-2.45483 -1.7904,-3.34351 -0.77801,-1.04218 -1.82997,-2.25248 -3.27772,-2.0599 -0.96024,0.0656 -1.94473,0.10011 -2.85909,-0.25467 -0.0644,0.13411 -0.1289,0.26823 -0.19336,0.40234 z m 120.82031,56.08008 c -2.31016,0.21737 -4.79803,0.9941 -6.27618,2.88695 -0.96242,1.5676 -0.11987,3.49677 0.92495,4.78996 0.81244,1.28309 2.50397,2.27878 3.99702,1.53485 1.77976,-0.68736 3.45813,-1.7416 4.77012,-3.12686 1.02043,-1.41001 0.35222,-3.30422 -0.56775,-4.58185 -0.66004,-0.89331 -1.71324,-1.53896 -2.84816,-1.50305 z"
       sodipodi:nodetypes="cccccccccccccccccccccccccccccccccccccccccccccccc" />
    <path
       id="path139"
       style="fill:#d58000;stroke-width:0.52916667;stroke:#000000;stroke-opacity:1"
       d="m 315.56836,175.25 c -2.28866,0.10402 -3.98742,2.00164 -4.91992,3.9375 -2.32835,3.14213 -4.05267,6.68661 -6.40821,9.80859 -1.18399,2.49942 -1.02616,5.33951 -1.33845,8.02446 -0.32163,4.23429 -0.60147,8.4716 -0.89397,12.70797 -2.11008,1.8896 -4.42218,3.46556 -6.79367,5.0335 -1.91328,1.41935 -3.7606,3.37039 -3.90974,5.87689 -0.35471,3.01473 -0.34696,6.06362 -0.28981,9.09481 -0.003,1.29671 0.41915,2.54145 1.12132,3.62258 1.78514,3.26741 3.9602,6.30306 5.98708,9.41743 1.21849,1.46283 2.80685,2.49794 4.20227,3.76562 1.67802,1.35954 3.57808,2.9656 5.88652,2.74738 1.84183,-0.0529 3.69307,-1.09419 5.51748,-0.43046 2.46842,0.97785 3.62355,3.98901 6.35781,4.46588 2.56607,0.27026 5.31143,0.2115 7.60535,-1.11685 1.83528,-0.98502 3.60968,-2.09263 5.55795,-2.85152 5.10796,-2.17742 10.71736,-3.57028 15.04863,-7.22212 3.43361,-2.87527 4.8538,-7.41363 8.34944,-10.2176 2.90934,-1.96553 6.21529,-3.45851 8.66406,-6.03711 0.53498,-0.82564 0.45917,-1.93631 1.22616,-2.63115 1.40977,-1.82777 1.69195,-4.17968 2.51639,-6.27673 1.28559,-3.59857 2.59753,-7.18715 3.70591,-10.84537 0.8319,-2.63189 2.57244,-5.06041 2.51946,-7.91131 -0.0758,-1.54114 -1.73719,-2.43122 -3.1336,-2.50614 -3.55705,-0.20959 -7.29336,-0.79935 -10.27377,-2.89375 -1.31891,-0.57145 -2.79165,-0.56495 -4.17281,-0.9137 -4.61854,-0.807 -9.3025,-1.81133 -13.53639,-3.93095 -3.42305,-1.49107 -6.76427,-3.15047 -10.01316,-5.05958 -5.20198,-2.94987 -10.45995,-6.03249 -16.32128,-7.46751 -0.74256,-0.1559 -1.50257,-0.2258 -2.26105,-0.19076 z" />
    <path
       id="path137"
       style="fill:#03fd02;stroke-width:0.52916667;stroke:#000000;stroke-opacity:1"
       d="m 188.375,45.193359 c -3.97121,0.400827 -7.69735,2.034862 -11.69295,2.303069 -2.93741,0.316901 -5.80274,1.092076 -8.54299,2.187835 -4.73649,1.818957 -9.39247,3.842878 -14.14743,5.616414 -1.88225,0.764479 -3.82801,1.502771 -5.5346,2.589948 -0.93549,1.260285 -1.11258,2.896007 -1.25195,4.410156 -0.0114,1.289802 0.88024,2.309451 1.84077,3.053998 1.67471,1.518591 3.30986,3.275847 3.85342,5.538586 0.70598,2.231608 1.52973,4.766324 3.73475,5.95061 1.81269,1.0712 3.84807,1.719995 5.89137,2.152119 0.49818,0.342948 0.95991,0.728909 1.57534,0.86756 2.06078,0.648492 4.27445,0.806046 6.21971,1.811289 2.245,0.981035 4.21178,2.690986 6.70756,3.010217 2.03382,0.270437 3.75927,1.671168 5.7742,2.135514 1.14155,0.174518 2.24153,0.581616 3.1553,1.306898 2.74262,1.974449 4.73241,5.081975 8.07469,6.150454 2.09951,0.415029 4.04347,1.901536 4.64052,4.010398 0.69359,2.063116 1.04753,4.276446 2.2724,6.124436 3.06333,5.51909 7.67861,9.90614 11.90835,14.50992 1.29629,1.33485 2.13605,3.01847 3.43009,4.35342 1.87466,2.16731 4.06255,4.19196 5.24778,6.85701 0.37498,1.71532 1.28243,3.26173 1.66256,4.9757 0.6087,1.64606 2.4229,2.80926 4.17944,2.38362 3.00818,-0.20661 5.89933,-1.25372 8.4946,-2.75927 4.80187,-2.44964 9.48133,-5.21601 13.5716,-8.75179 0.71448,-0.51664 1.33536,-1.24231 2.13508,-1.59173 5.87386,-0.0797 11.85478,0.0886 17.57969,-1.4288 1.36439,-0.53179 2.4205,-1.6692 3.87958,-1.99485 0.97256,-0.25493 1.89585,-0.9351 2.05963,-1.98617 0.66556,-2.51558 0.51093,-5.15813 0.42213,-7.73231 -0.1721,-2.45685 -0.29769,-5.00043 0.47029,-7.39274 1.24037,-4.302709 2.88453,-8.513154 3.53446,-12.966089 0.35227,-2.142183 0.3878,-4.320546 0.31261,-6.483002 0.16973,-1.721756 0.0835,-3.775878 -1.40315,-4.936477 -1.41245,-1.266333 -3.07931,-2.245799 -4.29508,-3.727114 -2.08443,-2.243469 -3.38238,-5.153637 -3.6613,-8.237827 -0.35228,-2.908089 -0.25282,-5.903168 -1.17659,-8.717252 -1.7027,-0.679837 -3.57479,-0.459167 -5.33985,-0.828125 -1.12352,-0.252635 -2.49186,-0.489473 -3.68473,-0.830928 -1.78427,-0.461031 -3.51704,-1.249249 -5.36659,-1.596672 -5.82341,-1.388244 -11.72394,-2.402915 -17.40244,-4.314393 -4.36527,-1.118836 -8.86225,-1.610883 -13.34023,-2.022205 -4.01827,-0.304029 -8.10793,-0.02903 -12.04793,-1.032352 -6.42377,-1.530874 -12.99853,-2.373879 -19.58092,-2.840305 -1.38526,-0.10183 -2.76961,-0.175989 -4.15919,-0.12877 z" />
    <path
       id="path135"
       style="fill:#fd0000;stroke-width:0.52916667;stroke:#000000;stroke-opacity:1"
       d="m 362.7207,85.029297 c -3.56844,0.206998 -7.28222,0.462526 -10.53041,2.092174 -2.13977,1.210941 -3.90739,3.030139 -6.24084,3.907009 -2.15456,0.994695 -4.45648,1.72109 -6.83617,1.850426 -1.53323,0.186142 -2.89179,1.14862 -3.60082,2.516101 -0.70156,1.19933 -1.32629,2.559784 -2.62479,3.228458 -2.76144,1.723855 -6.09597,1.635745 -9.11417,2.728905 -3.37662,1.09305 -6.59679,2.60965 -9.81587,4.09133 -2.14116,1.12247 -4.50088,1.98488 -6.26244,3.6976 -1.55565,1.50579 -2.62106,3.45379 -4.06025,5.01899 -3.10563,3.66368 -6.76574,7.00905 -11.1408,9.14049 -3.06488,1.30534 -6.47095,1.10784 -9.72852,1.0957 -1.44845,-0.11342 -2.9632,-0.0975 -4.339,-0.59137 -1.67128,-0.83704 -2.63021,-2.83947 -4.55162,-3.19964 -1.99145,-0.19674 -3.26439,1.64127 -5.01427,2.20858 -2.14451,0.70052 -4.44342,0.56964 -6.66542,0.78165 -3.38253,0.19135 -6.81469,0.13194 -10.1394,0.84697 -3.3913,0.97828 -5.6686,3.88745 -8.63823,5.61916 -3.52154,2.27447 -7.18103,4.34922 -10.96456,6.15301 -1.53887,0.56184 -3.20228,0.6527 -4.75074,1.18676 -0.62281,0.17208 -1.24532,0.34527 -1.8684,0.51637 0.09,6.43603 -0.14035,12.88228 0.24024,19.31055 0.19095,1.7638 1.12441,3.29472 2.02216,4.7768 0.35992,0.66713 0.83824,1.51064 0.29074,2.21067 -0.77826,1.39331 -1.88065,2.59659 -3.01474,3.70238 -0.62356,0.39591 -1.4015,0.6271 -1.69465,1.37851 -0.56103,1.11659 -0.63581,2.51645 -1.70962,3.32596 -1.12505,1.03445 -2.30076,2.39884 -2.04428,4.04513 0.2223,1.13134 0.8997,2.12313 0.98783,3.29207 0.86825,4.63121 1.28034,9.31234 1.52975,14.01262 0.69677,2.00621 2.22731,3.66881 4.00712,4.77293 1.76411,0.70486 3.658,0.1031 5.4669,0.0509 3.45689,-0.34056 6.81835,-1.58121 9.6376,-3.61406 2.43801,-1.28721 5.29416,-1.06142 7.94663,-1.2946 2.30762,-0.16452 4.7854,-0.1476 6.84072,-1.35146 2.22906,-1.39538 3.70131,-3.64405 5.41336,-5.58067 1.26485,-1.51053 2.37036,-3.1549 3.45522,-4.78813 2.07305,-1.75678 4.71448,-2.85019 7.13284,-3.81994 1.61131,-0.62566 3.51007,-1.12066 5.25098,-0.53651 3.97765,0.9427 7.92852,2.76216 12.10761,2.18195 5.28919,-0.65305 10.50913,-1.76318 15.70929,-2.90925 1.7765,-0.33485 3.44686,-1.13212 5.27208,-1.20181 2.97496,-0.17671 5.97797,-0.28622 8.94671,-0.005 2.8546,0.59773 5.21191,2.43616 7.81307,3.65149 6.93276,3.5879 13.82315,7.33313 21.16109,10.042 3.74975,1.37918 7.65533,2.30886 11.61807,2.8064 1.9838,0.37562 3.69964,1.47238 5.45899,2.39063 2.32224,0.91866 4.88101,0.6317 7.32252,0.7474 0.80004,0.0108 1.60011,0.0201 2.40013,0.0319 2.66284,-3.08008 5.1508,-6.47304 6.22349,-10.46204 1.41931,-4.68363 1.44711,-9.63036 1.3937,-14.48132 -0.96091,-1.30281 -2.3293,-2.21423 -3.47937,-3.33498 -0.94839,-0.84988 -2.03013,-1.66412 -2.64172,-2.79784 0.0802,-1.16344 0.87953,-2.15502 0.89571,-3.34158 0.20921,-2.02649 -1.08569,-3.78218 -2.16913,-5.36643 -1.2404,-1.75626 -2.89187,-3.16666 -4.22463,-4.83886 -0.37819,-0.53983 0.0648,-1.15554 -0.0449,-1.75586 0.0124,-1.99226 -0.1365,-4.03375 -0.76333,-5.92982 -0.90578,-1.79028 -3.07222,-2.21633 -4.45017,-3.52298 -4.6518,-3.63237 -7.4607,-8.955 -10.35818,-13.96722 -1.04965,-1.79074 -2.13851,-3.55885 -3.29746,-5.28115 2.25364,-3.91474 4.53559,-7.76888 7.68087,-11.06539 2.57386,-3.07756 4.73061,-6.49543 7.46923,-9.432704 2.18666,-2.478795 4.54749,-5.209872 4.8831,-8.640581 0.13311,-1.820503 -0.16286,-3.818096 -1.34121,-5.265852 -1.45317,-1.408396 -3.63556,-1.135768 -5.48747,-1.173889 -0.99005,0.04697 -1.9801,0.09394 -2.97015,0.140913 z" />
    <text
       xml:space="preserve"
       style="font-size:21.1667px;line-height:1.25;font-family:sans-serif;stroke-width:0.264583"
       x="65.84404"
       y="167.87717"
       id="text242"><tspan
         sodipodi:role="line"
         id="tspan240"
         x="65.84404"
         y="167.87717"
         style="font-style:normal;font-variant:normal;font-weight:500;font-stretch:normal;font-family:'Source Han Serif TW';-inkscape-font-specification:'Source Han Serif TW Medium';stroke-width:0.264583">蕾蒂斯坦</tspan></text>
    <text
       xml:space="preserve"
       style="font-size:21.1667px;line-height:1.25;font-family:sans-serif;stroke-width:0.264583"
       x="76.399193"
       y="101.02787"
       id="text246"><tspan
         sodipodi:role="line"
         id="tspan244"
         x="76.399193"
         y="101.02787"
         style="font-style:normal;font-variant:normal;font-weight:500;font-stretch:normal;font-family:'Source Han Serif TW';-inkscape-font-specification:'Source Han Serif TW Medium';stroke-width:0.264583">蒂普蘭特</tspan></text>
    <text
       xml:space="preserve"
       style="font-size:21.1667px;line-height:1.25;font-family:sans-serif;stroke-width:0.264583"
       x="194.51637"
       y="87.959595"
       id="text250"><tspan
         sodipodi:role="line"
         id="tspan248"
         x="194.51637"
         y="87.959595"
         style="font-style:normal;font-variant:normal;font-weight:500;font-stretch:normal;font-family:'Source Han Serif TW';-inkscape-font-specification:'Source Han Serif TW Medium';stroke-width:0.264583">博瑞林</tspan></text>
    <text
       xml:space="preserve"
       style="font-size:21.1667px;line-height:1.25;font-family:sans-serif;stroke-width:0.264583"
       x="277.95236"
       y="72.378189"
       id="text254"><tspan
         sodipodi:role="line"
         id="tspan252"
         x="277.95236"
         y="72.378189"
         style="font-style:normal;font-variant:normal;font-weight:500;font-stretch:normal;font-family:'Source Han Serif TW';-inkscape-font-specification:'Source Han Serif TW Medium';stroke-width:0.264583">邁斯寇</tspan></text>
    <text
       xml:space="preserve"
       style="font-size:15.875px;line-height:1.25;font-family:sans-serif;stroke-width:0.264583"
       x="361.70166"
       y="38.3009"
       id="text258"><tspan
         sodipodi:role="line"
         id="tspan256"
         x="361.70166"
         y="38.3009"
         style="font-style:normal;font-variant:normal;font-weight:normal;font-stretch:normal;font-size:15.875px;font-family:'Source Han Serif TW';-inkscape-font-specification:'Source Han Serif TW';stroke-width:0.264583">  燕</tspan><tspan
         sodipodi:role="line"
         x="361.70166"
         y="59.61578"
         style="font-style:normal;font-variant:normal;font-weight:normal;font-stretch:normal;font-size:15.875px;font-family:'Source Han Serif TW';-inkscape-font-specification:'Source Han Serif TW';stroke-width:0.264583"
         id="tspan260">遼</tspan></text>
    <text
       xml:space="preserve"
       style="font-size:17.6389px;line-height:1.25;font-family:sans-serif;stroke-width:0.264583"
       x="388.02747"
       y="64.336159"
       id="text264"><tspan
         sodipodi:role="line"
         id="tspan262"
         x="388.02747"
         y="64.336159"
         style="font-style:normal;font-variant:normal;font-weight:500;font-stretch:normal;font-size:17.6389px;font-family:'Source Han Serif TW';-inkscape-font-specification:'Source Han Serif TW Medium';stroke-width:0.264583">宸</tspan><tspan
         sodipodi:role="line"
         x="388.02747"
         y="88.019379"
         style="font-style:normal;font-variant:normal;font-weight:500;font-stretch:normal;font-size:17.6389px;font-family:'Source Han Serif TW';-inkscape-font-specification:'Source Han Serif TW Medium';stroke-width:0.264583"
         id="tspan266">   楓</tspan></text>
    <text
       xml:space="preserve"
       style="font-size:21.1667px;line-height:1.25;font-family:sans-serif;stroke-width:0.264583"
       x="253.32364"
       y="158.82991"
       id="text270"><tspan
         sodipodi:role="line"
         id="tspan268"
         x="253.32364"
         y="158.82991"
         style="font-style:normal;font-variant:normal;font-weight:500;font-stretch:normal;font-family:'Source Han Serif TW';-inkscape-font-specification:'Source Han Serif TW Medium';stroke-width:0.264583">俄布洛多斯</tspan></text>
    <text
       xml:space="preserve"
       style="font-size:21.1667px;line-height:1.25;font-family:sans-serif;stroke-width:0.264583"
       x="213.11354"
       y="234.22385"
       id="text274"><tspan
         sodipodi:role="line"
         id="tspan272"
         x="213.11354"
         y="234.22385"
         style="font-style:normal;font-variant:normal;font-weight:500;font-stretch:normal;font-family:'Source Han Serif TW';-inkscape-font-specification:'Source Han Serif TW Medium';stroke-width:0.264583">薩塔扎</tspan></text>
    <text
       xml:space="preserve"
       style="font-size:21.1667px;line-height:1.25;font-family:sans-serif;stroke-width:0.264583"
       x="301.07315"
       y="224.67393"
       id="text278"><tspan
         sodipodi:role="line"
         id="tspan276"
         x="301.07315"
         y="224.67393"
         style="font-style:normal;font-variant:normal;font-weight:500;font-stretch:normal;font-family:'Source Han Serif TW';-inkscape-font-specification:'Source Han Serif TW Medium';stroke-width:0.264583">沃聖頓</tspan></text>
    <text
       xml:space="preserve"
       style="font-size:10.5833px;line-height:1.25;font-family:sans-serif;stroke-width:0.264583"
       x="378.25531"
       y="228.2213"
       id="text282"><tspan
         sodipodi:role="line"
         id="tspan280"
         x="378.25531"
         y="228.2213"
         style="font-style:normal;font-variant:normal;font-weight:500;font-stretch:normal;font-size:10.5833px;font-family:'Source Han Serif TW';-inkscape-font-specification:'Source Han Serif TW Medium';stroke-width:0.264583">東</tspan><tspan
         sodipodi:role="line"
         x="378.25531"
         y="242.43117"
         style="font-style:normal;font-variant:normal;font-weight:500;font-stretch:normal;font-size:10.5833px;font-family:'Source Han Serif TW';-inkscape-font-specification:'Source Han Serif TW Medium';stroke-width:0.264583"
         id="tspan284">寧</tspan></text>
    <text
       xml:space="preserve"
       style="font-size:14.1111px;line-height:1.25;font-family:sans-serif;stroke-width:0.264583"
       x="200.45508"
       y="268.69156"
       id="text288"><tspan
         sodipodi:role="line"
         id="tspan286"
         x="200.45508"
         y="268.69156"
         style="font-style:normal;font-variant:normal;font-weight:500;font-stretch:normal;font-size:14.1111px;font-family:'Source Han Serif TW';-inkscape-font-specification:'Source Han Serif TW Medium';stroke-width:0.264583">賽羅爾</tspan></text>
  </g>
</svg>
