<?xml version="1.0" encoding="UTF-8" standalone="no"?>
<svg
   xmlns:dc="http://purl.org/dc/elements/1.1/"
   xmlns:cc="http://creativecommons.org/ns#"
   xmlns:rdf="http://www.w3.org/1999/02/22-rdf-syntax-ns#"
   xmlns:svg="http://www.w3.org/2000/svg"
   xmlns="http://www.w3.org/2000/svg"
   xmlns:sodipodi="http://sodipodi.sourceforge.net/DTD/sodipodi-0.dtd"
   xmlns:inkscape="http://www.inkscape.org/namespaces/inkscape"
   version="1.1"
   id="svg289"
   width="791"
   height="769"
   viewBox="0 0 791 769"
   sodipodi:docname="smet1158-2.svg"
   inkscape:version="1.0.1 (3bc2e813f5, 2020-09-07)">
  <metadata
     id="metadata295">
    <rdf:RDF>
      <cc:Work
         rdf:about="">
        <dc:format>image/svg+xml</dc:format>
        <dc:type
           rdf:resource="http://purl.org/dc/dcmitype/StillImage" />
        <dc:title />
      </cc:Work>
    </rdf:RDF>
  </metadata>
  <defs
     id="defs293" />
  <sodipodi:namedview
     pagecolor="#ffffff"
     bordercolor="#666666"
     borderopacity="1"
     objecttolerance="10"
     gridtolerance="10"
     guidetolerance="10"
     inkscape:pageopacity="0"
     inkscape:pageshadow="2"
     inkscape:window-width="1920"
     inkscape:window-height="1001"
     id="namedview291"
     showgrid="false"
     inkscape:zoom="0.73928979"
     inkscape:cx="-115.81974"
     inkscape:cy="360.95775"
     inkscape:window-x="-9"
     inkscape:window-y="-9"
     inkscape:window-maximized="1"
     inkscape:current-layer="g297"
     inkscape:document-rotation="0" />
  <g
     inkscape:groupmode="layer"
     inkscape:label="Image"
     id="g297">
    <rect
       style="fill:#00ffff;fill-opacity:1;stroke:none;stroke-width:0.5;stroke-opacity:1"
       id="rect463"
       width="790"
       height="768"
       x="0"
       y="0"
       inkscape:export-xdpi="96"
       inkscape:export-ydpi="96" />
    <path
       style="fill:#008000"
       d="m 15.75,767.25179 c 8.9375,-0.16573 16.25,-0.53311 16.25,-0.8164 0,-0.28329 -0.93042,-2.33884 -2.0676,-4.5679 -1.224507,-2.40023 -3.071988,-10.23345 -4.530758,-19.21016 -1.858373,-11.43571 -3.192204,-16.60363 -5.4324,-21.04779 C 18.336159,718.36978 17,714.19283 17,712.32742 c 0,-1.86541 -0.697452,-5.0609 -1.549894,-7.10108 -2.904698,-6.95192 -3.40759,-11.99818 -4.022383,-40.36262 L 10.812946,636.5 l 2.593527,-4.80291 c 3.001694,-5.5588 3.207036,-7.83112 1.010599,-11.18331 C 12.804314,618.0524 13.250817,614 15.134775,614 c 0.591571,0 0.695087,-0.91897 0.253449,-2.25 -0.410604,-1.2375 -0.778428,-4.01088 -0.817388,-6.16307 C 14.49868,601.60096 12,599.00564 12,602.91667 12,604.0625 11.55,605 11,605 c -0.55,0 -1,1.95929 -1,4.35398 C 10,614.55773 6.5680219,619 2.5477489,619 H 0 V 309.5 0 h 343.80146 343.80145 l -0.11562,13.25 c -0.0879,10.072528 -0.53824,14.329142 -1.87796,17.75 -0.96929,2.475 -2.17893,6.490689 -2.6881,8.923753 -0.50916,2.433065 -1.61108,5.181042 -2.44872,6.106618 -1.29261,1.428328 -1.31324,1.856918 -0.13639,2.833621 1.06792,0.886298 2.87007,0.59237 7.84182,-1.278989 7.39178,-2.782261 7.7456,-2.670854 10.84558,3.414997 1.26071,2.475 2.47534,3.962447 2.69919,3.305439 0.22385,-0.657009 -0.0657,-2.077722 -0.64334,-3.15714 -0.82096,-1.53397 -0.624,-2.474236 0.90187,-4.305439 1.92964,-2.315763 1.95261,-2.318186 1.98549,-0.209491 0.0199,1.274874 0.8381,2.343835 2.03327,2.65638 1.48725,0.388924 2.00853,1.380236 2.03327,3.866631 l 0.0333,3.34362 1.96673,-2.360784 c 1.0817,-1.298431 1.96673,-3.435931 1.96673,-4.75 0,-2.724202 1.93897,-3.309939 2.116,-0.639216 0.10547,1.591124 0.15648,1.596508 0.56191,0.0593 0.24524,-0.929888 -0.35993,-2.920562 -1.34484,-4.423722 -1.42871,-2.18049 -1.51704,-2.82425 -0.43691,-3.184295 0.74461,-0.248204 2.19759,-1.295029 3.22884,-2.326279 2.26965,-2.26965 9.37345,-2.583202 10.57531,-0.46678 0.43983,0.774522 3.44892,1.895656 6.68688,2.491409 6.72123,1.236645 8.95899,2.66859 8.27253,5.293603 -0.29525,1.129038 0.24956,2.223033 1.41867,2.848721 1.0439,0.558677 2.17709,2.127787 2.51821,3.486912 C 745.96386,53.992133 746.93837,55 747.98596,55 c 2.72804,0 3.50557,1.687662 5.9893,13 2.4978,11.37643 6.18075,20 8.54159,20 0.81573,0 1.48315,0.747964 1.48315,1.662142 0,0.914179 1.07013,3.501679 2.37807,5.75 6.50379,11.179918 7.22122,15.695948 7.08333,44.587858 -0.12448,26.08042 -1.95133,46.24436 -4.65116,51.33719 -0.54097,1.02047 -0.67175,4.03433 -0.29418,6.77957 0.45576,3.31381 0.28111,5.42271 -0.53003,6.40007 -0.66538,0.80174 -0.92718,2.19414 -0.58179,3.09423 0.70085,1.82637 -7.09427,16.22024 -11.12961,20.5511 -2.21801,2.38044 -3.07567,2.62584 -8.10458,2.31895 -3.09325,-0.18876 -5.78443,-0.82424 -5.9804,-1.41216 C 741.99368,228.48103 740.46286,228 738.78784,228 h -3.0455 l 0.6754,5.09142 c 0.73062,5.50772 -0.32501,7.90858 -3.47731,7.90858 -1.52105,0 -1.72127,0.57567 -1.23736,3.55765 0.45697,2.816 0.16845,3.84404 -1.38405,4.93145 -3.21666,2.25304 -4.74504,8.95056 -2.89074,12.66759 2.46713,4.94549 3.08343,12.17374 1.17314,13.75914 -0.88078,0.73098 -1.60142,1.97283 -1.60142,2.75967 0,0.78683 -1.125,3.08619 -2.5,5.10969 -1.375,2.02349 -2.5,4.17118 -2.5,4.77263 0,0.60145 -1.16632,2.18449 -2.59182,3.51787 -3.86048,3.61097 -4.58682,5.55024 -3.86977,10.33191 0.63397,4.22756 0.7852,4.37581 6.30557,6.18122 3.30366,1.08045 7.55863,3.52616 10.23068,5.88048 2.51606,2.21689 7.28656,6.36076 10.60111,9.2086 4.91226,4.2206 6.45557,6.32535 8.34745,11.38419 1.27655,3.41345 3.36855,7.33661 4.64889,8.71812 1.93284,2.08557 2.32789,3.59748 2.32789,8.90923 0,6.38948 -0.007,6.40405 -5.31977,11.75984 -3.45407,3.48178 -6.77908,5.79966 -9.48077,6.60911 -3.62827,1.08705 -4.08697,1.54164 -3.58274,3.55062 0.47333,1.88591 0.0891,2.42672 -2.11766,2.98058 -1.7187,0.43137 -3.04551,1.6795 -3.66038,3.44334 -0.92944,2.66618 -4.64416,4.66205 -5.92669,3.18432 -0.34238,-0.39449 -1.67641,-3.77047 -2.96451,-7.50219 -1.98181,-5.74142 -2.17922,-7.39485 -1.28353,-10.75056 C 725.05886,360.73845 724.31633,357 721.88342,357 720.64946,357 720,356.29091 720,354.94363 c 0,-1.131 -1.41168,-3.34574 -3.13706,-4.92163 -3.35245,-3.06199 -3.38243,-6.022 -0.061,-6.022 2.81245,0 3.25841,-0.98261 1.76055,-3.87914 -2.18414,-4.22366 -4.72225,-5.81495 -10.26197,-6.43381 -4.55861,-0.50926 -5.2757,-0.34064 -5.81801,1.36803 -0.63298,1.99433 -4.67321,1.88699 -6.93252,-0.18419 C 695.0275,334.3919 693.79,334 692.8,334 c -2.47451,0 -2.4005,-4.96687 0.12179,-8.17344 1.89571,-2.41001 1.89571,-2.45944 0,-3.64333 C 691.57373,321.34135 691,319.84849 691,317.18266 c 0,-7.08374 -2.14525,-8.17809 -12.60649,-6.4309 C 671.10774,311.96859 657,323.99913 657,328.99532 c 0,2.32956 -6.68095,9.27746 -8.3778,8.71255 -1.74277,-0.5802 -2.00307,-3.95497 -0.39658,-5.14177 2.56227,-1.8929 3.05257,-6.26009 0.76984,-6.85704 -3.09098,-0.80831 -3.46288,-3.48297 -1.13298,-8.14815 2.43538,-4.87637 2.81316,-11.75529 0.74008,-13.47579 -1.71446,-1.42288 -9.92535,3.14515 -11.45475,6.37272 -0.53223,1.12319 -1.91272,4.10603 -3.06775,6.62853 -1.15502,2.5225 -3.25894,5.20659 -4.67537,5.96464 -3.10734,1.663 -5.40469,5.80498 -5.40469,9.74434 0,2.80863 -2.57592,6.20465 -4.7063,6.20465 -0.57684,0 -1.6412,0.71379 -2.36524,1.5862 -0.8813,1.0619 -2.23743,1.40201 -4.10275,1.02894 -2.08606,-0.41721 -3.04259,-0.0784 -3.80601,1.34806 -4.09472,7.65104 4.445,16.06957 12.12923,11.9571 2.80039,-1.49873 5.70025,1.28432 6.49102,6.22953 0.75536,4.72374 2.30255,6.0774 6.47881,5.6684 2.65213,-0.25974 3.39572,-0.86945 4.04539,-3.31707 0.43779,-1.64936 1.46226,-3.48604 2.2766,-4.0815 0.81434,-0.59546 1.9324,-2.27091 2.48457,-3.72323 1.33638,-3.51496 5.11108,-4.38157 9.66737,-2.21947 3.21467,1.52546 4.05047,1.5523 8.24237,0.26465 7.65597,-2.35172 10.02611,-2.14294 10.80279,0.95161 0.88915,3.54265 -1.50444,7.7127 -4.67127,8.13816 -1.35662,0.18225 -4.04158,1.81523 -5.96658,3.62883 -1.925,1.8136 -4.12716,3.48604 -4.89369,3.71652 -0.76653,0.23048 -1.51652,1.52251 -1.66665,2.87117 -0.5105,4.58587 -2.33134,7.9521 -4.30141,7.9521 -1.30026,0 -2.06695,0.87912 -2.39831,2.75 -0.26787,1.5125 -1.99036,6.03436 -3.82774,10.04857 -4.0947,8.94587 -3.7416,9.75143 5.65924,12.91115 6.70762,2.25449 7.09941,2.57341 12.28618,10.00128 2.9467,4.21988 6.07033,9.16708 6.94141,10.99376 1.179,2.47239 2.5572,3.58335 5.39238,4.34678 2.09472,0.56405 3.80859,1.46548 3.80859,2.00318 0,0.5377 1.575,1.7287 3.5,2.64667 5.34981,2.55115 4.94216,6.07927 -0.75,6.49111 l -4.25,0.3075 5,1.9222 c 2.75,1.0572 5.5625,2.3498 6.25,2.87244 3.50891,2.66747 -0.35867,9.17813 -9.96824,16.78048 -4.11786,3.25773 -4.52108,3.89634 -3.1688,5.01863 1.26615,1.05081 1.94597,1.03591 3.71824,-0.0815 7.25074,-4.57155 7.07999,-4.53928 11.04685,-2.08763 2.78655,1.72218 3.54376,2.74635 3.08926,4.17837 -0.41638,1.31189 -0.11864,1.897 0.9653,1.897 1.81546,0 2.19817,4.49212 0.47352,5.55802 -1.05254,0.6505 -0.86794,3.83353 0.64802,11.1735 0.60054,2.90766 0.20148,3.68437 -3.98175,7.75 -2.55704,2.48517 -5.13699,4.51848 -5.73323,4.51848 -0.70553,0 -0.64781,0.52565 0.16533,1.50542 1.95637,2.35729 0.37354,9.1244 -3.99904,17.09715 -2.58336,4.71037 -3.7033,7.83691 -3.32517,9.28288 0.34499,1.3192 -0.0888,2.90842 -1.09823,4.02388 -1.48137,1.63689 -1.49541,1.90994 -0.12523,2.43573 2.14522,0.8232 1.92687,4.35169 -0.45683,7.38207 -1.1,1.39842 -2,3.44882 -2,4.55643 0,4.13792 -6.18885,14.43607 -9.67453,16.09828 C 662.09533,566.44531 661,567.66922 661,569.09767 661,571.85041 656.98794,579 655.44322,579 653.57439,579 646,587.73956 646,589.89587 c 0,3.85112 -1.2483,4.94925 -7.57184,6.66095 -5.12998,1.38862 -6.42816,2.13643 -6.42816,3.70289 0,1.69813 -0.46762,1.87515 -3.46708,1.31244 -2.81436,-0.52797 -3.70263,-0.27326 -4.71824,1.35299 -0.88524,1.41749 -1.91848,1.83593 -3.53292,1.43073 C 619.02679,604.04089 618,604.22128 618,604.75673 c 0,0.53546 -0.93175,2.15808 -2.07055,3.60584 -1.77322,2.25428 -2.38353,2.4715 -4.25,1.51267 C 607.99148,607.98068 604,603.72655 604,601.69046 c 0,-1.65314 -0.23115,-1.74351 -1.58516,-0.61979 -1.12245,0.93155 -1.40049,2.20787 -0.95254,4.37245 1.89901,9.17635 1.88777,9.28862 -1.11317,11.11223 -1.56702,0.95224 -4.06841,2.56685 -5.55864,3.588 -1.49023,1.02116 -3.64185,1.85665 -4.78138,1.85665 -1.13953,0 -2.3309,0.675 -2.64748,1.5 -0.3493,0.91025 -1.86149,1.5 -3.84617,1.5 -1.79882,0 -3.8554,0.70467 -4.57018,1.56594 C 577.22285,628.64133 572.5707,631 570.1997,631 c -2.73146,0 -10.20371,5.69447 -10.17774,7.75627 0.0121,0.95905 0.88694,3.64922 1.94414,5.97816 1.71738,3.78327 1.7607,4.39591 0.40661,5.75 C 557.99709,654.86005 551,647.25549 551,638.12437 v -3.63138 l -9.92547,-0.23762 c -9.49417,-0.2273 -10.16172,-0.10193 -15.36207,2.88499 -2.99012,1.71744 -6.25227,4.52595 -7.24921,6.24113 -2.1706,3.73439 -3.28738,4.58294 -6.05826,4.6032 -3.15458,0.0231 -5.22882,2.99953 -5.58536,8.01486 -0.27801,3.91047 -0.78846,4.79843 -3.91983,6.8188 -3.1608,2.03936 -3.82106,3.20977 -5.4098,9.58982 l -1.8096,7.26696 3.25979,4.73794 c 1.79288,2.60587 4.581,5.54142 6.19582,6.52345 1.61481,0.98202 4.24646,3.85185 5.84811,6.37739 5.1249,8.08113 15.70458,17.48576 21.84954,19.42279 4.33232,1.36564 5.91205,2.48433 7.85539,5.56278 1.38816,2.19898 3.90911,4.47033 5.87174,5.29037 2.54117,1.06177 3.43921,2.05309 3.43921,3.79645 0,1.29771 0.90355,4.40208 2.00788,6.89862 2.03035,4.58992 6.00025,20.90251 6.31898,25.96508 L 558.5,767 h 77.18664 77.18664 l 0.31336,-3.24181 C 713.65763,758.88564 717,758.59507 717,763.42668 V 767 h 25.4701 25.4701 l -0.17194,-3.25 c -0.49524,-9.36114 -0.0835,-10.4267 4.47606,-11.58405 5.47635,-1.39004 6.09649,-0.60783 4.276,5.39355 -1.71007,5.63739 -1.94827,9.4405 -0.59128,9.4405 1.01426,0 3.38436,-7.49144 5.46516,-17.27433 1.28664,-6.04917 1.35653,-6.14586 2.46499,-3.41057 1.84409,4.55053 1.40821,12.76124 -0.85919,16.1849 -3.77687,5.70288 -1.05831,6.45295 3.35248,0.92497 2.76578,-3.46632 2.83311,-3.82344 2.21534,-11.74997 -0.829,-10.63686 -0.836,-13.42905 -0.0444,-17.75157 0.56984,-3.11182 0.3185,-3.79702 -1.93421,-5.27305 -3.4434,-2.2562 -3.4878,-5.65038 -0.0739,-5.65038 h 2.51524 l -0.26524,-156.75 c -0.25883,-152.96436 -0.31196,-156.82722 -2.19975,-159.94735 -1.62163,-2.68023 -1.74293,-3.6178 -0.75,-5.79705 1.97515,-4.33498 1.44295,-9.04501 -1.40438,-12.42887 -2.77853,-3.3021 -4.31659,-3.77125 -6.19746,-1.89038 -0.91512,0.91512 -0.81881,1.59246 0.42128,2.96275 0.8842,0.97703 1.34218,2.46817 1.01774,3.31365 -0.69814,1.81931 -3.00855,2.10489 -2.40606,0.29741 0.4372,-1.31159 -2.47478,-3.95373 -5.63273,-5.11079 -1.75356,-0.6425 -1.77113,-0.81813 -0.25,-2.49896 0.89987,-0.99434 1.63612,-2.34946 1.63612,-3.01137 0,-0.66192 0.98646,-1.56841 2.19214,-2.01442 1.22024,-0.45139 2.69073,-2.29172 3.31669,-4.15085 1.62385,-4.82287 3.62639,-5.75658 7.9373,-3.70085 L 790,373.96764 V 570.98382 768 L 394.75,767.77657 C 177.3625,767.65368 6.8125,767.41753 15.75,767.25179 Z M 386.49464,765.25 c -0.93092,-2.26475 -3.90322,-13.8751 -7.10412,-27.75 -1.451,-6.28964 -3.1557,-11.34648 -3.98094,-11.80912 -0.79381,-0.44502 -2.8455,-3.82002 -4.55932,-7.5 -2.85696,-6.13458 -3.17985,-6.48302 -3.88347,-4.19088 -0.42209,1.375 -0.81229,3.65287 -0.86711,5.06194 -0.10942,2.81226 -5.39484,7.49171 -7.20102,6.37543 -0.58217,-0.3598 -1.72305,0.2946 -2.53528,1.45422 -0.81223,1.15963 -2.02042,2.10841 -2.68485,2.10841 -0.66444,0 -3.17055,2.025 -5.56913,4.5 -4.82038,4.97395 -6.1094,5.49656 -6.1094,2.47695 0,-1.92641 -0.11907,-1.94504 -2.49228,-0.39005 -2.51399,1.64723 -6.14621,1.25522 -5.03463,-0.54336 0.32992,-0.53383 -0.26834,-1.83879 -1.32947,-2.89992 -1.73156,-1.73156 -2.08613,-1.77253 -3.45894,-0.39973 -2.66824,2.66824 -4.75524,0.91743 -3.50631,-2.94149 0.58785,-1.81632 1.37024,-5.7774 1.73863,-8.8024 0.3684,-3.025 1.32103,-6.5125 2.11696,-7.75 1.18322,-1.83967 1.21715,-2.61826 0.18606,-4.26929 -0.69358,-1.11061 -1.91516,-5.43794 -2.71461,-9.61629 C 325.93445,690.15373 324.77338,688 321.91802,688 320.11397,688 315,683.32866 315,681.68076 c 0,-0.46182 1.35,-0.54316 3,-0.18076 3.89692,0.85591 4.04246,-1.50161 0.42165,-6.83011 -2.24076,-3.29757 -2.94814,-3.71316 -5.40262,-3.17407 -2.23151,0.49012 -3.16358,0.13589 -4.44091,-1.68775 -0.88915,-1.26944 -1.76831,-2.08307 -1.95368,-1.80807 -0.69552,1.03179 -9.94971,-10.696 -12.23077,-15.5 -1.3405,-2.82314 -2.37839,-6.86431 -2.3839,-9.28212 -0.0112,-4.92387 -1.89279,-9.97041 -4.62175,-12.39603 C 284.91532,628.62401 277,630.37879 277,633.1248 c 0,3.06485 -1.17468,4.8752 -3.16336,4.8752 -1.07216,0 -3.23019,1.4023 -4.79562,3.11623 l -2.84624,3.11624 -1.21815,-2.27614 c -1.10386,-2.06257 -1.30822,-2.11519 -2.17811,-0.56078 -0.69492,1.24175 -1.30735,1.42705 -2.21816,0.67114 -1.76152,-1.46193 -8.85047,-0.8607 -10.19985,0.86506 -1.70795,2.18437 -11.56039,2.51574 -13.08906,0.44024 -1.39742,-1.89731 -6.66086,-1.40835 -13.25908,1.23173 -3.52669,1.41111 -4.00398,2.02416 -4.58324,5.88695 -0.35563,2.37149 -0.33675,5.28806 0.042,6.48125 1.14324,3.60204 -5.91988,9.26327 -14.76283,11.8327 -8.9761,2.60812 -19.6492,9.33408 -23.82737,15.01551 -2.00593,2.72764 -5.2116,5.31752 -8.86388,7.16119 -3.14682,1.58851 -6.45316,4.00487 -7.34743,5.36968 -0.97664,1.49056 -3.93478,3.32382 -7.40775,4.59086 -9.18197,3.34985 -10.14648,4.03546 -10.47896,7.44883 -0.39601,4.06554 -7.22163,7.85327 -12.73096,7.06478 -3.19603,-0.45741 -3.78812,-0.16627 -5.62656,2.76666 -1.82512,2.91169 -2.49541,3.24751 -6,3.00607 -9.50327,-0.65471 -11.26877,2.4489 -11.67204,20.51849 -0.15629,7.00345 -0.68616,12.24811 -1.2376,12.25 -0.53035,0.002 -0.24927,0.71832 0.62464,1.59223 1.23376,1.23376 1.39875,2.40726 0.73814,5.25 -0.46793,2.01359 -0.86151,4.22358 -0.87463,4.91108 -0.019,0.9941 28.35148,1.25 138.58313,1.25 131.61402,0 138.5707,-0.0883 137.88765,-1.75 z m 367.11302,-9.5 c -0.46299,-6.30444 -1.14556,-9.60355 -2.14348,-10.36024 -0.8053,-0.61064 -1.46418,-1.39814 -1.46418,-1.75 0,-1.21985 6.56485,-0.63285 8.56128,0.7655 1.45863,1.02167 3.17836,1.19094 6.29998,0.62011 5.62327,-1.02829 6.13559,0.37244 2.54747,6.965 C 764.79226,756.79768 757.07335,765 755.16582,765 c -0.48337,0 -1.18455,-4.1625 -1.55816,-9.25 z m -33.89508,-7.37076 C 719.32066,747.98733 719,746.79352 719,745.72634 c 0,-1.45571 0.43707,-1.76038 1.75,-1.21988 0.9625,0.39625 2.5559,0.95169 3.54089,1.23432 0.98499,0.28263 1.62529,1.01907 1.42288,1.63654 -0.42633,1.30061 -4.94766,2.05546 -6.00119,1.00192 z m 10.43187,-14.80414 c -2.25271,-2.98369 -5.00677,-5.71402 -6.12014,-6.06738 C 718.70956,725.82088 723.20002,723 731.2,723 c 7.87533,0 10.25416,1.57351 11.36987,7.52075 1.0213,5.44399 -0.74285,8.47925 -4.92829,8.47925 -2.94706,0 -3.94827,-0.72447 -7.49713,-5.4249 z m 20.52222,4.75823 C 749.64153,737.3082 749.87661,733.19429 751,732.5 c 0.59512,-0.3678 1,0.82295 1,2.94098 0,3.65458 -0.1802,4.04549 -1.33333,2.89235 z M 768,735.64922 c 0,-0.74292 0.49402,-2.76792 1.09783,-4.5 1.40431,-4.02841 6.33046,-4.45113 9.72786,-0.83477 3.64331,3.87813 2.8742,5.04702 -2.873,4.36635 -3.90193,-0.46212 -5.17433,-0.2668 -5.60699,0.86071 -0.70406,1.83474 -2.3457,1.91012 -2.3457,0.10771 z m -9.82379,-0.87301 c -2.77026,-2.77026 -0.9511,-4.79453 2.22296,-2.4736 1.51653,1.10892 1.57115,1.47713 0.36734,2.47621 -1.08234,0.89826 -1.69004,0.89765 -2.5903,-0.003 z m 19.35248,-10.72979 c -0.36178,-0.58537 -0.4082,-1.85068 -0.10316,-2.81179 0.48091,-1.5152 -0.0308,-1.7009 -3.85002,-1.39715 -3.58107,0.28482 -4.60266,-0.0197 -5.4637,-1.62855 -0.58248,-1.08838 -2.28564,-2.28673 -3.78479,-2.66299 -1.49915,-0.37626 -3.73954,-1.77803 -4.97863,-3.11503 -4.38786,-4.73457 -5.97335,-1.79622 -2.26683,4.20106 2.55847,4.13968 1.69651,4.19652 -5.58156,0.36803 -7.13576,-3.75363 -8.667,-3.74688 -12.5566,0.0553 -2.99845,2.93107 -3.22539,2.98993 -5.58006,1.44708 -1.34998,-0.88454 -3.2977,-1.34063 -4.32827,-1.01354 -2.85099,0.90487 -3.59538,-2.91993 -1.48089,-7.60903 1.96179,-4.35046 1.60441,-5.38234 -1.52061,-4.39049 -1.48897,0.47258 -1.94433,1.21647 -1.53468,2.50714 1.29937,4.09397 -1.95381,3.24471 -6.49683,-1.69603 C 713.30424,701.19138 709,691.18081 709,685.36399 c 0,-2.52722 0.0635,-2.55243 2.46482,-0.979 4.69987,3.07947 5.81751,2.25893 4.95111,-3.63499 -0.42445,-2.8875 -0.85208,-6.825 -0.95027,-8.75 -0.0982,-1.925 -0.70639,-7.44232 -1.35155,-12.2607 -1.3228,-9.87934 -0.79603,-11.81818 3.86587,-14.22895 3.7474,-1.93785 4.29166,-1.90894 9.26111,0.49204 l 4.14448,2.0024 2.61193,-2.5024 C 738.09064,641.58092 739,642.236 739,649.1061 c 0,5.15878 0.43541,6.67142 2.80655,9.75 2.57228,3.33974 2.79121,4.29076 2.62287,11.39339 C 744.23966,678.2554 743.10883,681 740,681 c -2.78287,0 -3.65052,2.04064 -3.78673,8.90613 -0.0958,4.82775 0.33867,7.06026 1.76332,9.061 1.03974,1.46017 2.19592,3.87203 2.5693,5.35968 0.79141,3.15324 4.85593,6.67319 7.7056,6.67319 1.48904,0 1.85181,-0.49696 1.45908,-1.99879 -0.59343,-2.26927 3.77175,-6.00121 7.01949,-6.00121 2.30803,0 6.26994,3.9702 6.26994,6.28307 0,2.45517 2.89866,0.96889 3.60588,-1.84892 0.50686,-2.01948 1.02656,-2.26202 3.74137,-1.74606 4.03905,0.76763 4.02254,0.74692 2.51643,3.15859 -1.07061,1.71431 -1.00159,2.34345 0.43071,3.92612 0.93808,1.03658 1.70561,2.43214 1.70561,3.10125 0,0.8529 1.06525,1.01673 3.56352,0.54806 l 3.56352,-0.66852 -0.31352,4.36458 c -0.31014,4.31746 -2.69373,6.5027 -4.28483,3.92825 z M 764.75,723.31067 C 762.98284,722.84887 762.24213,720 763.88922,720 c 0.48906,0 1.95156,0.88503 3.25,1.96673 2.35373,1.96086 1.59805,2.38593 -2.38922,1.34394 z m -19.57612,-1.60116 c -0.83769,-1.00935 -0.8249,-1.65849 0.0499,-2.5333 1.94506,-1.94506 3.9469,-1.39086 3.59576,0.99546 -0.38919,2.64492 -2.1207,3.37532 -3.64567,1.53784 z M 778,704.92668 c 0,-3.3012 0.32341,-4.01104 1.70615,-3.74475 1.75737,0.33843 3.29733,4.35355 2.51913,6.56807 -0.24159,0.6875 -1.29111,1.25 -2.33227,1.25 C 778.34549,709 778,708.25659 778,704.92668 Z m -35.33333,-5.59335 C 741.40869,698.07536 742.0001,695 743.5,695 c 0.93333,0 1.5,0.94444 1.5,2.5 0,2.42787 -0.97373,3.19294 -2.33333,1.83333 z M 548.33654,684.0691 c -5.69349,-0.93066 -7.04195,-2.33311 -8.36333,-8.69815 l -1.13668,-5.47537 3.83173,-4.24797 c 5.7544,-6.37949 10.27677,-9.31948 17.02544,-11.06824 7.29532,-1.89041 10.495,-1.99067 12.1063,-0.37937 1.56975,1.56975 1.53965,5.48333 -0.05,6.50031 -1.76715,1.13054 -4.75,7.07928 -4.75,9.473 0,1.10618 -0.9,3.1554 -2,4.55382 -1.1,1.39842 -2,3.17986 -2,3.95876 0,0.77889 -1.54423,2.06138 -3.43162,2.84999 -1.88739,0.7886 -3.71395,1.89064 -4.05902,2.44897 -0.67891,1.0985 -0.94861,1.10167 -7.17282,0.0842 z M 703.46897,593.25 c -0.96858,-1.5125 -3.27338,-4.02277 -5.12177,-5.57838 -4.66677,-3.92754 -5.47681,-5.84473 -6.0326,-14.27777 -0.69104,-10.48514 2.73774,-20.41458 9.93422,-28.76869 3.00344,-3.48657 3.66402,-3.80321 6.59244,-3.16002 l 3.25454,0.71481 -0.664,17.66003 c -0.5269,14.01389 -1.05295,18.56373 -2.5479,22.03714 -1.03614,2.40741 -1.8839,6.56991 -1.8839,9.25 0,5.52179 -0.97793,6.10973 -3.53103,2.12288 z m 78.90823,-94.98535 c 0.63101,-4.60372 3.8226,-9.39818 5.28363,-7.93715 0.39401,0.39401 -0.26849,2.74354 -1.47222,5.22119 C 784.98487,498.02634 784,500.71646 784,501.52675 784,502.33704 783.48883,503 782.86408,503 c -0.77936,0 -0.93219,-1.48644 -0.48688,-4.73535 z M 732,400.57258 c 0,-1.6686 4.64818,-5.57258 6.63486,-5.57258 2.24642,0 1.5478,2.71116 -1.26972,4.92742 C 734.30412,402.33522 732,402.61229 732,400.57258 Z M 764,399 c 0,-0.55 0.45,-1 1,-1 0.55,0 1,0.45 1,1 0,0.55 -0.45,1 -1,1 -0.55,0 -1,-0.45 -1,-1 z m 18,-2 c 0,-1.1 0.45,-2 1,-2 0.55,0 1,0.9 1,2 0,1.1 -0.45,2 -1,2 -0.55,0 -1,-0.9 -1,-2 z m -14.92105,-3.41667 c -0.0434,-1.05416 0.19293,-1.64479 0.52522,-1.3125 0.33229,0.33229 0.36781,1.19479 0.0789,1.91667 -0.31922,0.79773 -0.55618,0.56078 -0.60416,-0.60417 z M 782,391 c 0,-0.55 0.45,-1 1,-1 0.55,0 1,0.45 1,1 0,0.55 -0.45,1 -1,1 -0.55,0 -1,-0.45 -1,-1 z m -20,-22 c 0,-1.65 0.45,-3 1,-3 0.55,0 1,1.35 1,3 0,1.65 -0.45,3 -1,3 -0.55,0 -1,-1.35 -1,-3 z m 20.03518,-1.93426 c -1.53739,-2.87264 -1.27431,-4.04173 1.1078,-4.92293 1.18119,-0.43695 2.63981,-2.2962 3.25,-4.14266 2.01803,-6.10672 3.60702,-4.86905 3.60702,2.80953 0,5.43902 -0.34857,7.1101 -1.58179,7.58333 -2.92526,1.12253 -5.34074,0.62026 -6.38303,-1.32727 z M 789,108.65006 C 789,104.55573 773.61069,77.407997 770.06161,75.241526 768.86746,74.512577 768,72.934261 768,71.490483 c 0,-1.879591 -1.52764,-3.660444 -6.21189,-7.241526 -8.59311,-6.569385 -9.95218,-8.183384 -12.63241,-15.001982 -1.28937,-3.280188 -3.20187,-6.698248 -4.25,-7.595689 C 742.61362,39.688748 742.46977,37.684941 744.5,36 c 2.37535,-1.971367 1.78222,-4.040267 -2.26622,-7.904836 -3.16119,-3.017609 -3.679,-4.077107 -3.22325,-6.595164 l 0.54297,-3 2.97325,3.270439 c 1.63529,1.798742 4.49258,4.723742 6.34954,6.5 8.94944,8.560521 11.52812,11.616533 13.78025,16.331071 2.28098,4.774921 11.29301,13.971117 22.28327,22.73864 L 788.5,70.1803 789.01925,34.84015 c 0.49492,-33.6838669 0.53007,-32.7273206 0.75,20.40985 0.12691,30.6625 0.006,55.75 -0.26925,55.75 -0.275,0 -0.5,-1.05747 -0.5,-2.34994 z M 691.69098,41.309017 c -0.30746,-0.49748 -0.19496,-1.493566 0.25,-2.213525 0.44496,-0.71996 1.06058,-0.901989 1.36804,-0.404509 0.30746,0.49748 0.19496,1.493566 -0.25,2.213525 -0.44496,0.71996 -1.06058,0.901989 -1.36804,0.404509 z m 3.77389,-1.365852 C 694.29889,38.05657 695.93649,34 697.86406,34 c 2.49725,0 5.32968,3.331551 4.55306,5.355382 -0.70864,1.84668 -5.9028,2.285824 -6.95225,0.587783 z"
       id="path351" />
    <path
       id="path349"
       style="fill:#ffff00;stroke:none"
       d="M 741.10547 19.207031 C 740.91985 19.182292 740.72592 19.181879 740.52148 19.208984 C 739.06148 19.308094 738.39407 20.827827 738.02148 22.054688 C 737.36096 23.701604 737.94921 25.684361 739.39258 26.710938 C 740.53865 27.532588 741.88618 28.124124 742.72656 29.314453 C 743.84376 30.75809 744.8549 32.526348 744.73633 34.408203 C 744.55313 34.738926 743.94934 34.79901 743.64258 35.113281 C 741.9545 36.34086 741.62521 38.814673 742.64453 40.572266 C 743.24475 41.885108 744.59288 42.609681 745.23633 43.894531 C 747.27582 47.075278 748.65769 50.546319 750.36719 53.880859 C 751.87854 56.925262 754.22778 59.455911 756.87891 61.546875 C 759.996 64.127641 763.48924 66.290088 766.24609 69.28125 C 766.76316 69.82022 767.08407 70.505164 767.04688 71.257812 C 767.40684 73.600668 768.90079 75.59996 770.63672 77.138672 C 773.45733 80.367781 775.61204 84.108786 777.79102 87.783203 C 779.32102 90.426315 780.79603 93.151402 782.18359 95.841797 C 783.61227 98.556587 784.86471 101.41656 786.80273 103.81836 C 787.37005 104.49475 788.24974 104.85908 789.12305 104.67773 C 789.9937 104.43791 790.63051 103.61294 790.70898 102.70117 C 791.08256 99.092464 791.01579 95.452563 791.07227 91.828125 C 791.08247 84.710801 790.98922 77.59374 790.95117 70.476562 C 788.41616 68.673131 785.90754 66.829148 783.60547 64.730469 C 778.99043 60.756968 774.75426 56.325853 769.8125 52.744141 C 768.41402 51.906248 767.6234 50.388893 766.68555 49.107422 C 764.73826 46.11369 763.25168 42.844577 761.1875 39.921875 C 759.63064 37.568332 757.88298 35.330129 755.78516 33.431641 C 751.86439 29.53011 747.82875 25.735265 744.11719 21.630859 C 743.27365 20.712841 742.40483 19.380204 741.10547 19.207031 z M 722.10742 36.001953 C 721.78627 35.997853 721.46563 36.016314 721.14453 36.021484 C 719.50395 36.162751 717.55444 36.28441 716.44141 37.664062 C 716.13098 38.125938 716.0494 38.692934 715.47656 38.925781 C 714.13283 39.703608 712.31106 40.206429 711.81445 41.871094 C 711.28269 43.599901 712.64445 45.03971 713.33789 46.486328 C 713.6731 47.209509 713.95279 47.958453 714.16602 48.726562 C 713.35559 48.334209 712.3291 48.491599 711.71289 49.164062 C 710.99285 49.817253 711.2109 50.906139 710.60547 51.638672 C 710.17316 52.366265 709.67801 53.054934 709.15625 53.720703 C 709.21585 51.878473 709.02954 49.63336 707.29297 48.568359 C 706.56772 48.098191 705.5801 47.992559 704.83398 47.988281 C 704.39005 46.462735 702.40916 45.876703 701.10938 46.707031 C 699.87499 47.316572 699.44988 48.876339 699.80664 50.138672 C 698.84538 48.29205 697.86235 46.037552 695.67578 45.412109 C 693.37936 44.80979 691.08374 45.81804 688.91602 46.482422 C 686.53912 47.262254 684.23946 48.225321 681.76758 48.728516 C 681.14056 47.272025 679.22613 46.56266 677.85547 47.425781 C 676.04079 48.597996 675.22296 50.730081 674.31641 52.597656 C 673.72899 53.811868 673.13519 55.125012 672.11914 56.027344 C 668.11708 56.662608 664.39639 58.371348 660.48438 59.355469 C 659.95966 59.452979 659.13618 59.811538 659.32812 58.9375 C 658.93529 55.668722 658.56213 52.319076 657.24805 49.269531 C 656.7014 47.916609 655.33844 46.67955 653.78711 47.054688 C 649.89348 47.881484 646.35265 49.790407 642.5957 51.037109 C 639.81324 52.005247 636.89651 51.065854 634.19336 50.294922 C 631.81384 49.654688 629.51316 48.651169 627.05664 48.34375 C 625.38308 48.115612 623.84 49.117597 622.88867 50.427734 C 621.82095 51.939416 619.80936 52.02352 618.14453 52.294922 C 616.87306 52.456625 615.80659 52.534245 614.51562 52.642578 C 612.40715 52.798688 610.04373 52.946845 607.83398 52.787109 C 606.09931 52.653887 603.99048 52.275083 603.18945 50.505859 C 602.64838 49.161693 601.97598 47.715794 600.59375 47.056641 C 598.63118 46.040009 596.32579 46.974261 594.71094 48.230469 C 591.02203 51.029677 588.76948 55.181518 586.48633 59.107422 C 583.74794 64.074565 581.11665 69.137817 579.23438 74.5 C 578.75418 76.043964 578.37819 77.869782 576.80859 78.691406 C 573.74085 80.492609 570.31315 81.591085 567.26367 83.433594 C 566.02396 84.230457 564.38197 84.979824 564.03711 86.556641 C 563.72436 87.936022 564.96886 89.110197 566.24414 89.351562 C 569.28688 90.033486 572.43605 89.958683 575.53711 90.029297 C 577.16604 90.038397 578.79488 90.040365 580.42383 90.046875 C 578.88582 91.81578 577.74499 93.895077 576.94141 96.089844 C 576.13838 97.834675 575.00305 99.626656 573.86328 101.01953 C 572.40413 102.6594 571.16358 104.64667 571.11914 106.9082 C 570.93315 109.94893 571.68836 112.9647 571.50781 116.00195 C 571.22986 117.91396 569.65828 119.24931 568.54883 120.7168 C 566.60494 123.02686 564.50479 125.51272 564.18359 128.64062 C 563.58081 133.55865 564.54456 138.51077 565.82617 143.24609 C 566.46869 145.57023 567.54404 147.82055 567.67969 150.25391 C 567.55752 151.26053 566.77571 152.0311 566.45312 152.97852 C 564.82946 156.40136 563.85984 160.08975 562.16211 163.48047 C 559.14682 169.72091 555.88345 175.85259 552.2168 181.73633 C 551.65404 182.51109 551.22776 183.46011 550.47852 184.05664 C 547.41669 185.18562 544.16508 185.67736 540.98047 186.33984 C 535.52004 187.34281 530.06193 188.39224 524.55664 189.11914 C 522.14666 189.46081 519.65987 189.39757 517.33789 188.61133 C 508.93686 186.06039 499.63227 186.58124 491.56055 190.0293 C 487.58576 191.72117 483.96488 194.30042 481.25977 197.6875 C 479.35818 199.97158 476.77674 201.66796 473.89453 202.41992 C 471.16208 203.20424 468.15988 203.54996 465.45312 203.85352 C 463.38365 204.06128 461.41978 204.22456 459.31445 204.38281 C 456.06589 204.60529 452.94371 204.9527 449.67969 204.85156 C 446.07925 204.79066 443.08057 202.53691 439.71094 201.58203 C 432.10765 199.1752 423.90255 199.80879 416.24805 201.63281 C 412.98144 202.35898 409.78602 203.5162 406.43359 203.78125 C 403.97911 203.87275 401.93153 202.28518 399.87305 201.17578 C 398.25992 200.23488 396.64762 199.29167 395.03516 198.34961 C 394.96596 195.71453 395.1538 193.06152 394.83984 190.43945 C 394.64971 188.74586 393.44433 187.29961 391.85352 186.72266 C 388.28428 185.27724 384.44286 184.71642 380.69531 183.92188 C 374.43765 182.71606 368.13627 181.76198 361.85352 180.69727 C 358.70984 174.32621 355.99628 167.64598 351.6543 161.96094 C 349.22866 158.78447 345.9383 156.08519 341.97852 155.16016 C 337.76929 153.93244 333.84981 151.91049 329.98438 149.87695 C 325.30376 147.53213 319.99458 146.84217 314.8125 146.94922 C 306.54735 147.11424 298.35966 148.40326 290.18359 149.51953 C 285.88003 150.17435 281.52694 150.59755 277.29297 151.63672 C 275.45874 152.07919 273.53864 153.14697 273.00586 155.08984 C 272.45129 156.94888 272.61151 158.98333 271.86133 160.78516 C 270.87993 161.73754 269.4453 162.01355 268.20898 162.51953 C 261.76064 164.82556 255.07862 166.3875 248.38672 167.79883 C 246.85378 168.21944 245.20786 168.30548 243.76367 168.99805 C 241.09076 170.48754 239.4064 173.16006 237.89258 175.72461 C 237.28859 176.70232 236.68552 177.68019 236.08203 178.6582 C 241.60223 183.76395 247.20106 188.77996 252.8125 193.78516 C 254.80244 195.51705 256.23067 197.79037 257.18359 200.23438 C 259.35026 205.67994 261.11733 211.27429 263.07422 216.79688 C 263.13842 217.26375 262.00896 216.86654 261.60547 216.97656 C 260.95567 216.96756 260.15202 216.85196 259.97656 216.09766 C 258.53198 212.46655 257.13598 208.8162 255.70898 205.17773 C 253.57672 207.16573 251.55085 209.27337 249.34375 211.17773 C 248.50796 211.85208 247.40292 211.22372 246.49219 211.05664 C 244.85275 210.52648 242.79465 210.2998 241.86914 208.64062 C 240.37015 206.10146 239.54137 203.22626 238 200.70508 C 236.0208 197.18449 233.4803 194.00066 230.53906 191.23633 L 226.08594 186.7832 C 223.63316 189.19702 220.93144 191.39007 218.87891 194.17773 C 216.46996 197.22184 214.49697 200.5675 212.4375 203.84766 C 209.5583 208.31871 205.91726 212.3688 201.40039 215.23047 C 194.26957 219.95285 185.74335 221.96812 178.58984 226.64648 C 176.06722 228.30685 173.6908 230.69218 173.26758 233.81641 C 173.02869 235.20262 173.22917 236.60783 173.35547 237.99414 C 170.19567 238.14371 167.1088 237.32837 164.03906 236.69922 C 162.55595 236.37325 161.08963 236.02431 159.69531 235.66797 C 153.7613 234.11872 147.85122 232.39166 141.76367 231.53906 C 136.67583 230.83911 131.34463 230.44123 126.37891 232.03711 C 124.35256 232.71276 122.60221 234.01308 120.54297 234.61523 C 117.31626 235.79359 113.82745 235.85351 110.52734 236.72461 C 108.29989 237.85307 106.69265 239.85925 105.08984 241.71484 C 103.08194 244.06999 101.57901 246.93774 99.011719 248.75977 C 97.056833 250.01596 94.643981 250.15736 92.597656 251.22656 C 90.391692 252.1937 88.308906 253.46189 86.527344 255.08789 C 84.560508 256.60536 82.133364 257.34778 79.708984 257.7207 C 76.401386 258.52435 73.217154 259.96691 70.591797 262.15625 C 69.102555 263.27671 67.613239 264.39643 66.123047 265.51562 C 69.29955 267.20864 72.405656 269.03892 75.628906 270.64062 C 79.129687 272.24514 82.845304 273.44328 86.685547 273.85938 C 87.119136 273.97195 87.96115 273.87482 87.558594 274.54688 C 86.99891 276.81903 86.73158 279.15849 86.115234 281.41406 C 85.441306 283.1283 83.648579 283.97042 82.208984 284.94727 C 79.526736 286.66219 76.574461 288.00698 74.175781 290.13086 C 72.36377 291.72626 71.727879 294.2092 71.773438 296.54492 C 71.798577 299.17942 71.869044 301.82988 72.253906 304.43945 C 72.566956 306.57401 73.652679 308.60515 75.417969 309.88281 C 76.911419 311.36779 77.427906 313.61898 77.259766 315.66211 C 76.501039 316.73667 75.168163 317.22227 74.105469 317.94727 C 72.570217 318.92729 70.834135 319.78119 69.742188 321.28516 C 69.268599 321.96913 69.304071 322.88107 69.636719 323.59766 C 70.12487 324.21335 70.79643 324.65155 71.607422 324.62891 C 73.634972 324.47107 75.459613 323.42705 77.277344 322.59375 C 82.15338 320.16405 87.45655 318.73782 92.744141 317.51758 C 96.629031 316.71479 100.57482 315.91977 104.56055 316.03516 C 109.55858 316.3926 114.34303 318.03153 119.00195 319.77734 C 120.55993 320.3392 122.11754 320.90176 123.67578 321.46289 C 126.09307 320.07069 128.50534 318.68499 130.92188 317.29492 C 133.32799 318.35829 135.77754 319.32704 138.14453 320.47656 C 133.98156 321.51393 129.69442 322.06041 125.40234 322.0332 C 123.47687 322.0599 121.30119 322.50874 120.16602 324.22461 C 119.50369 325.1602 119.21042 326.40224 118.11523 326.9707 C 115.8316 328.37133 113.12297 328.76989 110.65234 329.73047 C 106.76039 331.12931 102.79361 332.60049 99.466797 335.11719 C 98.029438 336.20738 96.799439 337.85305 96.972656 339.74805 C 96.882326 341.57738 96.678875 343.84916 94.917969 344.86914 C 93.272087 345.52915 91.882203 346.82975 91.322266 348.53711 C 90.279263 351.66374 90.224022 355.00424 89.945312 358.25977 C 89.511539 365.38546 89.216558 372.52035 88.855469 379.65039 C 93.138112 382.03203 97.437319 384.29901 101.64453 386.75391 C 103.38327 387.84366 105.46943 388.98478 105.97461 391.15039 C 106.64752 393.47666 107.36261 396.04133 106.34375 398.38281 C 105.00611 401.72686 103.02309 404.75902 101.32812 407.92578 C 100.77708 408.91105 100.22525 409.89666 99.675781 410.88281 C 103.59075 418.50059 107.12233 426.38183 112.12695 433.37305 C 115.40673 438.01048 119.66466 441.91935 124.49805 444.89258 C 127.43632 446.78963 130.53779 448.68287 132.62695 451.55859 C 133.9594 453.34062 134.03684 455.80553 133.19727 457.79883 C 130.82734 458.29346 128.31363 457.64195 125.98438 458.39844 C 124.58937 458.86374 123.88824 460.44894 124.22852 461.83594 C 125.26859 465.94462 125.87327 470.14723 126.76562 474.28711 C 127.35269 477.05953 128.93148 479.49198 130.84766 481.53516 C 134.96545 485.91856 139.25921 490.17689 144.04688 493.83203 C 145.28661 494.91006 147.24369 495.27859 147.85156 496.9707 C 148.68114 499.19466 148.34855 501.92057 150.06836 503.75977 C 151.43466 505.201 153.62442 504.97567 155.35547 504.45508 C 157.35635 503.94186 159.24864 503.06977 161.24414 502.55078 C 162.40514 502.47318 163.28316 503.45925 164.14844 504.09375 C 169.02934 508.34759 173.46149 513.08633 178.30859 517.37891 C 180.10027 518.9082 181.79643 520.6046 183.84961 521.78516 C 185.27824 522.19854 186.36905 523.31884 187.55469 524.17383 C 190.52306 526.70871 193.49537 529.24785 196.70312 531.48047 C 203.54245 536.2994 210.80687 540.59409 218.58203 543.72266 C 222.85933 545.37727 227.27191 546.86997 231.88477 547.15039 C 237.74235 547.59267 243.66537 547.14779 249.48047 548.11719 C 250.38879 551.10003 250.24943 554.26299 250.55273 557.33789 C 250.65633 558.82777 250.75968 560.31676 250.86328 561.80664 C 253.76163 558.18651 256.54875 554.47546 259.52344 550.91797 C 261.25801 548.81076 263.64281 547.35054 266.20508 546.46875 C 268.20015 545.74481 270.20711 545.05421 272.20703 544.34375 C 275.10462 545.6697 278.01387 546.97033 280.90039 548.32031 C 281.35967 548.55559 282.13704 548.91561 282.71484 549.2168 C 285.34933 550.62663 288.20114 552.03347 289.95312 554.55273 C 291.29778 556.49854 290.88556 558.93525 291.10156 561.14844 C 291.21633 562.96528 292.175 564.7493 293.83984 565.58203 C 294.62895 566.06004 295.9019 566.29205 295.92383 567.4375 C 296.18499 569.1953 295.62052 571.26483 296.86328 572.73828 C 297.8251 573.83685 299.48659 573.62376 300.62305 572.92578 C 302.96663 571.90415 305.50391 571.41541 307.97852 570.80859 C 311.67817 570.07658 315.34835 569.14014 318.83984 567.69336 C 326.54033 564.56902 333.79642 560.48087 341.17773 556.68945 C 343.64475 555.40076 346.11111 554.11291 348.57812 552.82422 C 353.67404 553.86692 358.728 555.13756 363.86719 555.95312 C 366.84446 556.40592 370.20919 556.60607 372.77539 554.73828 C 375.40653 552.86359 376.64836 549.75724 378.54688 547.25781 C 378.93809 547.0853 379.46172 547.45948 379.88281 547.53516 C 380.69235 547.83686 381.56071 548.06639 382.32227 548.44531 C 382.03589 551.10179 381.26984 553.70074 381.03711 556.35938 C 381.1728 558.01879 382.90886 558.76947 384.26953 559.27539 C 385.30954 559.65029 386.38933 559.89542 387.45508 560.18359 C 387.28844 565.45746 387.20384 570.77225 386.96094 575.98633 C 386.80546 577.67313 386.88222 579.47552 386.11133 581.02539 C 385.31624 581.98864 384.26553 582.71776 383.51172 583.72852 C 380.55477 587.27946 377.93456 591.11881 375.69141 595.1582 C 374.22997 597.75441 373.64197 600.73987 373.62891 603.69727 C 373.56691 606.46489 373.51664 609.23227 373.45898 612 C 376.14849 612.0472 378.84729 611.89953 381.53125 612.08203 C 383.89045 612.32534 386.51649 613.62458 387.11523 616.11133 C 387.56612 618.07754 386.51119 619.93525 386.16406 621.83008 C 386.04857 622.44507 385.75278 623.09497 386.18164 623.6543 C 386.36879 624.45467 387.24583 624.7829 387.98047 624.90625 C 390.32389 624.95045 392.59674 624.23531 394.9082 623.94336 C 396.57669 623.67777 398.2448 623.4044 399.91602 623.15625 C 399.30258 627.86245 398.5322 632.60292 397.55078 637.28125 C 397.09536 638.15841 397.86415 638.02867 398.50977 638 L 410.61523 638 C 411.98216 641.12202 413.34541 644.24565 414.70898 647.36914 C 417.49827 645.20021 420.18121 642.88909 423.06836 640.84961 C 423.74519 643.93319 423.75717 647.17317 424.94727 650.13867 C 425.39731 651.17697 426.5533 651.59869 427.62305 651.49414 C 430.40118 651.2909 433.1554 650.69607 435.80273 649.83789 C 437.3053 649.35437 438.66874 648.04679 438.61328 646.375 C 438.49857 644.75319 438.11046 643.15504 437.96875 641.53125 C 437.80968 640.28039 437.67612 639.01514 437.55273 637.81445 C 437.48353 637.02623 437.39648 636.24338 437.35156 635.56445 C 437.28436 634.57981 437.16503 633.36812 438.11328 632.74219 C 439.91072 631.14091 442.00538 629.77992 444.41016 629.33984 C 447.56458 628.66793 450.83978 629.0014 453.96484 629.67188 C 454.67431 629.83051 455.68134 630.07828 456.49219 630.31641 C 459.65074 631.27944 462.7598 632.39632 465.89453 633.43359 C 467.56165 631.68526 469.07154 629.77828 470.86133 628.15234 C 472.16333 626.93098 474.02064 626.98383 475.68164 626.97461 C 477.45272 626.96201 479.33033 626.27062 480.25781 624.67383 C 481.05143 623.41049 481.28117 621.7558 482.61328 620.88086 C 485.19147 619.03329 488.59072 618.9956 491.60938 619.46289 C 494.17505 619.91022 496.67567 620.79618 498.95898 622.04102 C 499.87477 622.68419 499.73534 623.97665 499.92578 624.96094 C 500.17808 627.18787 500.40199 629.41805 500.64062 631.64648 C 507.09415 633.99068 513.42428 636.73776 520.08984 638.44531 C 521.90362 638.94811 523.86883 639.27586 525.67969 638.57031 C 528.15995 637.69373 530.43201 635.89834 531.5625 633.51758 C 533.43743 635.22399 536.08983 635.57885 538.50586 635.91211 C 542.20622 636.31329 545.94639 636.15765 549.63672 635.73828 C 550.18542 638.4615 550.27593 641.27056 551.02539 643.95898 C 551.81293 647.24632 553.49146 650.50743 556.44531 652.33203 C 557.59416 653.1134 558.86667 653.9942 560.32227 653.88477 C 556.33637 654.90496 552.31826 656.26199 549.0918 658.90625 C 545.40948 661.8884 542.28441 665.47747 538.92383 668.80273 C 538.4994 669.23579 538.07491 669.66858 537.65039 670.10156 C 538.50021 673.29084 539.12507 676.54709 540.17188 679.67969 C 540.83966 681.80102 542.43619 683.61979 544.55078 684.37305 C 546.76332 685.20665 549.09672 685.72206 551.43359 686.05859 C 553.48318 686.3531 555.55425 685.65169 557.14062 684.35547 C 558.26059 683.55889 559.56636 682.95176 560.95703 682.92188 C 562.5608 682.67615 563.98002 681.31542 564.02539 679.65039 C 564.72656 677.63561 566.45454 676.19304 567.18945 674.1875 C 567.78562 672.9335 568.01148 671.55906 568.11914 670.18945 C 568.33728 668.8106 569.20331 667.70715 569.89258 666.54297 C 570.54927 665.33164 570.93458 663.97582 571.04102 662.61328 C 571.48387 661.96907 572.4258 662.11122 573.03516 661.68555 C 574.45031 661.07907 575.27211 659.38841 574.72852 657.91992 C 573.94507 655.78724 572.20534 654.20881 570.875 652.41797 C 570.45683 652.00568 570.1929 651.1308 569.49023 651.57031 C 566.8168 652.24503 564.14083 652.91167 561.46875 653.58984 C 562.73369 652.92809 563.72984 651.75118 564.31836 650.46094 C 565.11344 648.41437 563.95148 646.34233 563.05664 644.54297 C 562.32931 642.88196 561.33952 641.15462 561.51367 639.28125 C 561.90225 637.73111 563.26019 636.6645 564.46094 635.71875 C 566.88479 633.99937 569.6507 632.83117 572.49023 631.99609 C 574.94934 631.06374 577.46847 629.97439 579.3125 628.03906 C 580.64337 626.93095 582.44062 627.03374 584.05859 626.91602 C 585.78087 626.74674 587.69293 626.02405 588.45703 624.35547 C 589.46777 623.76821 590.71262 624.11956 591.78125 623.67578 C 595.30773 622.52226 598.1666 620.02282 600.94336 617.65625 C 602.35106 616.32397 604.29325 615.04651 604.38281 612.91016 C 604.41951 610.78605 603.24524 608.89923 602.63086 606.92188 C 602.24254 605.89576 601.97885 604.69802 602.625 603.71094 C 602.85655 603.26461 603.19592 602.43937 603.32812 603.37305 C 604.49222 605.82192 606.4999 607.75084 608.50586 609.52344 C 609.9416 610.64654 611.51053 611.98999 613.43164 611.99219 C 615.31346 611.77331 616.5355 610.07664 617.54297 608.63867 C 618.2285 607.55349 618.91742 605.97756 620.42188 605.99805 C 622.2924 605.96725 624.46908 605.02018 625.25 603.16016 C 627.33156 602.89821 629.50916 603.82011 631.5332 602.93555 C 632.85144 602.42164 633.52209 601.10719 634.03711 599.88281 C 635.10745 598.59973 636.9579 598.74468 638.4375 598.33789 C 641.08199 597.73082 643.95785 597.02548 645.85938 594.94922 C 646.71155 594.02228 647.03214 592.75739 647.04492 591.52734 C 647.68236 588.90258 649.26691 586.62021 650.87891 584.49805 C 651.9787 583.18641 653.09981 581.7458 654.67969 581.00195 C 656.64104 580.86614 657.90389 579.09925 658.95703 577.63477 C 660.80249 574.9101 662.14476 571.83849 662.81055 568.61328 C 663.04029 567.48371 664.08356 566.87524 665.10156 566.56445 C 667.23726 565.47459 668.66004 563.42582 670.05469 561.54688 C 672.00542 558.68925 673.83978 555.65911 674.77734 552.30273 C 675.00484 551.34917 674.95911 550.34702 675.41992 549.45117 C 676.45494 546.54028 678.43881 543.95783 678.86523 540.8457 C 679.11668 539.29325 678.15911 537.61231 676.59961 537.2207 C 678.37483 535.38778 679.06097 532.74757 678.88867 530.24805 C 679.14162 527.52339 680.60895 525.10918 681.95312 522.79102 C 684.40541 518.71388 686.75748 514.27759 686.89258 509.41406 C 686.97458 508.02566 686.63912 506.6693 686.41797 505.31445 C 686.63881 504.10679 687.71161 503.2857 688.48242 502.40039 C 691.43076 499.48229 694.50961 496.70429 697.54102 493.82617 C 696.44779 491.00416 695.00376 488.2974 694.28711 485.34375 C 693.83118 483.62477 694.13041 481.72666 695.23438 480.31055 C 696.3786 478.72083 697.15493 476.40744 695.93945 474.64062 C 695.34815 473.68845 694.18406 473.2141 693.17773 473.02148 C 693.53215 470.91563 692.23925 468.92154 690.52734 467.80664 C 689.0205 466.86269 687.4742 465.70618 685.63867 465.5957 C 683.37912 465.5877 681.66596 467.30319 679.83398 468.38477 C 678.48199 469.16036 676.97153 470.14652 675.3457 469.85156 C 677.83143 466.76475 680.92543 464.24859 683.73438 461.47461 C 685.95931 459.25043 688.38261 457.05804 689.73438 454.16211 C 690.60321 452.34834 690.28605 450.03828 688.82227 448.625 C 686.60662 446.43127 683.5333 445.49308 680.72656 444.30664 C 680.00359 444.06741 679.78434 443.9211 680.68164 443.96484 C 682.53447 443.83559 684.65684 443.87276 686.12305 442.55859 C 687.20017 441.51241 687.00131 439.69603 685.93164 438.71875 C 684.40694 437.23184 682.27971 436.60842 680.68555 435.20312 C 679.29372 434.15978 678.26702 432.65763 676.63672 431.93555 C 675.48715 431.28942 674.1817 431.00697 672.87695 430.94922 C 671.39635 430.39 670.92911 428.69119 670.07812 427.50391 C 666.82965 422.39612 663.46626 417.355 659.89258 412.46875 C 658.30697 410.30987 656.2885 408.38382 653.74023 407.43359 C 650.50182 406.0953 647.00937 405.39668 643.88672 403.7793 C 643.13345 403.41446 642.46601 402.68985 642.6582 401.79102 C 643.01399 399.16083 644.24696 396.75582 645.2207 394.31445 C 646.75957 390.73184 648.31052 387.08639 648.95117 383.21875 C 648.91687 382.69325 648.97447 382.38317 649.55859 382.60352 C 651.70551 382.77846 653.57172 381.16823 654.33008 379.25781 C 655.31663 377.09126 655.25269 374.67655 655.5 372.36133 C 655.4103 371.76962 656.08805 371.92115 656.42969 371.69727 C 658.80164 370.63629 660.56787 368.67839 662.44922 366.95703 C 663.93651 365.71088 665.58581 364.52389 667.5332 364.16602 C 669.93015 363.53214 672.15346 361.74032 672.66992 359.22656 C 673.104 357.07048 672.97625 354.49328 671.35742 352.83203 C 669.62117 351.12074 666.93699 351.28521 664.75391 351.85156 C 662.1127 352.49623 659.6468 353.89963 656.86914 353.92773 C 655.056 354.03326 653.23961 353.50719 651.77734 352.42969 C 649.20962 351.04511 645.77309 351.24464 643.4668 353.06641 C 642.59142 353.77836 642.07508 354.85208 641.9668 355.95898 C 640.83487 358.23201 638.79678 359.91708 637.79688 362.27344 C 637.32345 363.20795 637.02712 364.23215 636.96289 365.27344 C 636.19912 366.34845 634.6661 366.45584 633.45312 366.38672 C 632.06138 366.1868 630.62688 365.65482 629.61328 364.65625 C 628.65609 363.31752 629.27559 361.55296 628.71289 360.07422 C 628.00001 357.58783 626.41104 355.1082 623.93945 354.0957 C 622.78348 353.63907 621.49163 353.90344 620.47461 354.56641 C 618.17874 355.33572 615.61782 354.99715 613.38086 354.17773 C 612.13493 353.65659 610.8284 352.81758 610.32812 351.50586 C 609.87461 349.6339 609.99166 347.66966 610.07422 345.75977 C 610.23889 344.51056 610.30801 343.08358 611.17188 342.09375 C 612.01872 342.43103 612.81466 343.01915 613.7793 342.98633 C 616.16048 343.02883 618.15419 341.48059 620.06055 340.25 C 622.45454 338.63048 624.98458 336.64583 625.64648 333.67188 C 626.03938 332.32295 625.90438 330.9034 626.08203 329.53125 C 626.82925 327.40858 628.61347 325.88673 630.15039 324.32617 C 633.40098 321.2572 636.07413 317.49322 637.42578 313.20117 C 638.07548 311.27491 639.27643 309.52167 641.01953 308.43359 C 642.24776 307.59343 643.60433 306.81705 644.81641 306.15625 C 645.74588 305.72504 646.70938 305.05082 647.76953 305.14648 C 648.87363 305.66676 648.8154 307.08497 648.94141 308.12109 C 649.07748 311.23847 648.61638 314.45908 647.25195 317.28711 C 646.32946 319.16292 645.04022 321.07196 645.16797 323.24805 C 645.29696 325.13303 647.02077 326.31204 648.61523 326.97461 C 649.76255 327.36261 650.32636 328.75946 649.75586 329.83008 C 649.15165 331.1601 647.71536 331.83161 647.01562 333.10742 C 646.02423 334.5258 645.48696 336.71516 646.80664 338.10352 C 647.97866 339.37244 650.01029 339.15954 651.32031 338.2207 C 653.81967 336.517 655.86654 334.15067 657.32031 331.50586 C 657.76283 330.71334 657.94773 329.81958 658.0625 328.93555 C 659.1285 326.6356 660.90068 324.7544 662.57031 322.87891 C 665.60042 319.57277 669.01457 316.64779 672.56641 313.91992 C 673.30561 313.32978 674.00057 312.67494 674.64258 311.97266 C 679.12367 312.42084 683.6048 312.86869 688.08594 313.31641 C 689.66211 316.56966 691.23828 319.82292 692.81445 323.07617 C 691.34308 326.7552 689.87198 330.43434 688.40039 334.11328 C 692.97062 335.94389 697.5424 337.77063 702.11328 339.59961 C 702.80592 337.87224 703.49645 336.14402 704.1875 334.41602 C 707.45356 335.37236 710.97185 335.90037 713.81836 337.88867 C 715.4633 339.07701 716.60616 340.82812 717.37891 342.67969 C 715.3553 343.47584 713.89541 345.55966 714.07422 347.76172 C 714.32065 350.94357 716.43371 353.61603 718.69922 355.70312 C 719.91382 356.78618 721.26564 357.73843 722.76367 358.38672 C 722.06589 364.12357 721.77262 369.96898 722.5957 375.70898 C 723.10016 378.71345 723.89953 381.98946 726.32812 384.04297 C 728.21644 385.66221 731.12168 385.77191 733.17578 384.39648 C 734.88062 383.36129 736.24306 381.88436 737.68359 380.52734 C 738.2886 379.98165 739.09262 379.19218 739.93164 378.76953 C 740.5912 378.56112 740.97799 378.15024 740.95312 377.43555 C 741.34857 374.45423 743.58405 372.18693 745.90234 370.48828 C 749.89055 367.52551 754.54921 365.15962 757.4043 360.94141 C 759.73247 357.62377 760.33136 353.38079 759.75 349.43359 C 758.7841 342.08642 754.96272 335.45892 750.43164 329.73047 C 744.51149 322.3161 737.27644 316.06914 729.73438 310.36328 C 726.69517 308.20702 722.85213 307.66552 719.75977 305.61914 C 717.36587 304.04897 716.52656 300.85327 717.29297 298.18164 C 718.33446 294.37724 720.81202 291.19878 723.07812 288.04688 C 726.11077 283.85724 729.516 279.7206 731.01758 274.68164 C 731.88967 271.85346 731.66328 268.78095 730.61914 266.03125 C 729.76585 263.43133 728.24266 260.90542 728.42188 258.08398 C 728.83976 255.27234 730.2336 252.58188 730.41602 249.74414 C 730.67596 249.7011 730.93316 249.63291 731.17578 249.50781 C 732.98554 248.65968 733.49558 246.34111 733 244.54492 C 732.86071 243.77226 732.69313 242.99237 732.72656 242.20312 C 734.12455 241.79158 735.74336 241.45481 736.56836 240.11328 C 737.75417 238.22979 737.58781 235.88788 737.77539 233.75391 C 737.85429 232.28377 737.92027 230.81246 737.99414 229.3418 C 739.03622 229.3338 740.08724 229.21711 741.12305 229.375 C 741.75356 231.16585 743.8062 231.74436 745.51562 231.88477 C 748.74743 232.11967 752.07212 231.70018 755.08203 230.47266 C 757.35719 229.6021 758.65411 227.42437 760.00195 225.53711 C 762.96789 220.99835 765.62456 216.23031 767.66016 211.19922 C 768.16949 209.82411 768.70815 208.32709 768.28906 206.85938 C 768.21916 205.76005 769.27499 205.09229 769.46094 204.05664 C 770.45158 200.82438 769.16657 197.498 769.48633 194.2168 C 769.606 191.39629 770.89704 188.83246 771.47656 186.10547 C 773.37372 178.11698 774.08569 169.89931 774.47461 161.71484 C 774.78778 155.03968 774.63135 148.35696 774.41602 141.68164 C 774.32982 137.1884 774.31399 132.65865 774.54688 128.23047 C 774.64517 125.17893 775.16829 122.20967 775.54883 119.19727 C 775.69301 117.11856 776.06732 114.86211 775.10547 112.91992 C 773.68294 110.89008 773.5593 108.31617 772.54492 106.10156 C 770.37199 100.74868 767.82081 95.546992 764.97266 90.521484 C 764.13159 89.139786 763.3446 87.63413 761.9668 86.710938 C 760.3248 84.83702 759.55262 82.392695 758.70312 80.09375 C 756.36626 73.353181 755.09756 66.307353 753.01953 59.492188 C 752.36573 57.543709 751.57699 55.218131 749.45898 54.449219 C 748.64497 54.21013 747.70303 54.125466 747.18359 53.347656 C 746.60999 52.357382 746.21603 51.248622 745.48633 50.341797 C 744.95298 49.43352 744.02815 48.853875 743.4707 47.980469 C 742.72136 46.742739 743.21873 45.197696 742.49805 43.945312 C 741.39438 41.660984 738.7374 40.908324 736.45703 40.382812 C 733.73662 39.717069 730.89013 39.673456 728.21094 38.839844 C 727.68308 38.744654 727.84664 38.008168 727.46094 37.703125 C 726.23484 36.06494 723.96536 36.046961 722.10742 36.001953 z " />
    <text
       xml:space="preserve"
       style="font-size:80px;line-height:1.25;font-family:sans-serif;stroke-width:0.5"
       x="271.55618"
       y="384.48697"
       id="text363"><tspan
         sodipodi:role="line"
         id="tspan361"
         x="271.55618"
         y="384.48697"
         style="font-style:normal;font-variant:normal;font-weight:normal;font-stretch:normal;font-family:DFPBangBangW5-B5;-inkscape-font-specification:DFPBangBangW5-B5;fill:#000000;fill-opacity:1;stroke:#ffffff;stroke-width:0.5;stroke-opacity:1"></tspan></text>
    <text
       xml:space="preserve"
       style="font-size:80px;line-height:1.25;font-family:sans-serif;fill:#ffffff;stroke-width:0.5;"
       x="219.63696"
       y="96.325676"
       id="text363-4"><tspan
         sodipodi:role="line"
         id="tspan361-7"
         x="219.63696"
         y="96.325676"
         style="font-style:normal;font-variant:normal;font-weight:normal;font-stretch:normal;font-family:DFPBangBangW5-B5;-inkscape-font-specification:DFPBangBangW5-B5;fill:#ffffff;stroke:#000000;stroke-width:0.5;stroke-opacity:1;"></tspan></text>
    <text
       xml:space="preserve"
       style="font-size:80px;line-height:1.25;font-family:sans-serif;fill:#ffffff;stroke-width:0.5;"
       x="16.398661"
       y="508.2962"
       id="text363-4-9"><tspan
         sodipodi:role="line"
         id="tspan361-7-1"
         x="16.398661"
         y="508.2962"
         style="font-style:normal;font-variant:normal;font-weight:normal;font-stretch:normal;font-family:DFPBangBangW5-B5;-inkscape-font-specification:DFPBangBangW5-B5;fill:#ffffff;stroke:#000000;stroke-width:0.5;stroke-opacity:1;"></tspan><tspan
         sodipodi:role="line"
         x="16.398661"
         y="609.37225"
         style="font-style:normal;font-variant:normal;font-weight:normal;font-stretch:normal;font-family:DFPBangBangW5-B5;-inkscape-font-specification:DFPBangBangW5-B5;fill:#ffffff;stroke:#000000;stroke-width:0.5;stroke-opacity:1;"
         id="tspan401"></tspan></text>
    <text
       xml:space="preserve"
       style="font-size:26.6667px;line-height:1.25;font-family:sans-serif;stroke-width:0.5;"
       x="691.48444"
       y="557.96783"
       id="text405"><tspan
         sodipodi:role="line"
         id="tspan403"
         x="691.48444"
         y="557.96783"
         style="font-style:normal;font-variant:normal;font-weight:normal;font-stretch:normal;font-size:26.6667px;font-family:DFPBangBangW5-B5;-inkscape-font-specification:DFPBangBangW5-B5;fill:#ffffff;fill-opacity:1;stroke:#000000;stroke-width:0.5;"></tspan><tspan
         sodipodi:role="line"
         x="691.48444"
         y="591.65991"
         style="font-style:normal;font-variant:normal;font-weight:normal;font-stretch:normal;font-size:26.6667px;font-family:DFPBangBangW5-B5;-inkscape-font-specification:DFPBangBangW5-B5;fill:#ffffff;fill-opacity:1;stroke:#000000;stroke-width:0.5;"
         id="tspan407"></tspan></text>
    <text
       xml:space="preserve"
       style="font-size:26.6667px;line-height:1.25;font-family:sans-serif;stroke-width:0.5"
       x="713.0155"
       y="666.69714"
       id="text405-7"><tspan
         sodipodi:role="line"
         x="713.0155"
         y="666.69714"
         style="font-style:normal;font-variant:normal;font-weight:normal;font-stretch:normal;font-size:26.6667px;font-family:DFPBangBangW5-B5;-inkscape-font-specification:DFPBangBangW5-B5;fill:#ffffff;fill-opacity:1;stroke:#000000;stroke-width:0.5"
         id="tspan407-7"></tspan><tspan
         sodipodi:role="line"
         x="713.0155"
         y="700.38922"
         style="font-style:normal;font-variant:normal;font-weight:normal;font-stretch:normal;font-size:26.6667px;font-family:DFPBangBangW5-B5;-inkscape-font-specification:DFPBangBangW5-B5;fill:#ffffff;fill-opacity:1;stroke:#000000;stroke-width:0.5"
         id="tspan432"></tspan></text>
    <path
       id="path443"
       style="fill:#ff0000"
       d="m 678.88791,530.24779 c 0.25295,-2.72466 1.72193,-5.13894 3.06611,-7.4571 2.45229,-4.07714 4.80419,-8.51389 4.93929,-13.37742 0.082,-1.3884 -0.25441,-2.74398 -0.47556,-4.09883 0.22084,-1.20766 1.29305,-2.02936 2.06386,-2.91467 2.94834,-2.9181 6.02778,-5.69549 9.05919,-8.57361 -1.09323,-2.82201 -2.53641,-5.52964 -3.25306,-8.48329 -0.45593,-1.71898 -0.15754,-3.61622 0.94642,-5.03233 1.14423,-1.58972 1.92055,-3.90312 0.70507,-5.66993 -0.5913,-0.95217 -1.75539,-1.42652 -2.76172,-1.61914 0.35442,-2.10585 -0.93911,-4.099 -2.65102,-5.2139 -1.50684,-0.94395 -3.05287,-2.10079 -4.8884,-2.21127 -2.25955,-0.008 -3.97185,1.7061 -5.80383,2.78768 -1.35199,0.77559 -2.86295,1.76253 -4.48878,1.46757 2.48573,-3.08681 5.57914,-5.60241 8.38809,-8.37639 2.22494,-2.22418 4.64882,-4.41713 6.00059,-7.31306 0.86884,-1.81377 0.55112,-4.12359 -0.91266,-5.53687 -2.21565,-2.19373 -5.28861,-3.13161 -8.09535,-4.31805 -0.72297,-0.23923 -0.9424,-0.38537 -0.0451,-0.34163 1.85283,-0.12925 3.97555,-0.0928 5.44176,-1.40697 1.07712,-1.04618 0.87826,-2.86256 -0.19141,-3.83984 -1.5247,-1.48691 -3.65137,-2.11029 -5.24553,-3.51559 -1.39183,-1.04335 -2.41881,-2.54626 -4.04911,-3.26834 -1.14957,-0.64613 -2.4553,-0.92785 -3.76005,-0.9856 -1.4806,-0.55922 -1.9485,-2.25789 -2.79948,-3.44517 -3.24848,-5.10779 -6.61121,-10.14905 -10.18489,-15.0353 -1.58561,-2.15888 -3.60398,-4.08559 -6.15225,-5.03582 -3.23841,-1.33829 -6.73096,-2.03625 -9.85361,-3.65363 -0.75327,-0.36484 -22.02968,7.1212 -21.83749,6.22237 -81.50401,-3.30875 -70.04793,3.64608 -112.88073,1.97609 -36.95531,-1.44082 -57.99206,82.92792 -58.0822,102.13042 -0.0577,12.29884 61.86667,9.33105 65.41419,10.31699 134.11062,-6.68122 137.39888,19.40946 162.38766,5.82263 z"
       sodipodi:nodetypes="cccccccccccccccccccccccccccccsscc" />
    <text
       xml:space="preserve"
       style="font-size:66.6667px;line-height:1.25;font-family:sans-serif;stroke-width:0.5"
       x="475.52643"
       y="492.56268"
       id="text363-9"><tspan
         sodipodi:role="line"
         id="tspan361-6"
         x="475.52643"
         y="492.56268"
         style="font-style:normal;font-variant:normal;font-weight:normal;font-stretch:normal;font-size:66.6667px;font-family:DFPBangBangW5-B5;-inkscape-font-specification:DFPBangBangW5-B5;fill:#ffffff;fill-opacity:1;stroke:#000000;stroke-width:0.5;stroke-opacity:1"></tspan></text>
  </g>
</svg>
