<?xml version="1.0" encoding="UTF-8" standalone="no"?>
<svg
   xmlns:dc="http://purl.org/dc/elements/1.1/"
   xmlns:cc="http://creativecommons.org/ns#"
   xmlns:rdf="http://www.w3.org/1999/02/22-rdf-syntax-ns#"
   xmlns:svg="http://www.w3.org/2000/svg"
   xmlns="http://www.w3.org/2000/svg"
   xmlns:sodipodi="http://sodipodi.sourceforge.net/DTD/sodipodi-0.dtd"
   xmlns:inkscape="http://www.inkscape.org/namespaces/inkscape"
   version="1.1"
   id="svg289"
   width="791"
   height="769"
   viewBox="0 0 791 769"
   sodipodi:docname="smet1158-2.svg"
   inkscape:version="1.0.1 (3bc2e813f5, 2020-09-07)">
  <metadata
     id="metadata295">
    <rdf:RDF>
      <cc:Work
         rdf:about="">
        <dc:format>image/svg+xml</dc:format>
        <dc:type
           rdf:resource="http://purl.org/dc/dcmitype/StillImage" />
        <dc:title />
      </cc:Work>
    </rdf:RDF>
  </metadata>
  <defs
     id="defs293" />
  <sodipodi:namedview
     pagecolor="#ffffff"
     bordercolor="#666666"
     borderopacity="1"
     objecttolerance="10"
     gridtolerance="10"
     guidetolerance="10"
     inkscape:pageopacity="0"
     inkscape:pageshadow="2"
     inkscape:window-width="1920"
     inkscape:window-height="1001"
     id="namedview291"
     showgrid="false"
     inkscape:zoom="0.73928979"
     inkscape:cx="-115.81974"
     inkscape:cy="360.95775"
     inkscape:window-x="-9"
     inkscape:window-y="-9"
     inkscape:window-maximized="1"
     inkscape:current-layer="g297"
     inkscape:document-rotation="0" />
  <g
     inkscape:groupmode="layer"
     inkscape:label="Image"
     id="g297">
    <rect
       style="fill:#00ffff;fill-opacity:1;stroke:none;stroke-width:0.5;stroke-opacity:1"
       id="rect463"
       width="790"
       height="768"
       x="0"
       y="0"
       inkscape:export-xdpi="96"
       inkscape:export-ydpi="96" />
    <path
       style="fill:#008000"
       d="m 15.75,767.25179 c 8.9375,-0.16573 16.25,-0.53311 16.25,-0.8164 0,-0.28329 -0.93042,-2.33884 -2.0676,-4.5679 -1.224507,-2.40023 -3.071988,-10.23345 -4.530758,-19.21016 -1.858373,-11.43571 -3.192204,-16.60363 -5.4324,-21.04779 C 18.336159,718.36978 17,714.19283 17,712.32742 c 0,-1.86541 -0.697452,-5.0609 -1.549894,-7.10108 -2.904698,-6.95192 -3.40759,-11.99818 -4.022383,-40.36262 L 10.812946,636.5 l 2.593527,-4.80291 c 3.001694,-5.5588 3.207036,-7.83112 1.010599,-11.18331 C 12.804314,618.0524 13.250817,614 15.134775,614 c 0.591571,0 0.695087,-0.91897 0.253449,-2.25 -0.410604,-1.2375 -0.778428,-4.01088 -0.817388,-6.16307 C 14.49868,601.60096 12,599.00564 12,602.91667 12,604.0625 11.55,605 11,605 c -0.55,0 -1,1.95929 -1,4.35398 C 10,614.55773 6.5680219,619 2.5477489,619 H 0 V 309.5 0 h 343.80146 343.80145 l -0.11562,13.25 c -0.0879,10.072528 -0.53824,14.329142 -1.87796,17.75 -0.96929,2.475 -2.17893,6.490689 -2.6881,8.923753 -0.50916,2.433065 -1.61108,5.181042 -2.44872,6.106618 -1.29261,1.428328 -1.31324,1.856918 -0.13639,2.833621 1.06792,0.886298 2.87007,0.59237 7.84182,-1.278989 7.39178,-2.782261 7.7456,-2.670854 10.84558,3.414997 1.26071,2.475 2.47534,3.962447 2.69919,3.305439 0.22385,-0.657009 -0.0657,-2.077722 -0.64334,-3.15714 -0.82096,-1.53397 -0.624,-2.474236 0.90187,-4.305439 1.92964,-2.315763 1.95261,-2.318186 1.98549,-0.209491 0.0199,1.274874 0.8381,2.343835 2.03327,2.65638 1.48725,0.388924 2.00853,1.380236 2.03327,3.866631 l 0.0333,3.34362 1.96673,-2.360784 c 1.0817,-1.298431 1.96673,-3.435931 1.96673,-4.75 0,-2.724202 1.93897,-3.309939 2.116,-0.639216 0.10547,1.591124 0.15648,1.596508 0.56191,0.0593 0.24524,-0.929888 -0.35993,-2.920562 -1.34484,-4.423722 -1.42871,-2.18049 -1.51704,-2.82425 -0.43691,-3.184295 0.74461,-0.248204 2.19759,-1.295029 3.22884,-2.326279 2.26965,-2.26965 9.37345,-2.583202 10.57531,-0.46678 0.43983,0.774522 3.44892,1.895656 6.68688,2.491409 6.72123,1.236645 8.95899,2.66859 8.27253,5.293603 -0.29525,1.129038 0.24956,2.223033 1.41867,2.848721 1.0439,0.558677 2.17709,2.127787 2.51821,3.486912 C 745.96386,53.992133 746.93837,55 747.98596,55 c 2.72804,0 3.50557,1.687662 5.9893,13 2.4978,11.37643 6.18075,20 8.54159,20 0.81573,0 1.48315,0.747964 1.48315,1.662142 0,0.914179 1.07013,3.501679 2.37807,5.75 6.50379,11.179918 7.22122,15.695948 7.08333,44.587858 -0.12448,26.08042 -1.95133,46.24436 -4.65116,51.33719 -0.54097,1.02047 -0.67175,4.03433 -0.29418,6.77957 0.45576,3.31381 0.28111,5.42271 -0.53003,6.40007 -0.66538,0.80174 -0.92718,2.19414 -0.58179,3.09423 0.70085,1.82637 -7.09427,16.22024 -11.12961,20.5511 -2.21801,2.38044 -3.07567,2.62584 -8.10458,2.31895 -3.09325,-0.18876 -5.78443,-0.82424 -5.9804,-1.41216 C 741.99368,228.48103 740.46286,228 738.78784,228 h -3.0455 l 0.6754,5.09142 c 0.73062,5.50772 -0.32501,7.90858 -3.47731,7.90858 -1.52105,0 -1.72127,0.57567 -1.23736,3.55765 0.45697,2.816 0.16845,3.84404 -1.38405,4.93145 -3.21666,2.25304 -4.74504,8.95056 -2.89074,12.66759 2.46713,4.94549 3.08343,12.17374 1.17314,13.75914 -0.88078,0.73098 -1.60142,1.97283 -1.60142,2.75967 0,0.78683 -1.125,3.08619 -2.5,5.10969 -1.375,2.02349 -2.5,4.17118 -2.5,4.77263 0,0.60145 -1.16632,2.18449 -2.59182,3.51787 -3.86048,3.61097 -4.58682,5.55024 -3.86977,10.33191 0.63397,4.22756 0.7852,4.37581 6.30557,6.18122 3.30366,1.08045 7.55863,3.52616 10.23068,5.88048 2.51606,2.21689 7.28656,6.36076 10.60111,9.2086 4.91226,4.2206 6.45557,6.32535 8.34745,11.38419 1.27655,3.41345 3.36855,7.33661 4.64889,8.71812 1.93284,2.08557 2.32789,3.59748 2.32789,8.90923 0,6.38948 -0.007,6.40405 -5.31977,11.75984 -3.45407,3.48178 -6.77908,5.79966 -9.48077,6.60911 -3.62827,1.08705 -4.08697,1.54164 -3.58274,3.55062 0.47333,1.88591 0.0891,2.42672 -2.11766,2.98058 -1.7187,0.43137 -3.04551,1.6795 -3.66038,3.44334 -0.92944,2.66618 -4.64416,4.66205 -5.92669,3.18432 -0.34238,-0.39449 -1.67641,-3.77047 -2.96451,-7.50219 -1.98181,-5.74142 -2.17922,-7.39485 -1.28353,-10.75056 C 725.05886,360.73845 724.31633,357 721.88342,357 720.64946,357 720,356.29091 720,354.94363 c 0,-1.131 -1.41168,-3.34574 -3.13706,-4.92163 -3.35245,-3.06199 -3.38243,-6.022 -0.061,-6.022 2.81245,0 3.25841,-0.98261 1.76055,-3.87914 -2.18414,-4.22366 -4.72225,-5.81495 -10.26197,-6.43381 -4.55861,-0.50926 -5.2757,-0.34064 -5.81801,1.36803 -0.63298,1.99433 -4.67321,1.88699 -6.93252,-0.18419 C 695.0275,334.3919 693.79,334 692.8,334 c -2.47451,0 -2.4005,-4.96687 0.12179,-8.17344 1.89571,-2.41001 1.89571,-2.45944 0,-3.64333 C 691.57373,321.34135 691,319.84849 691,317.18266 c 0,-7.08374 -2.14525,-8.17809 -12.60649,-6.4309 C 671.10774,311.96859 657,323.99913 657,328.99532 c 0,2.32956 -6.68095,9.27746 -8.3778,8.71255 -1.74277,-0.5802 -2.00307,-3.95497 -0.39658,-5.14177 2.56227,-1.8929 3.05257,-6.26009 0.76984,-6.85704 -3.09098,-0.80831 -3.46288,-3.48297 -1.13298,-8.14815 2.43538,-4.87637 2.81316,-11.75529 0.74008,-13.47579 -1.71446,-1.42288 -9.92535,3.14515 -11.45475,6.37272 -0.53223,1.12319 -1.91272,4.10603 -3.06775,6.62853 -1.15502,2.5225 -3.25894,5.20659 -4.67537,5.96464 -3.10734,1.663 -5.40469,5.80498 -5.40469,9.74434 0,2.80863 -2.57592,6.20465 -4.7063,6.20465 -0.57684,0 -1.6412,0.71379 -2.36524,1.5862 -0.8813,1.0619 -2.23743,1.40201 -4.10275,1.02894 -2.08606,-0.41721 -3.04259,-0.0784 -3.80601,1.34806 -4.09472,7.65104 4.445,16.06957 12.12923,11.9571 2.80039,-1.49873 5.70025,1.28432 6.49102,6.22953 0.75536,4.72374 2.30255,6.0774 6.47881,5.6684 2.65213,-0.25974 3.39572,-0.86945 4.04539,-3.31707 0.43779,-1.64936 1.46226,-3.48604 2.2766,-4.0815 0.81434,-0.59546 1.9324,-2.27091 2.48457,-3.72323 1.33638,-3.51496 5.11108,-4.38157 9.66737,-2.21947 3.21467,1.52546 4.05047,1.5523 8.24237,0.26465 7.65597,-2.35172 10.02611,-2.14294 10.80279,0.95161 0.88915,3.54265 -1.50444,7.7127 -4.67127,8.13816 -1.35662,0.18225 -4.04158,1.81523 -5.96658,3.62883 -1.925,1.8136 -4.12716,3.48604 -4.89369,3.71652 -0.76653,0.23048 -1.51652,1.52251 -1.66665,2.87117 -0.5105,4.58587 -2.33134,7.9521 -4.30141,7.9521 -1.30026,0 -2.06695,0.87912 -2.39831,2.75 -0.26787,1.5125 -1.99036,6.03436 -3.82774,10.04857 -4.0947,8.94587 -3.7416,9.75143 5.65924,12.91115 6.70762,2.25449 7.09941,2.57341 12.28618,10.00128 2.9467,4.21988 6.07033,9.16708 6.94141,10.99376 1.179,2.47239 2.5572,3.58335 5.39238,4.34678 2.09472,0.56405 3.80859,1.46548 3.80859,2.00318 0,0.5377 1.575,1.7287 3.5,2.64667 5.34981,2.55115 4.94216,6.07927 -0.75,6.49111 l -4.25,0.3075 5,1.9222 c 2.75,1.0572 5.5625,2.3498 6.25,2.87244 3.50891,2.66747 -0.35867,9.17813 -9.96824,16.78048 -4.11786,3.25773 -4.52108,3.89634 -3.1688,5.01863 1.26615,1.05081 1.94597,1.03591 3.71824,-0.0815 7.25074,-4.57155 7.07999,-4.53928 11.04685,-2.08763 2.78655,1.72218 3.54376,2.74635 3.08926,4.17837 -0.41638,1.31189 -0.11864,1.897 0.9653,1.897 1.81546,0 2.19817,4.49212 0.47352,5.55802 -1.05254,0.6505 -0.86794,3.83353 0.64802,11.1735 0.60054,2.90766 0.20148,3.68437 -3.98175,7.75 -2.55704,2.48517 -5.13699,4.51848 -5.73323,4.51848 -0.70553,0 -0.64781,0.52565 0.16533,1.50542 1.95637,2.35729 0.37354,9.1244 -3.99904,17.09715 -2.58336,4.71037 -3.7033,7.83691 -3.32517,9.28288 0.34499,1.3192 -0.0888,2.90842 -1.09823,4.02388 -1.48137,1.63689 -1.49541,1.90994 -0.12523,2.43573 2.14522,0.8232 1.92687,4.35169 -0.45683,7.38207 -1.1,1.39842 -2,3.44882 -2,4.55643 0,4.13792 -6.18885,14.43607 -9.67453,16.09828 C 662.09533,566.44531 661,567.66922 661,569.09767 661,571.85041 656.98794,579 655.44322,579 653.57439,579 646,587.73956 646,589.89587 c 0,3.85112 -1.2483,4.94925 -7.57184,6.66095 -5.12998,1.38862 -6.42816,2.13643 -6.42816,3.70289 0,1.69813 -0.46762,1.87515 -3.46708,1.31244 -2.81436,-0.52797 -3.70263,-0.27326 -4.71824,1.35299 -0.88524,1.41749 -1.91848,1.83593 -3.53292,1.43073 C 619.02679,604.04089 618,604.22128 618,604.75673 c 0,0.53546 -0.93175,2.15808 -2.07055,3.60584 -1.77322,2.25428 -2.38353,2.4715 -4.25,1.51267 C 607.99148,607.98068 604,603.72655 604,601.69046 c 0,-1.65314 -0.23115,-1.74351 -1.58516,-0.61979 -1.12245,0.93155 -1.40049,2.20787 -0.95254,4.37245 1.89901,9.17635 1.88777,9.28862 -1.11317,11.11223 -1.56702,0.95224 -4.06841,2.56685 -5.55864,3.588 -1.49023,1.02116 -3.64185,1.85665 -4.78138,1.85665 -1.13953,0 -2.3309,0.675 -2.64748,1.5 -0.3493,0.91025 -1.86149,1.5 -3.84617,1.5 -1.79882,0 -3.8554,0.70467 -4.57018,1.56594 C 577.22285,628.64133 572.5707,631 570.1997,631 c -2.73146,0 -10.20371,5.69447 -10.17774,7.75627 0.0121,0.95905 0.88694,3.64922 1.94414,5.97816 1.71738,3.78327 1.7607,4.39591 0.40661,5.75 C 557.99709,654.86005 551,647.25549 551,638.12437 v -3.63138 l -9.92547,-0.23762 c -9.49417,-0.2273 -10.16172,-0.10193 -15.36207,2.88499 -2.99012,1.71744 -6.25227,4.52595 -7.24921,6.24113 -2.1706,3.73439 -3.28738,4.58294 -6.05826,4.6032 -3.15458,0.0231 -5.22882,2.99953 -5.58536,8.01486 -0.27801,3.91047 -0.78846,4.79843 -3.91983,6.8188 -3.1608,2.03936 -3.82106,3.20977 -5.4098,9.58982 l -1.8096,7.26696 3.25979,4.73794 c 1.79288,2.60587 4.581,5.54142 6.19582,6.52345 1.61481,0.98202 4.24646,3.85185 5.84811,6.37739 5.1249,8.08113 15.70458,17.48576 21.84954,19.42279 4.33232,1.36564 5.91205,2.48433 7.85539,5.56278 1.38816,2.19898 3.90911,4.47033 5.87174,5.29037 2.54117,1.06177 3.43921,2.05309 3.43921,3.79645 0,1.29771 0.90355,4.40208 2.00788,6.89862 2.03035,4.58992 6.00025,20.90251 6.31898,25.96508 L 558.5,767 h 77.18664 77.18664 l 0.31336,-3.24181 C 713.65763,758.88564 717,758.59507 717,763.42668 V 767 h 25.4701 25.4701 l -0.17194,-3.25 c -0.49524,-9.36114 -0.0835,-10.4267 4.47606,-11.58405 5.47635,-1.39004 6.09649,-0.60783 4.276,5.39355 -1.71007,5.63739 -1.94827,9.4405 -0.59128,9.4405 1.01426,0 3.38436,-7.49144 5.46516,-17.27433 1.28664,-6.04917 1.35653,-6.14586 2.46499,-3.41057 1.84409,4.55053 1.40821,12.76124 -0.85919,16.1849 -3.77687,5.70288 -1.05831,6.45295 3.35248,0.92497 2.76578,-3.46632 2.83311,-3.82344 2.21534,-11.74997 -0.829,-10.63686 -0.836,-13.42905 -0.0444,-17.75157 0.56984,-3.11182 0.3185,-3.79702 -1.93421,-5.27305 -3.4434,-2.2562 -3.4878,-5.65038 -0.0739,-5.65038 h 2.51524 l -0.26524,-156.75 c -0.25883,-152.96436 -0.31196,-156.82722 -2.19975,-159.94735 -1.62163,-2.68023 -1.74293,-3.6178 -0.75,-5.79705 1.97515,-4.33498 1.44295,-9.04501 -1.40438,-12.42887 -2.77853,-3.3021 -4.31659,-3.77125 -6.19746,-1.89038 -0.91512,0.91512 -0.81881,1.59246 0.42128,2.96275 0.8842,0.97703 1.34218,2.46817 1.01774,3.31365 -0.69814,1.81931 -3.00855,2.10489 -2.40606,0.29741 0.4372,-1.31159 -2.47478,-3.95373 -5.63273,-5.11079 -1.75356,-0.6425 -1.77113,-0.81813 -0.25,-2.49896 0.89987,-0.99434 1.63612,-2.34946 1.63612,-3.01137 0,-0.66192 0.98646,-1.56841 2.19214,-2.01442 1.22024,-0.45139 2.69073,-2.29172 3.31669,-4.15085 1.62385,-4.82287 3.62639,-5.75658 7.9373,-3.70085 L 790,373.96764 V 570.98382 768 L 394.75,767.77657 C 177.3625,767.65368 6.8125,767.41753 15.75,767.25179 Z M 386.49464,765.25 c -0.93092,-2.26475 -3.90322,-13.8751 -7.10412,-27.75 -1.451,-6.28964 -3.1557,-11.34648 -3.98094,-11.80912 -0.79381,-0.44502 -2.8455,-3.82002 -4.55932,-7.5 -2.85696,-6.13458 -3.17985,-6.48302 -3.88347,-4.19088 -0.42209,1.375 -0.81229,3.65287 -0.86711,5.06194 -0.10942,2.81226 -5.39484,7.49171 -7.20102,6.37543 -0.58217,-0.3598 -1.72305,0.2946 -2.53528,1.45422 -0.81223,1.15963 -2.02042,2.10841 -2.68485,2.10841 -0.66444,0 -3.17055,2.025 -5.56913,4.5 -4.82038,4.97395 -6.1094,5.49656 -6.1094,2.47695 0,-1.92641 -0.11907,-1.94504 -2.49228,-0.39005 -2.51399,1.64723 -6.14621,1.25522 -5.03463,-0.54336 0.32992,-0.53383 -0.26834,-1.83879 -1.32947,-2.89992 -1.73156,-1.73156 -2.08613,-1.77253 -3.45894,-0.39973 -2.66824,2.66824 -4.75524,0.91743 -3.50631,-2.94149 0.58785,-1.81632 1.37024,-5.7774 1.73863,-8.8024 0.3684,-3.025 1.32103,-6.5125 2.11696,-7.75 1.18322,-1.83967 1.21715,-2.61826 0.18606,-4.26929 -0.69358,-1.11061 -1.91516,-5.43794 -2.71461,-9.61629 C 325.93445,690.15373 324.77338,688 321.91802,688 320.11397,688 315,683.32866 315,681.68076 c 0,-0.46182 1.35,-0.54316 3,-0.18076 3.89692,0.85591 4.04246,-1.50161 0.42165,-6.83011 -2.24076,-3.29757 -2.94814,-3.71316 -5.40262,-3.17407 -2.23151,0.49012 -3.16358,0.13589 -4.44091,-1.68775 -0.88915,-1.26944 -1.76831,-2.08307 -1.95368,-1.80807 -0.69552,1.03179 -9.94971,-10.696 -12.23077,-15.5 -1.3405,-2.82314 -2.37839,-6.86431 -2.3839,-9.28212 -0.0112,-4.92387 -1.89279,-9.97041 -4.62175,-12.39603 C 284.91532,628.62401 277,630.37879 277,633.1248 c 0,3.06485 -1.17468,4.8752 -3.16336,4.8752 -1.07216,0 -3.23019,1.4023 -4.79562,3.11623 l -2.84624,3.11624 -1.21815,-2.27614 c -1.10386,-2.06257 -1.30822,-2.11519 -2.17811,-0.56078 -0.69492,1.24175 -1.30735,1.42705 -2.21816,0.67114 -1.76152,-1.46193 -8.85047,-0.8607 -10.19985,0.86506 -1.70795,2.18437 -11.56039,2.51574 -13.08906,0.44024 -1.39742,-1.89731 -6.66086,-1.40835 -13.25908,1.23173 -3.52669,1.41111 -4.00398,2.02416 -4.58324,5.88695 -0.35563,2.37149 -0.33675,5.28806 0.042,6.48125 1.14324,3.60204 -5.91988,9.26327 -14.76283,11.8327 -8.9761,2.60812 -19.6492,9.33408 -23.82737,15.01551 -2.00593,2.72764 -5.2116,5.31752 -8.86388,7.16119 -3.14682,1.58851 -6.45316,4.00487 -7.34743,5.36968 -0.97664,1.49056 -3.93478,3.32382 -7.40775,4.59086 -9.18197,3.34985 -10.14648,4.03546 -10.47896,7.44883 -0.39601,4.06554 -7.22163,7.85327 -12.73096,7.06478 -3.19603,-0.45741 -3.78812,-0.16627 -5.62656,2.76666 -1.82512,2.91169 -2.49541,3.24751 -6,3.00607 -9.50327,-0.65471 -11.26877,2.4489 -11.67204,20.51849 -0.15629,7.00345 -0.68616,12.24811 -1.2376,12.25 -0.53035,0.002 -0.24927,0.71832 0.62464,1.59223 1.23376,1.23376 1.39875,2.40726 0.73814,5.25 -0.46793,2.01359 -0.86151,4.22358 -0.87463,4.91108 -0.019,0.9941 28.35148,1.25 138.58313,1.25 131.61402,0 138.5707,-0.0883 137.88765,-1.75 z m 367.11302,-9.5 c -0.46299,-6.30444 -1.14556,-9.60355 -2.14348,-10.36024 -0.8053,-0.61064 -1.46418,-1.39814 -1.46418,-1.75 0,-1.21985 6.56485,-0.63285 8.56128,0.7655 1.45863,1.02167 3.17836,1.19094 6.29998,0.62011 5.62327,-1.02829 6.13559,0.37244 2.54747,6.965 C 764.79226,756.79768 757.07335,765 755.16582,765 c -0.48337,0 -1.18455,-4.1625 -1.55816,-9.25 z m -33.89508,-7.37076 C 719.32066,747.98733 719,746.79352 719,745.72634 c 0,-1.45571 0.43707,-1.76038 1.75,-1.21988 0.9625,0.39625 2.5559,0.95169 3.54089,1.23432 0.98499,0.28263 1.62529,1.01907 1.42288,1.63654 -0.42633,1.30061 -4.94766,2.05546 -6.00119,1.00192 z m 10.43187,-14.80414 c -2.25271,-2.98369 -5.00677,-5.71402 -6.12014,-6.06738 C 718.70956,725.82088 723.20002,723 731.2,723 c 7.87533,0 10.25416,1.57351 11.36987,7.52075 1.0213,5.44399 -0.74285,8.47925 -4.92829,8.47925 -2.94706,0 -3.94827,-0.72447 -7.49713,-5.4249 z m 20.52222,4.75823 C 749.64153,737.3082 749.87661,733.19429 751,732.5 c 0.59512,-0.3678 1,0.82295 1,2.94098 0,3.65458 -0.1802,4.04549 -1.33333,2.89235 z M 768,735.64922 c 0,-0.74292 0.49402,-2.76792 1.09783,-4.5 1.40431,-4.02841 6.33046,-4.45113 9.72786,-0.83477 3.64331,3.87813 2.8742,5.04702 -2.873,4.36635 -3.90193,-0.46212 -5.17433,-0.2668 -5.60699,0.86071 -0.70406,1.83474 -2.3457,1.91012 -2.3457,0.10771 z m -9.82379,-0.87301 c -2.77026,-2.77026 -0.9511,-4.79453 2.22296,-2.4736 1.51653,1.10892 1.57115,1.47713 0.36734,2.47621 -1.08234,0.89826 -1.69004,0.89765 -2.5903,-0.003 z m 19.35248,-10.72979 c -0.36178,-0.58537 -0.4082,-1.85068 -0.10316,-2.81179 0.48091,-1.5152 -0.0308,-1.7009 -3.85002,-1.39715 -3.58107,0.28482 -4.60266,-0.0197 -5.4637,-1.62855 -0.58248,-1.08838 -2.28564,-2.28673 -3.78479,-2.66299 -1.49915,-0.37626 -3.73954,-1.77803 -4.97863,-3.11503 -4.38786,-4.73457 -5.97335,-1.79622 -2.26683,4.20106 2.55847,4.13968 1.69651,4.19652 -5.58156,0.36803 -7.13576,-3.75363 -8.667,-3.74688 -12.5566,0.0553 -2.99845,2.93107 -3.22539,2.98993 -5.58006,1.44708 -1.34998,-0.88454 -3.2977,-1.34063 -4.32827,-1.01354 -2.85099,0.90487 -3.59538,-2.91993 -1.48089,-7.60903 1.96179,-4.35046 1.60441,-5.38234 -1.52061,-4.39049 -1.48897,0.47258 -1.94433,1.21647 -1.53468,2.50714 1.29937,4.09397 -1.95381,3.24471 -6.49683,-1.69603 C 713.30424,701.19138 709,691.18081 709,685.36399 c 0,-2.52722 0.0635,-2.55243 2.46482,-0.979 4.69987,3.07947 5.81751,2.25893 4.95111,-3.63499 -0.42445,-2.8875 -0.85208,-6.825 -0.95027,-8.75 -0.0982,-1.925 -0.70639,-7.44232 -1.35155,-12.2607 -1.3228,-9.87934 -0.79603,-11.81818 3.86587,-14.22895 3.7474,-1.93785 4.29166,-1.90894 9.26111,0.49204 l 4.14448,2.0024 2.61193,-2.5024 C 738.09064,641.58092 739,642.236 739,649.1061 c 0,5.15878 0.43541,6.67142 2.80655,9.75 2.57228,3.33974 2.79121,4.29076 2.62287,11.39339 C 744.23966,678.2554 743.10883,681 740,681 c -2.78287,0 -3.65052,2.04064 -3.78673,8.90613 -0.0958,4.82775 0.33867,7.06026 1.76332,9.061 1.03974,1.46017 2.19592,3.87203 2.5693,5.35968 0.79141,3.15324 4.85593,6.67319 7.7056,6.67319 1.48904,0 1.85181,-0.49696 1.45908,-1.99879 -0.59343,-2.26927 3.77175,-6.00121 7.01949,-6.00121 2.30803,0 6.26994,3.9702 6.26994,6.28307 0,2.45517 2.89866,0.96889 3.60588,-1.84892 0.50686,-2.01948 1.02656,-2.26202 3.74137,-1.74606 4.03905,0.76763 4.02254,0.74692 2.51643,3.15859 -1.07061,1.71431 -1.00159,2.34345 0.43071,3.92612 0.93808,1.03658 1.70561,2.43214 1.70561,3.10125 0,0.8529 1.06525,1.01673 3.56352,0.54806 l 3.56352,-0.66852 -0.31352,4.36458 c -0.31014,4.31746 -2.69373,6.5027 -4.28483,3.92825 z M 764.75,723.31067 C 762.98284,722.84887 762.24213,720 763.88922,720 c 0.48906,0 1.95156,0.88503 3.25,1.96673 2.35373,1.96086 1.59805,2.38593 -2.38922,1.34394 z m -19.57612,-1.60116 c -0.83769,-1.00935 -0.8249,-1.65849 0.0499,-2.5333 1.94506,-1.94506 3.9469,-1.39086 3.59576,0.99546 -0.38919,2.64492 -2.1207,3.37532 -3.64567,1.53784 z M 778,704.92668 c 0,-3.3012 0.32341,-4.01104 1.70615,-3.74475 1.75737,0.33843 3.29733,4.35355 2.51913,6.56807 -0.24159,0.6875 -1.29111,1.25 -2.33227,1.25 C 778.34549,709 778,708.25659 778,704.92668 Z m -35.33333,-5.59335 C 741.40869,698.07536 742.0001,695 743.5,695 c 0.93333,0 1.5,0.94444 1.5,2.5 0,2.42787 -0.97373,3.19294 -2.33333,1.83333 z M 548.33654,684.0691 c -5.69349,-0.93066 -7.04195,-2.33311 -8.36333,-8.69815 l -1.13668,-5.47537 3.83173,-4.24797 c 5.7544,-6.37949 10.27677,-9.31948 17.02544,-11.06824 7.29532,-1.89041 10.495,-1.99067 12.1063,-0.37937 1.56975,1.56975 1.53965,5.48333 -0.05,6.50031 -1.76715,1.13054 -4.75,7.07928 -4.75,9.473 0,1.10618 -0.9,3.1554 -2,4.55382 -1.1,1.39842 -2,3.17986 -2,3.95876 0,0.77889 -1.54423,2.06138 -3.43162,2.84999 -1.88739,0.7886 -3.71395,1.89064 -4.05902,2.44897 -0.67891,1.0985 -0.94861,1.10167 -7.17282,0.0842 z M 703.46897,593.25 c -0.96858,-1.5125 -3.27338,-4.02277 -5.12177,-5.57838 -4.66677,-3.92754 -5.47681,-5.84473 -6.0326,-14.27777 -0.69104,-10.48514 2.73774,-20.41458 9.93422,-28.76869 3.00344,-3.48657 3.66402,-3.80321 6.59244,-3.16002 l 3.25454,0.71481 -0.664,17.66003 c -0.5269,14.01389 -1.05295,18.56373 -2.5479,22.03714 -1.03614,2.40741 -1.8839,6.56991 -1.8839,9.25 0,5.52179 -0.97793,6.10973 -3.53103,2.12288 z m 78.90823,-94.98535 c 0.63101,-4.60372 3.8226,-9.39818 5.28363,-7.93715 0.39401,0.39401 -0.26849,2.74354 -1.47222,5.22119 C 784.98487,498.02634 784,500.71646 784,501.52675 784,502.33704 783.48883,503 782.86408,503 c -0.77936,0 -0.93219,-1.48644 -0.48688,-4.73535 z M 732,400.57258 c 0,-1.6686 4.64818,-5.57258 6.63486,-5.57258 2.24642,0 1.5478,2.71116 -1.26972,4.92742 C 734.30412,402.33522 732,402.61229 732,400.57258 Z M 764,399 c 0,-0.55 0.45,-1 1,-1 0.55,0 1,0.45 1,1 0,0.55 -0.45,1 -1,1 -0.55,0 -1,-0.45 -1,-1 z m 18,-2 c 0,-1.1 0.45,-2 1,-2 0.55,0 1,0.9 1,2 0,1.1 -0.45,2 -1,2 -0.55,0 -1,-0.9 -1,-2 z m -14.92105,-3.41667 c -0.0434,-1.05416 0.19293,-1.64479 0.52522,-1.3125 0.33229,0.33229 0.36781,1.19479 0.0789,1.91667 -0.31922,0.79773 -0.55618,0.56078 -0.60416,-0.60417 z M 782,391 c 0,-0.55 0.45,-1 1,-1 0.55,0 1,0.45 1,1 0,0.55 -0.45,1 -1,1 -0.55,0 -1,-0.45 -1,-1 z m -20,-22 c 0,-1.65 0.45,-3 1,-3 0.55,0 1,1.35 1,3 0,1.65 -0.45,3 -1,3 -0.55,0 -1,-1.35 -1,-3 z m 20.03518,-1.93426 c -1.53739,-2.87264 -1.27431,-4.04173 1.1078,-4.92293 1.18119,-0.43695 2.63981,-2.2962 3.25,-4.14266 2.01803,-6.10672 3.60702,-4.86905 3.60702,2.80953 0,5.43902 -0.34857,7.1101 -1.58179,7.58333 -2.92526,1.12253 -5.34074,0.62026 -6.38303,-1.32727 z M 789,108.65006 C 789,104.55573 773.61069,77.407997 770.06161,75.241526 768.86746,74.512577 768,72.934261 768,71.490483 c 0,-1.879591 -1.52764,-3.660444 -6.21189,-7.241526 -8.59311,-6.569385 -9.95218,-8.183384 -12.63241,-15.001982 -1.28937,-3.280188 -3.20187,-6.698248 -4.25,-7.595689 C 742.61362,39.688748 742.46977,37.684941 744.5,36 c 2.37535,-1.971367 1.78222,-4.040267 -2.26622,-7.904836 -3.16119,-3.017609 -3.679,-4.077107 -3.22325,-6.595164 l 0.54297,-3 2.97325,3.270439 c 1.63529,1.798742 4.49258,4.723742 6.34954,6.5 8.94944,8.560521 11.52812,11.616533 13.78025,16.331071 2.28098,4.774921 11.29301,13.971117 22.28327,22.73864 L 788.5,70.1803 789.01925,34.84015 c 0.49492,-33.6838669 0.53007,-32.7273206 0.75,20.40985 0.12691,30.6625 0.006,55.75 -0.26925,55.75 -0.275,0 -0.5,-1.05747 -0.5,-2.34994 z M 691.69098,41.309017 c -0.30746,-0.49748 -0.19496,-1.493566 0.25,-2.213525 0.44496,-0.71996 1.06058,-0.901989 1.36804,-0.404509 0.30746,0.49748 0.19496,1.493566 -0.25,2.213525 -0.44496,0.71996 -1.06058,0.901989 -1.36804,0.404509 z m 3.77389,-1.365852 C 694.29889,38.05657 695.93649,34 697.86406,34 c 2.49725,0 5.32968,3.331551 4.55306,5.355382 -0.70864,1.84668 -5.9028,2.285824 -6.95225,0.587783 z"
       id="path351" />
    <path
       id="path349"
       style="fill:#0505fe;stroke:none"
       d="m 721.61523,240.04883 c -2.58205,-0.017 -4.84855,1.96296 -5.52587,4.39615 -0.50361,1.57376 -0.5114,3.27003 -0.25342,4.89096 -4.35677,4.35677 -8.71354,8.71354 -13.07032,13.07031 0.64908,2.38412 1.29818,4.76823 1.94727,7.15234 -4.30598,0.53654 -8.61205,1.07236 -12.91797,1.60938 -1.74632,5.02335 -3.44445,10.06879 -5.2204,15.07851 -4.95768,8.4778 -9.91639,16.95499 -14.87335,25.43321 5.46141,0.54742 10.92319,1.09105 16.38477,1.63672 1.57617,3.25325 3.15234,6.50651 4.72851,9.75976 -1.47137,3.67903 -2.94247,7.35817 -4.41406,11.03711 4.57023,1.83061 9.14201,3.65735 13.71289,5.48633 0.69264,-1.72737 1.38317,-3.45559 2.07422,-5.18359 3.26606,0.95634 6.78435,1.48435 9.63086,3.47265 1.64494,1.18834 2.7878,2.93945 3.56055,4.79102 -2.02361,0.79615 -3.48321,2.88066 -3.3044,5.08272 0.24643,3.18185 2.36009,5.85394 4.6256,7.94104 1.2146,1.08305 2.56553,2.03498 4.06356,2.68327 -0.69778,5.73685 -0.99119,11.58225 -0.16811,17.32225 0.50446,3.00447 1.30404,6.28032 3.73264,8.33383 1.88831,1.61924 4.79309,1.73006 6.84719,0.35463 1.70484,-1.03519 3.06767,-2.51307 4.5082,-3.87009 0.60501,-0.54569 1.40903,-1.33516 2.24805,-1.75781 0.65956,-0.20841 1.04612,-0.61876 1.02125,-1.33345 0.39544,-2.98132 2.63131,-5.24895 4.9496,-6.9476 3.98821,-2.96277 8.6475,-5.32808 11.50259,-9.54629 2.32817,-3.31764 2.92668,-7.56137 2.34532,-11.50857 -0.9659,-7.34717 -4.78716,-13.97422 -9.31824,-19.70267 -5.92015,-7.41437 -13.15571,-13.66181 -20.69778,-19.36767 -3.0392,-2.15626 -6.88309,-2.69793 -9.97545,-4.74431 -2.3939,-1.57017 -3.23246,-4.76631 -2.46605,-7.43794 1.04149,-3.8044 3.51901,-6.98231 5.78511,-10.13422 3.03265,-4.18963 6.43801,-8.32621 7.93959,-13.36517 0.87209,-2.82818 0.6452,-5.90085 -0.39894,-8.65055 -0.85329,-2.59992 -2.37597,-5.12567 -2.19676,-7.94711 0.50995,-3.43105 2.50389,-6.67731 1.9321,-10.23719 -0.37973,-2.25729 -1.91819,-4.1233 -3.52781,-5.66124 -1.43329,-1.25791 -3.26844,-2.17634 -5.21094,-2.13672 z" />
    <path
       id="path315"
       style="fill:#ffff00"
       d="m 740.52148,19.208984 c -1.46,0.09911 -2.12692,1.618291 -2.49951,2.845151 -0.66052,1.646916 -0.0724,3.62969 1.37097,4.656267 1.14607,0.821651 2.49256,1.414526 3.33294,2.604855 1.1172,1.443637 2.12867,3.210198 2.0101,5.092053 -0.1832,0.330723 -0.78664,0.3917 -1.0934,0.705971 -1.68808,1.227579 -2.01797,3.702142 -0.99865,5.459735 0.60022,1.312842 1.94948,2.03575 2.59293,3.3206 2.03949,3.180747 3.42023,6.652863 5.12973,9.987403 1.51135,3.044403 3.86119,5.574892 6.51232,7.665856 3.11709,2.580766 6.61033,4.743213 9.36718,7.734375 0.51707,0.53897 0.83805,1.223357 0.80085,1.976005 0.35996,2.342856 1.85433,4.342828 3.59026,5.88154 2.82061,3.229109 4.97425,6.969566 7.15323,10.643983 1.53,2.643112 3.0056,5.368624 4.39316,8.059019 1.42868,2.71479 2.68084,5.573793 4.61886,7.975593 0.56732,0.67639 1.4464,1.04139 2.31971,0.86004 0.87065,-0.23982 1.50826,-1.06412 1.58673,-1.97589 0.37358,-3.608708 0.30635,-7.248971 0.36283,-10.873409 0.0102,-7.117324 -0.0825,-14.234391 -0.12055,-21.351569 -2.53501,-1.803431 -5.04418,-3.647417 -7.34625,-5.746096 -4.61504,-3.973501 -8.85089,-8.404474 -13.79265,-11.986186 -1.39848,-0.837893 -2.18791,-2.355747 -3.12576,-3.637218 -1.94729,-2.993732 -3.43426,-6.263286 -5.49844,-9.185988 -1.55686,-2.353543 -3.30563,-4.590611 -5.40345,-6.489099 -3.92077,-3.901531 -7.95658,-7.697514 -11.66814,-11.80192 -0.96404,-1.049164 -1.95952,-2.637914 -3.595,-2.421071 z m -19.37695,16.8125 c -1.64058,0.141267 -3.59076,0.262738 -4.70379,1.64239 -0.31043,0.461876 -0.3913,1.029879 -0.96414,1.262726 -1.34373,0.777827 -3.1654,1.279868 -3.66201,2.944533 -0.53176,1.728807 0.82986,3.168577 1.5233,4.615195 0.33521,0.723181 0.6149,1.472125 0.82813,2.240234 -0.81043,-0.392354 -1.83721,-0.235017 -2.45342,0.437446 -0.72004,0.65319 -0.50218,1.742177 -1.10761,2.47471 -0.43231,0.727593 -0.92698,1.416216 -1.44874,2.081985 0.0596,-1.84223 -0.12612,-4.086776 -1.86269,-5.151777 -0.72525,-0.470168 -1.71346,-0.576367 -2.45958,-0.580645 -0.44393,-1.525546 -2.42482,-2.111578 -3.7246,-1.28125 -1.23439,0.609541 -1.6595,2.169308 -1.30274,3.431641 -0.96126,-1.846622 -1.94355,-4.100951 -4.13012,-4.726394 -2.29642,-0.602319 -4.59309,0.406204 -6.76081,1.070586 -2.3769,0.779832 -4.67625,1.742457 -7.14813,2.245652 -0.62702,-1.456491 -2.541,-2.165562 -3.91166,-1.302441 -1.81468,1.172215 -2.63267,3.303468 -3.53922,5.171043 -0.58742,1.214212 -1.18151,2.527894 -2.19756,3.430226 -4.00206,0.635264 -7.72301,2.343809 -11.63502,3.32793 -0.52471,0.09751 -1.34771,0.456766 -1.15577,-0.417272 -0.39283,-3.268778 -0.76618,-6.618446 -2.08026,-9.667991 -0.54665,-1.352922 -1.90881,-2.590448 -3.46014,-2.21531 -3.89363,0.826796 -7.43594,2.736286 -11.19289,3.982988 -2.78246,0.968138 -5.69857,0.02854 -8.40172,-0.742392 -2.37952,-0.640234 -4.68036,-1.644 -7.13688,-1.951419 -1.67356,-0.228138 -3.21678,0.77351 -4.16811,2.083647 -1.06772,1.511682 -3.07867,1.596143 -4.7435,1.867545 -1.27147,0.161703 -2.33909,0.240114 -3.63006,0.348447 -2.10848,0.15611 -4.47106,0.303328 -6.68081,0.143592 -1.73467,-0.133222 -3.84412,-0.511207 -4.64515,-2.280431 -0.54107,-1.344166 -1.21285,-2.790884 -2.59508,-3.450037 -1.96257,-1.016632 -4.26796,-0.08238 -5.88281,1.173828 -3.68891,2.799208 -5.94086,6.950138 -8.22401,10.876042 -2.73839,4.967143 -5.37028,10.031306 -7.25255,15.393489 -0.4802,1.543964 -0.85619,3.369782 -2.42579,4.191406 -3.06774,1.801203 -6.49476,2.898949 -9.54424,4.741458 -1.23971,0.796863 -2.88238,1.54696 -3.22724,3.123777 -0.31275,1.379381 0.9308,2.55364 2.20608,2.795006 3.04274,0.681924 6.19272,0.60679 9.29378,0.677404 1.62893,0.0091 3.25791,0.01131 4.88686,0.01782 -1.53801,1.768905 -2.67895,3.847433 -3.48253,6.0422 -0.80303,1.744831 -1.93825,3.537584 -3.07802,4.930459 -1.45915,1.63987 -2.69892,3.6274 -2.74336,5.88893 -0.18599,3.04073 0.56844,6.05624 0.38789,9.09349 -0.27795,1.91201 -1.84938,3.24684 -2.95883,4.71433 -1.94389,2.31006 -4.04413,4.79675 -4.36533,7.92466 -0.60278,4.91803 0.36037,9.86991 1.64198,14.60523 0.64252,2.32414 1.71841,4.57438 1.85406,7.00774 -0.12217,1.00662 -0.9036,1.77664 -1.22618,2.72406 -1.62367,3.42284 -2.59367,7.11178 -4.2914,10.5025 -3.01529,6.24044 -6.27811,12.37223 -9.94476,18.25597 -0.56276,0.77476 -0.98965,1.72415 -1.73889,2.32068 -3.06183,1.12898 -6.31283,1.61998 -9.49744,2.28246 -5.46043,1.00297 -10.91839,2.05295 -16.42368,2.77985 -2.40998,0.34167 -4.89684,0.27794 -7.21882,-0.5083 -8.40103,-2.55094 -17.70718,-2.02964 -25.7789,1.41842 -3.97479,1.69187 -7.59489,4.27138 -10.3,7.65846 -1.90159,2.28408 -4.483,3.97972 -7.36521,4.73168 -2.73245,0.78432 -5.73453,1.13027 -8.44129,1.43383 -2.06947,0.20776 -4.03269,0.3704 -6.13802,0.52865 -3.24856,0.22248 -6.37181,0.57025 -9.63583,0.46911 -3.60044,-0.0609 -6.59827,-2.31517 -9.9679,-3.27005 -7.60329,-2.40683 -15.80906,-1.77282 -23.46356,0.0512 -3.26661,0.72617 -6.46245,1.88294 -9.81488,2.14799 -2.45448,0.0915 -4.50228,-1.49456 -6.56076,-2.60396 -1.61313,-0.9409 -3.22455,-1.8848 -4.83701,-2.82686 -0.0692,-2.63508 0.11864,-5.28809 -0.19532,-7.91016 -0.19013,-1.69359 -1.39644,-3.13922 -2.98725,-3.71617 -3.56924,-1.44542 -7.40959,-2.00591 -11.15714,-2.80046 -6.25766,-1.20582 -12.55918,-2.16084 -18.84193,-3.22555 -3.14368,-6.37106 -5.85724,-13.05129 -10.19922,-18.73633 -2.42564,-3.17647 -5.71692,-5.87616 -9.6767,-6.80119 -4.20923,-1.22772 -8.12842,-3.24887 -11.99386,-5.28241 -4.68061,-2.34482 -9.98951,-3.0358 -15.17159,-2.92875 -8.26515,0.16502 -16.45214,1.45374 -24.62821,2.57001 -4.30356,0.65482 -8.657,1.07895 -12.89097,2.11812 -1.83423,0.44247 -3.75433,1.51025 -4.28711,3.45312 -0.55457,1.85904 -0.39435,3.89349 -1.14453,5.69532 -0.9814,0.95238 -2.41654,1.22894 -3.65286,1.73492 -6.44834,2.30603 -13.12926,3.86741 -19.82116,5.27874 -1.53294,0.42061 -3.1798,0.50588 -4.62399,1.19845 -2.67291,1.48949 -4.3562,4.16283 -5.87002,6.72738 -0.60399,0.97771 -1.20778,1.95554 -1.81127,2.93355 5.5202,5.10575 11.11962,10.12267 16.73106,15.12787 1.98994,1.73189 3.41719,4.00395 4.37011,6.44796 2.16667,5.44556 3.93388,11.03934 5.89077,16.56192 0.0642,0.46687 -1.06433,0.0712 -1.46782,0.18122 -0.6498,-0.009 -1.45375,-0.12435 -1.62921,-0.87865 -1.44458,-3.63111 -2.84096,-7.28232 -4.26796,-10.92079 -2.13226,1.988 -4.15813,4.09564 -6.36523,6 -0.83579,0.67435 -1.94167,0.0453 -2.8524,-0.12178 -1.63944,-0.53016 -3.69648,-0.75531 -4.62199,-2.41449 -1.49899,-2.53916 -2.32762,-5.41449 -3.86899,-7.93567 -1.9792,-3.52059 -4.52101,-6.70608 -7.46225,-9.47041 l -4.45218,-4.45218 c -2.45278,2.41382 -5.15436,4.60649 -7.20689,7.39415 -2.40895,3.04411 -4.38282,6.3894 -6.44229,9.66956 -2.8792,4.47105 -6.51956,8.52103 -11.03643,11.3827 -7.13082,4.72238 -15.65698,6.73851 -22.81049,11.41687 -2.52262,1.66037 -4.8984,4.04607 -5.32162,7.1703 -0.23889,1.38621 -0.0391,2.79105 0.0872,4.17736 -3.1598,0.14957 -6.24696,-0.66497 -9.3167,-1.29412 -1.48311,-0.32597 -2.94969,-0.67547 -4.34401,-1.03181 -5.93401,-1.54925 -11.84401,-3.2757 -17.93156,-4.1283 -5.08784,-0.69995 -10.41857,-1.09868 -15.38429,0.4972 -2.02635,0.67565 -3.77593,1.97616 -5.83517,2.57831 -3.22671,1.17836 -6.71629,1.23809 -10.0164,2.10919 -2.22745,1.12846 -3.83498,3.13478 -5.43779,4.99037 -2.0079,2.35515 -3.51024,5.22241 -6.077532,7.04444 -1.954886,1.25619 -4.368633,1.39807 -6.414958,2.46727 -2.205964,0.96714 -4.288154,2.2352 -6.069716,3.8612 -1.966836,1.51747 -4.394294,2.26056 -6.818674,2.63348 -3.307598,0.80365 -6.490808,2.24583 -9.116165,4.43517 -1.489242,1.12046 -2.979266,2.23989 -4.469458,3.35908 3.176503,1.69302 6.28244,3.52404 9.50569,5.12575 3.500781,1.60452 7.215671,2.80203 11.055914,3.21813 0.433589,0.11257 1.27641,0.0149 0.873854,0.68696 -0.559684,2.27216 -0.826744,4.61197 -1.44309,6.86754 -0.673928,1.71424 -2.467417,2.55552 -3.907012,3.53237 -2.682248,1.71492 -5.633942,3.06061 -8.032622,5.18449 -1.812011,1.5954 -2.447152,4.07792 -2.401593,6.41364 0.02514,2.6345 0.09541,5.2849 0.480272,7.89447 0.31305,2.13456 1.398219,4.16618 3.163509,5.44384 1.49345,1.48498 2.009937,3.73617 1.841797,5.7793 -0.758727,1.07456 -2.091343,1.56094 -3.154037,2.28594 -1.535252,0.98002 -3.271594,1.83314 -4.363541,3.33711 -0.473588,0.68397 -0.437719,1.5963 -0.105071,2.31289 0.488151,0.61569 1.159416,1.05326 1.970408,1.03062 2.02755,-0.15784 3.852754,-1.20106 5.670485,-2.03436 4.876036,-2.4297 10.178972,-3.85657 15.466563,-5.07681 3.88489,-0.80279 7.830917,-1.59803 11.816647,-1.48264 4.99803,0.35744 9.78176,1.99649 14.44068,3.7423 1.55798,0.56186 3.11564,1.1246 4.67388,1.68573 2.41729,-1.3922 4.82957,-2.7779 7.2461,-4.16797 2.40612,1.06337 4.85566,2.03212 7.22265,3.18164 -4.16297,1.03737 -8.45102,1.58462 -12.7431,1.55741 -1.92547,0.0267 -4.10024,0.47477 -5.23541,2.19064 -0.66233,0.93559 -0.9556,2.17763 -2.05079,2.74609 -2.28363,1.40063 -4.99263,1.79913 -7.46326,2.75971 -3.89195,1.39884 -7.85836,2.87008 -11.185173,5.38678 -1.437359,1.09019 -2.667781,2.73608 -2.494564,4.63108 -0.09033,1.82933 -0.293358,4.10089 -2.054264,5.12087 -1.645882,0.66001 -3.035766,1.96061 -3.595703,3.66797 -1.043003,3.12663 -1.09769,6.46776 -1.376399,9.72329 -0.433774,7.12569 -0.729309,14.25995 -1.090398,21.38999 4.282643,2.38164 8.581869,4.64934 12.789081,7.10424 1.73874,1.08975 3.82513,2.23048 4.33031,4.39609 0.67291,2.32627 1.38823,4.89039 0.36937,7.23187 -1.33764,3.34405 -3.32103,6.37727 -5.01599,9.54403 -0.55104,0.98527 -1.10299,1.97004 -1.652459,2.95619 3.914969,7.61778 7.446549,15.4999 12.451169,22.49112 3.27978,4.63743 7.53692,8.54593 12.37031,11.51916 2.93827,1.89705 6.04053,3.78978 8.12969,6.6655 1.33245,1.78203 1.40989,4.24694 0.57032,6.24024 -2.36993,0.49463 -4.88323,-0.15728 -7.21248,0.59921 -1.39501,0.4653 -2.09655,2.0509 -1.75627,3.4379 1.04007,4.10868 1.64474,8.31129 2.5371,12.45117 0.58707,2.77242 2.1655,5.20435 4.08168,7.24753 4.11779,4.3834 8.41153,8.64274 13.1992,12.29788 1.23973,1.07803 3.19816,1.44701 3.80603,3.13912 0.82958,2.22396 0.49602,4.94893 2.21583,6.78813 1.3663,1.44123 3.55674,1.21556 5.28779,0.69497 2.00088,-0.51322 3.89249,-1.38497 5.88799,-1.90396 1.161,-0.0776 2.03885,0.90773 2.90413,1.54223 4.8809,4.25384 9.31362,8.99301 14.16072,13.28559 1.79168,1.52929 3.48744,3.226 5.54062,4.40656 1.42863,0.41338 2.51944,1.53368 3.70508,2.38867 2.96837,2.53488 5.94068,5.07424 9.14844,7.30686 6.83933,4.81893 14.10343,9.11387 21.87859,12.24244 4.2773,1.65461 8.68984,3.14624 13.3027,3.42666 5.85758,0.44228 11.78095,-0.002 17.59605,0.9674 0.90832,2.98284 0.7687,6.1449 1.072,9.2198 0.1036,1.48988 0.20721,2.97977 0.31081,4.46965 2.89835,-3.62013 5.6857,-7.33154 8.66039,-10.88903 1.73457,-2.10721 4.11933,-3.56621 6.6816,-4.448 1.99507,-0.72394 4.00184,-1.4154 6.00176,-2.12586 2.89759,1.32595 5.80684,2.62658 8.69336,3.97656 0.45928,0.23528 1.2362,0.59608 1.814,0.89727 2.63449,1.40983 5.48717,2.81662 7.23915,5.33588 1.34466,1.94581 0.93202,4.38179 1.14802,6.59498 0.11477,1.81684 1.07344,3.60086 2.73828,4.43359 0.78911,0.47801 2.06242,0.70942 2.08435,1.85487 0.26116,1.7578 -0.3028,3.82757 0.93996,5.30102 0.96182,1.09857 2.62254,0.88615 3.759,0.18817 2.34358,-1.02163 4.88138,-1.51116 7.35599,-2.11798 3.69965,-0.73201 7.37016,-1.6687 10.86165,-3.11548 7.70049,-3.12434 14.95497,-7.21093 22.33628,-11.00235 2.46702,-1.28869 4.93404,-2.57737 7.40105,-3.86606 5.09592,1.0427 10.14899,2.31402 15.28818,3.12958 2.97727,0.45279 6.34384,0.6517 8.91004,-1.21609 2.63114,-1.87469 3.87244,-4.9808 5.77095,-7.48023 0.39122,-0.17251 0.91397,0.20103 1.33506,0.27671 0.80954,0.3017 1.67836,0.5322 2.43992,0.91112 -0.28638,2.65648 -1.05295,5.25631 -1.28568,7.91494 0.13569,1.65942 1.87227,2.40922 3.23294,2.91514 1.04001,0.3749 2.1198,0.62003 3.18555,0.9082 -0.16664,5.27387 -0.25156,10.5893 -0.49446,15.80338 -0.15548,1.6868 -0.0784,3.48855 -0.84929,5.03842 -0.79509,0.96325 -1.84567,1.69334 -2.59948,2.7041 -2.95695,3.55094 -5.57818,7.38955 -7.82133,11.42894 -1.46144,2.59621 -2.04926,5.58091 -2.06232,8.53831 -0.062,2.76762 -0.11156,5.53553 -0.16922,8.30326 2.68951,0.0472 5.38748,-0.0998 8.07144,0.0827 2.3592,0.24331 4.98607,1.54188 5.58481,4.02863 0.45089,1.96621 -0.60429,3.82372 -0.95142,5.71855 -0.11549,0.61499 -0.41106,1.26509 0.0178,1.82442 0.18715,0.80037 1.06419,1.1286 1.79883,1.25195 2.34342,0.0442 4.61697,-0.6718 6.92843,-0.96375 1.66849,-0.26559 3.3359,-0.5381 5.00712,-0.78625 -0.61344,4.7062 -1.38331,9.44683 -2.36473,14.12516 -0.45542,0.87716 0.31325,0.74726 0.95887,0.71859 h 12.10507 c 1.36693,3.12202 2.73018,6.24565 4.09375,9.36914 2.78929,-2.16893 5.47223,-4.48005 8.35938,-6.51953 0.67683,3.08358 0.68881,6.32356 1.87891,9.28906 0.45004,1.0383 1.60603,1.46002 2.67578,1.35547 2.77813,-0.20324 5.53235,-0.79807 8.17968,-1.65625 1.50257,-0.48352 2.86675,-1.79149 2.81129,-3.46328 -0.11471,-1.62181 -0.50355,-3.2192 -0.64526,-4.84299 -0.15907,-1.25086 -0.29264,-2.51648 -0.41603,-3.71717 -0.0692,-0.78822 -0.15702,-1.57173 -0.20194,-2.25066 -0.0672,-0.98464 -0.18558,-2.19475 0.76267,-2.82068 1.79744,-1.60128 3.89212,-2.96238 6.2969,-3.40246 3.15442,-0.67191 6.42942,-0.33925 9.55448,0.33123 0.70947,0.15863 1.71583,0.40699 2.52668,0.64512 3.15855,0.96303 6.26828,2.07932 9.40301,3.11659 1.66712,-1.74833 3.17701,-3.65531 4.9668,-5.28125 1.302,-1.22136 3.15931,-1.16851 4.82031,-1.17773 1.77108,-0.0126 3.64869,-0.70399 4.57617,-2.30078 0.79362,-1.26334 1.0237,-2.91888 2.35581,-3.79382 2.57819,-1.84757 5.9779,-1.88445 8.99655,-1.41716 2.56568,0.44733 5.06549,1.33389 7.3488,2.57873 0.91579,0.64317 0.77736,1.93504 0.9678,2.91933 0.2523,2.22693 0.47521,4.45714 0.71385,6.68557 6.45352,2.3442 12.78379,5.09152 19.44935,6.79907 1.81378,0.5028 3.77886,0.83031 5.58972,0.12476 2.48026,-0.87658 4.75232,-2.67197 5.88281,-5.05273 1.87493,1.70641 4.52733,2.06127 6.94336,2.39453 3.70036,0.40118 7.44053,0.24554 11.13086,-0.17383 0.5487,2.72322 0.63897,5.5322 1.38843,8.22062 0.78754,3.28734 2.46719,6.54913 5.42104,8.37373 1.14885,0.78137 2.42048,1.66157 3.87608,1.55214 -3.9859,1.02019 -8.00418,2.37763 -11.23064,5.02189 -3.68232,2.98215 -6.80718,6.57063 -10.16776,9.89589 -0.42443,0.43306 -0.84896,0.86603 -1.27348,1.29901 0.84982,3.18928 1.47412,6.44534 2.52092,9.57794 0.66779,2.12133 2.26529,3.9397 4.37988,4.69296 2.21254,0.8336 4.54553,1.3496 6.8824,1.68613 2.04959,0.29451 4.12071,-0.40738 5.70709,-1.7036 1.11997,-0.79658 2.42568,-1.40323 3.81635,-1.43311 1.60377,-0.24572 3.02361,-1.60677 3.06898,-3.2718 0.70117,-2.01478 2.42865,-3.45644 3.16356,-5.46198 0.59617,-1.254 0.82191,-2.62904 0.92957,-3.99865 0.21814,-1.37885 1.08417,-2.4823 1.77344,-3.64648 0.65669,-1.21133 1.042,-2.56715 1.14844,-3.92969 0.44285,-0.64421 1.38478,-0.50206 1.99414,-0.92773 1.41515,-0.60648 2.23695,-2.29714 1.69336,-3.76563 -0.78345,-2.13268 -2.52318,-3.71111 -3.85352,-5.50195 -0.41817,-0.41229 -0.68188,-1.28705 -1.38455,-0.84754 -2.67343,0.67472 -5.34962,1.34124 -8.0217,2.01941 1.26494,-0.66175 2.26109,-1.83866 2.84961,-3.1289 0.79508,-2.04657 -0.36696,-4.11939 -1.2618,-5.91875 -0.72733,-1.66101 -1.71704,-3.38757 -1.54289,-5.26094 0.38858,-1.55014 1.74605,-2.61606 2.9468,-3.56181 2.42385,-1.71938 5.19004,-2.88807 8.02957,-3.72315 2.45911,-0.93235 4.97873,-2.02145 6.82276,-3.95678 1.33087,-1.10811 3.12882,-1.00564 4.74679,-1.12336 1.72228,-0.16928 3.63334,-0.8921 4.39744,-2.56068 1.01074,-0.58726 2.25559,-0.23591 3.32422,-0.67969 3.52648,-1.15352 6.38535,-3.65296 9.16211,-6.01953 1.4077,-1.33228 3.35036,-2.61004 3.43992,-4.74639 0.0367,-2.12411 -1.13704,-4.01075 -1.75142,-5.98811 -0.38832,-1.02612 -0.65315,-2.22373 -0.007,-3.21081 0.23155,-0.44633 0.57092,-1.27157 0.70312,-0.33789 1.1641,2.44887 3.17178,4.37779 5.17774,6.15039 1.43574,1.1231 3.00414,2.46671 4.92525,2.46891 1.88182,-0.21888 3.10439,-1.91571 4.11186,-3.35368 0.68553,-1.08518 1.37445,-2.66111 2.87891,-2.64062 1.87052,-0.0308 4.0472,-0.97787 4.82812,-2.83789 2.08156,-0.26195 4.25916,0.65995 6.2832,-0.22461 1.31824,-0.51391 1.98984,-1.82874 2.50486,-3.05312 1.07034,-1.28308 2.92033,-1.13827 4.39993,-1.54506 2.64449,-0.60707 5.51986,-1.31189 7.42139,-3.38815 0.85218,-0.92694 1.17276,-2.19183 1.18554,-3.42188 0.63744,-2.62476 2.2218,-4.90661 3.8338,-7.02877 1.09979,-1.31164 2.22109,-2.75277 3.80097,-3.49662 1.96135,-0.13581 3.22503,-1.90208 4.27817,-3.36656 1.84546,-2.72467 3.18652,-5.79631 3.85231,-9.02152 0.22974,-1.12957 1.27356,-1.73945 2.29156,-2.05024 2.1357,-1.08986 3.55778,-3.13737 4.95243,-5.01632 1.95073,-2.85763 3.78562,-5.8882 4.72318,-9.24458 0.2275,-0.95356 0.18283,-1.9561 0.64364,-2.85195 1.03502,-2.91089 3.01721,-5.49308 3.44363,-8.60521 0.25145,-1.55245 -0.7055,-3.23326 -2.265,-3.62487 1.77522,-1.83292 2.46082,-4.47338 2.28852,-6.9729 0.25295,-2.72466 1.72193,-5.13894 3.06611,-7.4571 2.45229,-4.07714 4.80419,-8.51389 4.93929,-13.37742 0.082,-1.3884 -0.25441,-2.74398 -0.47556,-4.09883 0.22084,-1.20766 1.29305,-2.02936 2.06386,-2.91467 2.94834,-2.9181 6.02778,-5.69549 9.05919,-8.57361 -1.09323,-2.82201 -2.53641,-5.52964 -3.25306,-8.48329 -0.45593,-1.71898 -0.15754,-3.61622 0.94642,-5.03233 1.14423,-1.58972 1.92055,-3.90312 0.70507,-5.66993 -0.5913,-0.95217 -1.75539,-1.42652 -2.76172,-1.61914 0.35442,-2.10585 -0.93911,-4.099 -2.65102,-5.2139 -1.50684,-0.94395 -3.05287,-2.10079 -4.8884,-2.21127 -2.25955,-0.008 -3.97185,1.7061 -5.80383,2.78768 -1.35199,0.77559 -2.86295,1.76253 -4.48878,1.46757 2.48573,-3.08681 5.57914,-5.60241 8.38809,-8.37639 2.22494,-2.22418 4.64882,-4.41713 6.00059,-7.31306 0.86884,-1.81377 0.55112,-4.12359 -0.91266,-5.53687 -2.21565,-2.19373 -5.28861,-3.13161 -8.09535,-4.31805 -0.72297,-0.23923 -0.9424,-0.38537 -0.0451,-0.34163 1.85283,-0.12925 3.97555,-0.0928 5.44176,-1.40697 1.07712,-1.04618 0.87826,-2.86256 -0.19141,-3.83984 -1.5247,-1.48691 -3.65137,-2.11029 -5.24553,-3.51559 -1.39183,-1.04335 -2.41881,-2.54626 -4.04911,-3.26834 -1.14957,-0.64613 -2.4553,-0.92785 -3.76005,-0.9856 -1.4806,-0.55922 -1.9485,-2.25789 -2.79948,-3.44517 -3.24848,-5.10779 -6.61121,-10.14905 -10.18489,-15.0353 -1.58561,-2.15888 -3.60398,-4.08559 -6.15225,-5.03582 -3.23841,-1.33829 -6.73096,-2.03625 -9.85361,-3.65363 -0.75327,-0.36484 -1.4203,-1.08974 -1.22811,-1.98857 0.35579,-2.63019 1.58865,-5.03524 2.56239,-7.47661 1.53887,-3.58261 3.08958,-7.22713 3.73023,-11.09477 -0.0343,-0.5255 0.0235,-0.83683 0.60762,-0.61648 2.14692,0.17494 4.01287,-1.43464 4.77123,-3.34506 0.98655,-2.16655 0.92381,-4.58218 1.17112,-6.8974 -0.0897,-0.59171 0.58685,-0.43926 0.92849,-0.66314 2.37195,-1.06098 4.13904,-3.01859 6.02039,-4.73995 1.48729,-1.24615 3.13514,-2.43282 5.08253,-2.79069 2.39695,-0.63388 4.62152,-2.42682 5.13798,-4.94058 0.43408,-2.15608 0.30566,-4.73277 -1.31317,-6.39402 -1.73625,-1.71129 -4.42117,-1.547 -6.60425,-0.98065 -2.64121,0.64467 -5.10557,2.0492 -7.88323,2.0773 -1.81314,0.10553 -3.62988,-0.42117 -5.09215,-1.49867 -2.56772,-1.38458 -6.0047,-1.18537 -8.31099,0.6364 -0.87538,0.71195 -1.39172,1.78567 -1.5,2.89257 -1.13193,2.27303 -3.17068,3.95811 -4.17059,6.31447 -0.47342,0.93451 -0.76909,1.9587 -0.83332,2.99999 -0.76377,1.07501 -2.2968,1.1824 -3.50977,1.11328 -1.39174,-0.19992 -2.82552,-0.73278 -3.83912,-1.73135 -0.95719,-1.33873 -0.3378,-3.10263 -0.9005,-4.58137 -0.71288,-2.48639 -2.30246,-4.9658 -4.77405,-5.9783 -1.15597,-0.45663 -2.44789,-0.19182 -3.46491,0.47115 -2.29587,0.76931 -4.85582,0.42968 -7.09278,-0.38974 -1.24593,-0.52114 -2.55376,-1.35931 -3.05404,-2.67103 -0.45351,-1.87196 -0.33652,-3.83576 -0.25396,-5.74565 0.16467,-1.24921 0.23426,-2.67685 1.09812,-3.66668 0.84684,0.33728 1.64307,0.9258 2.60771,0.89298 2.38118,0.0425 4.37555,-1.50697 6.28191,-2.73756 2.39399,-1.61952 4.92281,-3.60252 5.58471,-6.57648 0.3929,-1.34893 0.25817,-2.76929 0.43582,-4.14144 0.74722,-2.12267 2.53144,-3.64452 4.06836,-5.20508 3.25059,-3.06897 5.92396,-6.8338 7.27561,-11.12585 0.6497,-1.92626 1.85134,-3.67843 3.59444,-4.76651 1.22823,-0.84016 2.58489,-1.61646 3.79697,-2.27726 0.92947,-0.43121 1.89197,-1.10573 2.95212,-1.01007 1.1041,0.52028 1.04601,1.9392 1.17202,2.97532 0.13607,3.11738 -0.32465,6.337 -1.68908,9.16503 -0.92249,1.87581 -2.21225,3.78513 -2.0845,5.96122 0.12899,1.88498 1.8528,3.06399 3.44726,3.72656 1.14732,0.388 1.71155,1.78529 1.14105,2.85591 -0.60421,1.33002 -2.04093,2.00109 -2.74066,3.2769 -0.99139,1.41838 -1.52866,3.60774 -0.20898,4.9961 1.17202,1.26892 3.20455,1.05551 4.51457,0.11667 2.49936,-1.7037 4.54533,-4.06952 5.9991,-6.71433 0.44252,-0.79252 0.62742,-1.68628 0.74219,-2.57031 1.066,-2.29995 2.83825,-4.18187 4.50788,-6.05736 3.03011,-3.30614 6.44419,-6.2304 9.99603,-8.95827 2.3815,-1.90125 4.39689,-4.39895 5.15494,-7.39977 0.91133,-3.64282 3.46883,-6.53969 5.8255,-9.34645 1.71535,-2.03568 3.62839,-3.89817 5.36707,-5.90867 1.88161,-2.73916 2.29551,-6.14991 2.71007,-9.36646 0.35385,-2.53361 0.68703,-5.22753 2.17008,-7.38551 0.70166,-1.09193 2.14571,-1.16998 3.26056,-0.75877 3.29884,1.18089 6.97606,1.29659 10.35928,0.41377 1.66013,-0.41761 3.51198,-1.55087 3.58554,-3.44712 -0.052,-2.04862 -1.57632,-3.6805 -2.97797,-5.01977 -0.4608,-0.54657 -1.12414,-1.30298 -0.87109,-2.06055 0.78958,-0.46095 1.74443,-0.63392 2.52948,-1.1361 2.60283,-1.46133 5.06532,-3.59769 6.0838,-6.48108 0.35423,-1.13058 0.099,-2.45715 0.95537,-3.40896 1.42321,-1.11428 2.03621,-2.95887 1.95284,-4.72386 -0.0285,-1.64243 -0.36607,-3.25684 -0.54688,-4.88476 1.33567,-0.0345 2.91268,0.10526 3.80273,1.23047 1.31374,1.17569 2.99247,1.78964 4.63868,2.32226 0.62187,0.15566 0.42981,0.79451 0.63243,1.24864 0.48575,1.60712 2.47758,2.47368 3.97694,1.70058 1.80976,-0.84813 2.31935,-3.16629 1.82377,-4.96248 -0.13929,-0.77266 -0.30642,-1.55297 -0.27299,-2.34221 1.39799,-0.41154 3.01617,-0.74815 3.84117,-2.08968 1.18581,-1.88349 1.0205,-4.22536 1.20808,-6.35933 0.0789,-1.47014 0.14446,-2.94165 0.21833,-4.41231 1.04208,-0.008 2.0931,-0.12469 3.12891,0.0332 0.63051,1.79085 2.68299,2.36931 4.39241,2.50972 3.2318,0.2349 6.55666,-0.18454 9.56657,-1.41206 2.27516,-0.87056 3.57208,-3.04829 4.91992,-4.93555 2.96594,-4.53876 5.62261,-9.3068 7.65821,-14.33789 0.50933,-1.37511 1.04799,-2.87213 0.6289,-4.33984 -0.0699,-1.09932 0.98593,-1.76709 1.17188,-2.80274 0.99064,-3.23226 -0.29506,-6.55887 0.0247,-9.84007 0.11967,-2.82051 1.41115,-5.38329 1.99067,-8.11028 1.89716,-7.98849 2.6105,-16.206 2.99942,-24.39047 0.31317,-6.67516 0.15493,-13.35842 -0.0604,-20.03374 -0.0862,-4.49324 -0.10048,-9.02383 0.13241,-13.45201 0.0983,-3.05154 0.62052,-6.0204 1.00106,-9.0328 0.14418,-2.07871 0.51845,-4.33612 -0.4434,-6.27831 -1.42253,-2.02984 -1.54542,-4.60229 -2.5598,-6.8169 -2.17293,-5.35288 -4.72366,-10.555233 -7.57181,-15.580741 -0.84107,-1.381698 -1.62922,-2.887192 -3.00702,-3.810385 -1.642,-1.873917 -2.41457,-4.318801 -3.26407,-6.617746 -2.33686,-6.740569 -3.60517,-13.785839 -5.6832,-20.601004 -0.6538,-1.948479 -1.44254,-4.274057 -3.56055,-5.042969 -0.81401,-0.239089 -1.75643,-0.323303 -2.27587,-1.101113 -0.5736,-0.990274 -0.96729,-2.099297 -1.69699,-3.006122 -0.53335,-0.908277 -1.45797,-1.488109 -2.01542,-2.361515 -0.74934,-1.23773 -0.25197,-2.782774 -0.97265,-4.035157 -1.10367,-2.284329 -3.76065,-3.036989 -6.04102,-3.5625 -2.72041,-0.665744 -5.56707,-0.708543 -8.24626,-1.542155 -0.52786,-0.09519 -0.36413,-0.832489 -0.74983,-1.137532 -1.2261,-1.638185 -3.495,-1.656764 -5.35294,-1.701772 -0.32115,-0.0041 -0.64237,0.01496 -0.96347,0.02013 z"
       sodipodi:nodetypes="cccccccccccccccccccccccccccccccccccccccccccccccccccccccccccccccccccccccccccccccccccccccccccccccccccccccccccccccccccccccccccccccccccccccccccccccccccccccccccccccccccccccccccccccccccccccccccccccccccccccccccccccccccccccccccccccccccccccccccccccccccccccccccccccccccccccccccccccccccccccccccccccccccccccccccccccccccccccccccccccccccccccccccccccccccccccccccccccccccccccccccccccccccccccccccccccccccccccccccccccccccccccccccccccccccccccccccccccccccccccccccccccccccc" />
    <text
       xml:space="preserve"
       style="font-size:26.6667px;line-height:1.25;font-family:sans-serif;stroke-width:0.5;"
       x="691.68457"
       y="316.41626"
       id="text357"><tspan
         sodipodi:role="line"
         id="tspan355"
         x="691.68457"
         y="316.41626"
         style="font-style:normal;font-variant:normal;font-weight:normal;font-stretch:normal;font-size:26.6667px;font-family:DFPBangBangW5-B5;-inkscape-font-specification:DFPBangBangW5-B5;fill:#ffffff;stroke:#000000;stroke-width:0.5;stroke-opacity:1;">宸</tspan><tspan
         sodipodi:role="line"
         x="691.68457"
         y="350.10834"
         style="font-style:normal;font-variant:normal;font-weight:normal;font-stretch:normal;font-size:26.6667px;font-family:DFPBangBangW5-B5;-inkscape-font-specification:DFPBangBangW5-B5;fill:#ffffff;stroke:#000000;stroke-width:0.5;stroke-opacity:1;"
         id="tspan359">　 楓</tspan></text>
    <text
       xml:space="preserve"
       style="font-size:80px;line-height:1.25;font-family:sans-serif;stroke-width:0.5"
       x="271.55618"
       y="384.48697"
       id="text363"><tspan
         sodipodi:role="line"
         id="tspan361"
         x="271.55618"
         y="384.48697"
         style="font-style:normal;font-variant:normal;font-weight:normal;font-stretch:normal;font-family:DFPBangBangW5-B5;-inkscape-font-specification:DFPBangBangW5-B5;fill:#000000;fill-opacity:1;stroke:#ffffff;stroke-width:0.5;stroke-opacity:1">夜秦</tspan></text>
    <text
       xml:space="preserve"
       style="font-size:80px;line-height:1.25;font-family:sans-serif;fill:#ffffff;stroke-width:0.5;"
       x="219.63696"
       y="96.325676"
       id="text363-4"><tspan
         sodipodi:role="line"
         id="tspan361-7"
         x="219.63696"
         y="96.325676"
         style="font-style:normal;font-variant:normal;font-weight:normal;font-stretch:normal;font-family:DFPBangBangW5-B5;-inkscape-font-specification:DFPBangBangW5-B5;fill:#ffffff;stroke:#000000;stroke-width:0.5;stroke-opacity:1;">大渝</tspan></text>
    <text
       xml:space="preserve"
       style="font-size:80px;line-height:1.25;font-family:sans-serif;fill:#ffffff;stroke-width:0.5;"
       x="16.398661"
       y="508.2962"
       id="text363-4-9"><tspan
         sodipodi:role="line"
         id="tspan361-7-1"
         x="16.398661"
         y="508.2962"
         style="font-style:normal;font-variant:normal;font-weight:normal;font-stretch:normal;font-family:DFPBangBangW5-B5;-inkscape-font-specification:DFPBangBangW5-B5;fill:#ffffff;stroke:#000000;stroke-width:0.5;stroke-opacity:1;">漠</tspan><tspan
         sodipodi:role="line"
         x="16.398661"
         y="609.37225"
         style="font-style:normal;font-variant:normal;font-weight:normal;font-stretch:normal;font-family:DFPBangBangW5-B5;-inkscape-font-specification:DFPBangBangW5-B5;fill:#ffffff;stroke:#000000;stroke-width:0.5;stroke-opacity:1;"
         id="tspan401">　蒼</tspan></text>
    <text
       xml:space="preserve"
       style="font-size:26.6667px;line-height:1.25;font-family:sans-serif;stroke-width:0.5;"
       x="691.48444"
       y="557.96783"
       id="text405"><tspan
         sodipodi:role="line"
         id="tspan403"
         x="691.48444"
         y="557.96783"
         style="font-style:normal;font-variant:normal;font-weight:normal;font-stretch:normal;font-size:26.6667px;font-family:DFPBangBangW5-B5;-inkscape-font-specification:DFPBangBangW5-B5;fill:#ffffff;fill-opacity:1;stroke:#000000;stroke-width:0.5;">東</tspan><tspan
         sodipodi:role="line"
         x="691.48444"
         y="591.65991"
         style="font-style:normal;font-variant:normal;font-weight:normal;font-stretch:normal;font-size:26.6667px;font-family:DFPBangBangW5-B5;-inkscape-font-specification:DFPBangBangW5-B5;fill:#ffffff;fill-opacity:1;stroke:#000000;stroke-width:0.5;"
         id="tspan407">寧</tspan></text>
    <text
       xml:space="preserve"
       style="font-size:26.6667px;line-height:1.25;font-family:sans-serif;stroke-width:0.5"
       x="713.0155"
       y="666.69714"
       id="text405-7"><tspan
         sodipodi:role="line"
         x="713.0155"
         y="666.69714"
         style="font-style:normal;font-variant:normal;font-weight:normal;font-stretch:normal;font-size:26.6667px;font-family:DFPBangBangW5-B5;-inkscape-font-specification:DFPBangBangW5-B5;fill:#ffffff;fill-opacity:1;stroke:#000000;stroke-width:0.5"
         id="tspan407-7">洛</tspan><tspan
         sodipodi:role="line"
         x="713.0155"
         y="700.38922"
         style="font-style:normal;font-variant:normal;font-weight:normal;font-stretch:normal;font-size:26.6667px;font-family:DFPBangBangW5-B5;-inkscape-font-specification:DFPBangBangW5-B5;fill:#ffffff;fill-opacity:1;stroke:#000000;stroke-width:0.5"
         id="tspan432">珈</tspan></text>
    <path
       id="path443"
       style="fill:#ff0000"
       d="m 678.88791,530.24779 c 0.25295,-2.72466 1.72193,-5.13894 3.06611,-7.4571 2.45229,-4.07714 4.80419,-8.51389 4.93929,-13.37742 0.082,-1.3884 -0.25441,-2.74398 -0.47556,-4.09883 0.22084,-1.20766 1.29305,-2.02936 2.06386,-2.91467 2.94834,-2.9181 6.02778,-5.69549 9.05919,-8.57361 -1.09323,-2.82201 -2.53641,-5.52964 -3.25306,-8.48329 -0.45593,-1.71898 -0.15754,-3.61622 0.94642,-5.03233 1.14423,-1.58972 1.92055,-3.90312 0.70507,-5.66993 -0.5913,-0.95217 -1.75539,-1.42652 -2.76172,-1.61914 0.35442,-2.10585 -0.93911,-4.099 -2.65102,-5.2139 -1.50684,-0.94395 -3.05287,-2.10079 -4.8884,-2.21127 -2.25955,-0.008 -3.97185,1.7061 -5.80383,2.78768 -1.35199,0.77559 -2.86295,1.76253 -4.48878,1.46757 2.48573,-3.08681 5.57914,-5.60241 8.38809,-8.37639 2.22494,-2.22418 4.64882,-4.41713 6.00059,-7.31306 0.86884,-1.81377 0.55112,-4.12359 -0.91266,-5.53687 -2.21565,-2.19373 -5.28861,-3.13161 -8.09535,-4.31805 -0.72297,-0.23923 -0.9424,-0.38537 -0.0451,-0.34163 1.85283,-0.12925 3.97555,-0.0928 5.44176,-1.40697 1.07712,-1.04618 0.87826,-2.86256 -0.19141,-3.83984 -1.5247,-1.48691 -3.65137,-2.11029 -5.24553,-3.51559 -1.39183,-1.04335 -2.41881,-2.54626 -4.04911,-3.26834 -1.14957,-0.64613 -2.4553,-0.92785 -3.76005,-0.9856 -1.4806,-0.55922 -1.9485,-2.25789 -2.79948,-3.44517 -3.24848,-5.10779 -6.61121,-10.14905 -10.18489,-15.0353 -1.58561,-2.15888 -3.60398,-4.08559 -6.15225,-5.03582 -3.23841,-1.33829 -6.73096,-2.03625 -9.85361,-3.65363 -0.75327,-0.36484 -22.02968,7.1212 -21.83749,6.22237 -81.50401,-3.30875 -70.04793,3.64608 -112.88073,1.97609 -36.95531,-1.44082 -57.99206,82.92792 -58.0822,102.13042 -0.0577,12.29884 61.86667,9.33105 65.41419,10.31699 134.11062,-6.68122 137.39888,19.40946 162.38766,5.82263 z"
       sodipodi:nodetypes="cccccccccccccccccccccccccccccsscc" />
    <text
       xml:space="preserve"
       style="font-size:66.6667px;line-height:1.25;font-family:sans-serif;stroke-width:0.5"
       x="475.52643"
       y="492.56268"
       id="text363-9"><tspan
         sodipodi:role="line"
         id="tspan361-6"
         x="475.52643"
         y="492.56268"
         style="font-style:normal;font-variant:normal;font-weight:normal;font-stretch:normal;font-size:66.6667px;font-family:DFPBangBangW5-B5;-inkscape-font-specification:DFPBangBangW5-B5;fill:#ffffff;fill-opacity:1;stroke:#000000;stroke-width:0.5;stroke-opacity:1">病夫國</tspan></text>
  </g>
</svg>
