<?xml version="1.0" encoding="UTF-8" standalone="no"?>
<svg
   xmlns:dc="http://purl.org/dc/elements/1.1/"
   xmlns:cc="http://creativecommons.org/ns#"
   xmlns:rdf="http://www.w3.org/1999/02/22-rdf-syntax-ns#"
   xmlns:svg="http://www.w3.org/2000/svg"
   xmlns="http://www.w3.org/2000/svg"
   xmlns:sodipodi="http://sodipodi.sourceforge.net/DTD/sodipodi-0.dtd"
   xmlns:inkscape="http://www.inkscape.org/namespaces/inkscape"
   version="1.1"
   id="Layer_1"
   x="0px"
   y="0px"
   viewBox="0 0 512 512"
   style="enable-background:new 0 0 512 512;"
   xml:space="preserve"
   sodipodi:docname="SickManEmpireGroup.svg"
   inkscape:version="1.0.1 (3bc2e813f5, 2020-09-07)">

<metadata id="metadata"><rdf:RDF>
<cc:Work rdf:about=""><dc:format>image/svg+xml</dc:format><dc:type rdf:resource="http://purl.org/dc/dcmitype/StillImage" /><dc:title>SickManEmpireGroup</dc:title>
</cc:Work></rdf:RDF></metadata>

<defs></defs>

<sodipodi:namedview
   pagecolor="#ffffff"
   bordercolor="#666666"
   borderopacity="1"
   objecttolerance="10"
   gridtolerance="10"
   guidetolerance="10"
   inkscape:pageopacity="0"
   inkscape:pageshadow="2"
   inkscape:window-width="1920"
   inkscape:window-height="1001"
   id="namedview375"
   showgrid="false"
   inkscape:zoom="1.4863281"
   inkscape:cx="256"
   inkscape:cy="256"
   inkscape:window-x="-9"
   inkscape:window-y="-9"
   inkscape:window-maximized="1"
   inkscape:current-layer="Layer_1"
   inkscape:document-rotation="0" />
<style type="text/css" id="style2">
   .st0{fill:#CCCCCC;}
   .st1{fill:#265572;}
   .st2{fill:#FFFFFF;}
   .st3{opacity:0.5;fill:#FFFFFF;enable-background:new;}
   .st4{opacity:0.7;fill:#FFFFFF;enable-background:new;}
   .st5{opacity:0.59;fill:#FFFFFF;enable-background:new;}
   .st6{opacity:0.44;fill:#FFFFFF;enable-background:new;}
   .st7{fill:#F2F2F2;}
</style>
<title
   id="title">SickManEmpireGroup Logo</title>
<circle
   class="st0"
   cx="256"
   cy="256"
   r="256"
   id="circle6" />
<circle
   class="st1"
   cx="256"
   cy="256"
   r="245.1"
   id="circle8"
   style="fill:#0066ff" />
<g
   id="g320">
   <circle
   class="st2"
   cx="299.2"
   cy="98.6"
   r="4"
   id="circle10" />
   <circle
   class="st2"
   cx="248.9"
   cy="122.7"
   r="3.1"
   id="circle12" />
   <circle
   class="st2"
   cx="235.2"
   cy="62.5"
   r="3.1"
   id="circle14" />
   <circle
   class="st3"
   cx="258.4"
   cy="84.7"
   r="4.4"
   id="circle16" />
   <circle
   class="st2"
   cx="233.6"
   cy="161.9"
   r="1.9"
   id="circle18" />
   <circle
   class="st3"
   cx="201.5"
   cy="135.6"
   r="4.1"
   id="circle20" />
   <circle
   class="st2"
   cx="291.1"
   cy="168"
   r="1.3"
   id="circle22" />
   <circle
   class="st2"
   cx="314.7"
   cy="143.1"
   r="1.1"
   id="circle24" />
   <circle
   class="st2"
   cx="338.7"
   cy="115.4"
   r="2.2"
   id="circle26" />
   <circle
   class="st2"
   cx="205.8"
   cy="111.5"
   r="1.6"
   id="circle28" />
   <circle
   class="st2"
   cx="204.2"
   cy="181.1"
   r="1.4"
   id="circle30" />
   <circle
   class="st2"
   cx="294.6"
   cy="40.4"
   r="2.2"
   id="circle32" />
   <circle
   class="st2"
   cx="260.6"
   cy="154.6"
   r="2.2"
   id="circle34" />
   <circle
   class="st2"
   cx="306.1"
   cy="181.8"
   r="0.7"
   id="circle36" />
   <circle
   class="st2"
   cx="263.6"
   cy="24.4"
   r="1.9"
   id="circle38" />
   <circle
   class="st2"
   cx="321.1"
   cy="30.6"
   r="1.3"
   id="circle40" />
   <circle
   class="st2"
   cx="290.6"
   cy="17.1"
   r="2.2"
   id="circle42" />
   <circle
   class="st2"
   cx="336.1"
   cy="44.3"
   r="0.7"
   id="circle44" />
   <circle
   class="st2"
   cx="177.9"
   cy="150.5"
   r="1.9"
   id="circle46" />
   <circle
   class="st2"
   cx="155.4"
   cy="62.5"
   r="1.9"
   id="circle48" />
   <circle
   class="st2"
   cx="153.2"
   cy="93.5"
   r="2.2"
   id="circle50" />
   <circle
   class="st2"
   cx="179.1"
   cy="69.5"
   r="3.1"
   id="circle52" />
   <circle
   class="st2"
   cx="146"
   cy="125.4"
   r="2.7"
   id="circle54" />
   <circle
   class="st2"
   cx="473.7"
   cy="200.8"
   r="2"
   id="circle56" />
   <circle
   class="st2"
   cx="465"
   cy="142"
   r="2"
   id="circle58" />
   <circle
   class="st2"
   cx="219.3"
   cy="19.3"
   r="2"
   id="circle60" />
   <circle
   class="st2"
   cx="294.6"
   cy="202.9"
   r="2.2"
   id="circle62" />
   <circle
   class="st2"
   cx="389.7"
   cy="212.1"
   r="1.9"
   id="circle64" />
   <circle
   class="st2"
   cx="310.7"
   cy="66.4"
   r="1.9"
   id="circle66" />
   <circle
   class="st2"
   cx="447.2"
   cy="218.2"
   r="1.3"
   id="circle68" />
   <circle
   class="st2"
   cx="362.1"
   cy="52.6"
   r="1.4"
   id="circle70" />
   <circle
   class="st2"
   cx="391.6"
   cy="62.5"
   r="2.2"
   id="circle72" />
   <circle
   class="st2"
   cx="245.8"
   cy="35.8"
   r="0.7"
   id="circle74" />
   <circle
   class="st2"
   cx="340.4"
   cy="62.5"
   r="3.9"
   id="circle76" />
   <circle
   class="st2"
   cx="284"
   cy="56.1"
   r="1.7"
   id="circle78" />
   <circle
   class="st3"
   cx="222.9"
   cy="47"
   r="4.8"
   id="circle80" />
   <circle
   class="st4"
   cx="95.8"
   cy="88"
   r="3.3"
   id="circle82" />
   <circle
   class="st2"
   cx="129.8"
   cy="59.2"
   r="1.3"
   id="circle84" />
   <circle
   class="st4"
   cx="100.2"
   cy="127.1"
   r="4.4"
   id="circle86" />
   <circle
   class="st2"
   cx="129.8"
   cy="86"
   r="1.3"
   id="circle88" />
   <circle
   class="st2"
   cx="192.1"
   cy="26.4"
   r="1.3"
   id="circle90" />
   <circle
   class="st2"
   cx="131.8"
   cy="152.5"
   r="2"
   id="circle92" />
   <circle
   class="st2"
   cx="172.8"
   cy="185.9"
   r="2"
   id="circle94" />
   <circle
   class="st2"
   cx="102.4"
   cy="163.3"
   r="3.4"
   id="circle96" />
   <circle
   class="st2"
   cx="185.3"
   cy="52.9"
   r="1.2"
   id="circle98" />
   <circle
   class="st2"
   cx="195.4"
   cy="65.6"
   r="1.2"
   id="circle100" />
   <circle
   class="st2"
   cx="202.8"
   cy="51.8"
   r="1.2"
   id="circle102" />
   <circle
   class="st2"
   cx="111.5"
   cy="196.6"
   r="2.2"
   id="circle104" />
   <circle
   class="st2"
   cx="28.7"
   cy="192.5"
   r="1.9"
   id="circle106" />
   <circle
   class="st2"
   cx="310.6"
   cy="86.4"
   r="1.9"
   id="circle108" />
   <circle
   class="st2"
   cx="335.3"
   cy="189.2"
   r="3.3"
   id="circle110" />
   <circle
   class="st2"
   cx="370.2"
   cy="93"
   r="1.6"
   id="circle112" />
   <circle
   class="st2"
   cx="382"
   cy="130.4"
   r="3.3"
   id="circle114" />
   <circle
   class="st2"
   cx="57.8"
   cy="168.8"
   r="2"
   id="circle116" />
   <circle
   class="st2"
   cx="451.1"
   cy="138"
   r="2.7"
   id="circle118" />
   <circle
   class="st3"
   cx="405.3"
   cy="139.7"
   r="4.4"
   id="circle120" />
   <circle
   class="st2"
   cx="434.9"
   cy="98.7"
   r="1.3"
   id="circle122" />
   <circle
   class="st2"
   cx="437"
   cy="165.2"
   r="2"
   id="circle124" />
   <circle
   class="st2"
   cx="407.6"
   cy="176"
   r="3.4"
   id="circle126" />
   <circle
   class="st3"
   cx="447"
   cy="200.4"
   r="4.1"
   id="circle128" />
   <circle
   class="st2"
   cx="362.9"
   cy="181.4"
   r="2"
   id="circle130" />
   <circle
   class="st2"
   cx="164"
   cy="53.3"
   r="2"
   id="circle132" />
   <circle
   class="st2"
   cx="137.6"
   cy="70.8"
   r="1.3"
   id="circle134" />
   <circle
   class="st2"
   cx="113.7"
   cy="74"
   r="1.3"
   id="circle136" />
   <circle
   class="st2"
   cx="164.2"
   cy="128.1"
   r="1.3"
   id="circle138" />
   <circle
   class="st5"
   cx="102.7"
   cy="88.6"
   r="2.2"
   id="circle140" />
   <circle
   class="st2"
   cx="152.6"
   cy="84.5"
   r="0.7"
   id="circle142" />
   <circle
   class="st2"
   cx="75"
   cy="140.3"
   r="1.9"
   id="circle144" />
   <circle
   class="st2"
   cx="72.8"
   cy="171.3"
   r="2.2"
   id="circle146" />
   <circle
   class="st2"
   cx="49.4"
   cy="137"
   r="1.3"
   id="circle148" />
   <circle
   class="st2"
   cx="49.4"
   cy="163.8"
   r="1.3"
   id="circle150" />
   <circle
   class="st2"
   cx="57.2"
   cy="148.6"
   r="1.3"
   id="circle152" />
   <circle
   class="st2"
   cx="72.2"
   cy="162.3"
   r="0.7"
   id="circle154" />
   <circle
   class="st2"
   cx="73"
   cy="115.4"
   r="0.7"
   id="circle156" />
   <circle
   class="st2"
   cx="141.1"
   cy="105.7"
   r="2.2"
   id="circle158" />
   
      <ellipse
   transform="matrix(0.2298 -0.9732 0.9732 0.2298 144.9036 289.8936)"
   class="st2"
   cx="255.6"
   cy="53.4"
   rx="1.8"
   ry="1.8"
   id="ellipse160" />
   <circle
   class="st2"
   cx="276.4"
   cy="56.4"
   r="1.1"
   id="circle162" />
   <circle
   class="st2"
   cx="234.7"
   cy="72.3"
   r="1.1"
   id="circle164" />
   <circle
   class="st2"
   cx="210.3"
   cy="64.1"
   r="1.1"
   id="circle166" />
   <circle
   class="st2"
   cx="258.1"
   cy="81.5"
   r="0.7"
   id="circle168" />
   <circle
   class="st2"
   cx="272.8"
   cy="113.4"
   r="0.7"
   id="circle170" />
   <circle
   class="st2"
   cx="316.9"
   cy="43.4"
   r="1.2"
   id="circle172" />
   <circle
   class="st2"
   cx="368.6"
   cy="45.1"
   r="1.2"
   id="circle174" />
   <circle
   class="st2"
   cx="208.9"
   cy="206.6"
   r="1.5"
   id="circle176" />
   <circle
   class="st2"
   cx="413.5"
   cy="85.5"
   r="0.8"
   id="circle178" />
   <circle
   class="st2"
   cx="371.7"
   cy="80.8"
   r="0.9"
   id="circle180" />
   <circle
   class="st2"
   cx="399.5"
   cy="109.9"
   r="0.9"
   id="circle182" />
   <circle
   class="st2"
   cx="420.7"
   cy="123.3"
   r="0.4"
   id="circle184" />
   <circle
   class="st2"
   cx="364.9"
   cy="152.4"
   r="0.4"
   id="circle186" />
   <circle
   class="st2"
   cx="211.6"
   cy="73.6"
   r="0.4"
   id="circle188" />
   <circle
   class="st2"
   cx="275.6"
   cy="30.6"
   r="0.4"
   id="circle190" />
   <circle
   class="st2"
   cx="181.5"
   cy="102.5"
   r="0.4"
   id="circle192" />
   <circle
   class="st2"
   cx="184.7"
   cy="46.2"
   r="0.4"
   id="circle194" />
   <circle
   class="st2"
   cx="53.6"
   cy="198.1"
   r="1.2"
   id="circle196" />
   <circle
   class="st2"
   cx="43.7"
   cy="230.8"
   r="1.2"
   id="circle198" />
   <circle
   class="st2"
   cx="71.1"
   cy="197.1"
   r="1.2"
   id="circle200" />
   <circle
   class="st2"
   cx="58.6"
   cy="229.3"
   r="1.1"
   id="circle202" />
   <circle
   class="st2"
   cx="59.9"
   cy="238.8"
   r="0.4"
   id="circle204" />
   <circle
   class="st2"
   cx="53"
   cy="191.4"
   r="0.4"
   id="circle206" />
   <circle
   class="st2"
   cx="326.3"
   cy="83.8"
   r="0.9"
   id="circle208" />
   <circle
   class="st2"
   cx="337.1"
   cy="65.2"
   r="1.1"
   id="circle210" />
   <circle
   class="st6"
   cx="172.8"
   cy="40.4"
   r="4.6"
   id="circle212" />
   <circle
   class="st3"
   cx="394.7"
   cy="97.8"
   r="4.8"
   id="circle214" />
   <circle
   class="st2"
   cx="357.1"
   cy="103.7"
   r="1.2"
   id="circle216" />
   <circle
   class="st2"
   cx="367.2"
   cy="116.4"
   r="1.2"
   id="circle218" />
   <circle
   class="st2"
   cx="374.6"
   cy="102.6"
   r="1.2"
   id="circle220" />
   <circle
   class="st2"
   cx="382.1"
   cy="114.9"
   r="1.1"
   id="circle222" />
   <circle
   class="st2"
   cx="383.4"
   cy="124.4"
   r="0.4"
   id="circle224" />
   <circle
   class="st2"
   cx="356.5"
   cy="97"
   r="0.4"
   id="circle226" />
   <circle
   class="st6"
   cx="344.6"
   cy="91.2"
   r="4.6"
   id="circle228" />
   <circle
   class="st2"
   cx="358.8"
   cy="213.8"
   r="1.6"
   id="circle230" />
   <circle
   class="st2"
   cx="360.3"
   cy="201.7"
   r="0.9"
   id="circle232" />
   <circle
   class="st2"
   cx="345.6"
   cy="224.6"
   r="1.2"
   id="circle234" />
   <circle
   class="st2"
   cx="412.5"
   cy="213.2"
   r="1.2"
   id="circle236" />
   <circle
   class="st2"
   cx="363.1"
   cy="223.5"
   r="1.2"
   id="circle238" />
   <circle
   class="st2"
   cx="427.4"
   cy="211.7"
   r="1.1"
   id="circle240" />
   <circle
   class="st2"
   cx="428.8"
   cy="221.2"
   r="0.4"
   id="circle242" />
   <circle
   class="st2"
   cx="130.5"
   cy="206.1"
   r="1.2"
   id="circle244" />
   <circle
   class="st2"
   cx="140.6"
   cy="218.8"
   r="1.2"
   id="circle246" />
   <circle
   class="st2"
   cx="148"
   cy="205"
   r="1.2"
   id="circle248" />
   <circle
   class="st2"
   cx="155.5"
   cy="217.3"
   r="1.1"
   id="circle250" />
   <circle
   class="st2"
   cx="156.8"
   cy="226.7"
   r="0.4"
   id="circle252" />
   <circle
   class="st2"
   cx="345.1"
   cy="217.9"
   r="0.4"
   id="circle254" />
   <circle
   class="st2"
   cx="88"
   cy="223.6"
   r="1.1"
   id="circle256" />
   <circle
   class="st2"
   cx="97.1"
   cy="257.5"
   r="0.3"
   id="circle258" />
   <circle
   class="st2"
   cx="20.3"
   cy="268.7"
   r="0.6"
   id="circle260" />
   <circle
   class="st2"
   cx="98.2"
   cy="230.1"
   r="0.7"
   id="circle262" />
   <circle
   class="st2"
   cx="68.6"
   cy="209.5"
   r="0.5"
   id="circle264" />
   <circle
   class="st2"
   cx="20.3"
   cy="214.6"
   r="0.6"
   id="circle266" />
   <circle
   class="st2"
   cx="473"
   cy="257.3"
   r="1.3"
   id="circle268" />
   <circle
   class="st2"
   cx="488.2"
   cy="216.7"
   r="1.2"
   id="circle270" />
   <circle
   class="st2"
   cx="464"
   cy="166.2"
   r="1"
   id="circle272" />
   <circle
   class="st2"
   cx="398.5"
   cy="154.8"
   r="2"
   id="circle274" />
   <circle
   class="st2"
   cx="245.9"
   cy="235.3"
   r="0.6"
   id="circle276" />
   <circle
   class="st2"
   cx="266.7"
   cy="285.7"
   r="0.7"
   id="circle278" />
   <circle
   class="st2"
   cx="269.3"
   cy="208.7"
   r="0.6"
   id="circle280" />
   <circle
   class="st2"
   cx="202.3"
   cy="37.3"
   r="0.8"
   id="circle282" />
   <circle
   class="st2"
   cx="149.6"
   cy="41.3"
   r="0.9"
   id="circle284" />
   <circle
   class="st2"
   cx="188.9"
   cy="83.8"
   r="0.9"
   id="circle286" />
   <circle
   class="st2"
   cx="246.8"
   cy="14"
   r="0.9"
   id="circle288" />
   <circle
   class="st2"
   cx="338.9"
   cy="35.8"
   r="0.7"
   id="circle290" />
   <circle
   class="st2"
   cx="353.6"
   cy="34.6"
   r="0.5"
   id="circle292" />
   <circle
   class="st2"
   cx="361.8"
   cy="66.7"
   r="1.1"
   id="circle294" />
   <circle
   class="st2"
   cx="320.4"
   cy="99.2"
   r="0.7"
   id="circle296" />
   <circle
   class="st2"
   cx="282.1"
   cy="76.4"
   r="1.1"
   id="circle298" />
   <circle
   class="st2"
   cx="382.8"
   cy="76"
   r="0.7"
   id="circle300" />
   <circle
   class="st2"
   cx="421"
   cy="93.6"
   r="0.8"
   id="circle302" />
   <circle
   class="st2"
   cx="433.6"
   cy="110"
   r="0.8"
   id="circle304" />
   <circle
   class="st2"
   cx="404.2"
   cy="69.5"
   r="1.1"
   id="circle306" />
   <circle
   class="st2"
   cx="271.6"
   cy="95.1"
   r="0.5"
   id="circle308" />
   <circle
   class="st2"
   cx="222.2"
   cy="84.7"
   r="0.9"
   id="circle310" />
   <circle
   class="st2"
   cx="196.4"
   cy="92.4"
   r="1.1"
   id="circle312" />
   <circle
   class="st2"
   cx="221.8"
   cy="126.3"
   r="0.5"
   id="circle314" />
   <circle
   class="st2"
   cx="194.7"
   cy="160.6"
   r="0.6"
   id="circle316" />
   <circle
   class="st2"
   cx="232.8"
   cy="25.2"
   r="0.8"
   id="circle318" />
</g>

<path
   id="path349"
   d="M 133.90039 126 C 132.20039 126 130.80078 127.39961 130.80078 129.09961 L 130.80078 147.90039 L 124.5 147.09961 C 123.4 146.99961 122.30039 147.3 121.40039 148 C 120.60039 148.7 120.09961 149.80039 120.09961 150.90039 L 120.09961 316.80078 C 120.09961 318.80078 121.5 320.49922 123.5 320.69922 L 133.30078 322 L 254.19922 338 L 255.19922 338 L 375 322.30078 L 386.69922 320.80078 C 388.69922 320.50078 390.09961 318.90039 390.09961 316.90039 L 390.09961 151 C 390.19961 149.8 389.80039 148.8 388.90039 148 C 388.10039 147.3 387.00078 146.89961 385.80078 147.09961 L 378.69922 148 L 378.69922 129.19922 C 378.69922 127.39922 377.3 126 375.5 126 C 289.4 126 263.20039 139.30078 255.40039 147.30078 L 254.69922 148 L 254 147.30078 C 246.2 139.40078 220.20039 126 133.90039 126 z M 137.09961 132.19922 L 138.19922 132.19922 C 232.69922 132.59922 248.59922 149.09922 251.19922 153.69922 L 251.80078 153.69922 L 251.80078 155.19922 L 251.80078 320.5 L 250.30078 319.40039 C 238.60078 311.60039 209.90078 301.80039 138.30078 301.40039 L 137.19922 301.40039 L 137.09961 132.19922 z M 371.5 132.30078 L 372.5 132.30078 L 372.5 301.59961 L 371.5 301.59961 C 299.9 302.09961 271.1 311.59961 259.5 319.59961 L 258 320.69922 L 258 153.69922 L 258.40039 153.90039 C 261.10039 149.50039 276.5 132.80078 371.5 132.30078 z M 180.71094 162.85938 C 175.46367 162.8498 169.7375 163.07461 163.5 163.59961 C 161.8 163.89961 160.60039 165.49922 160.90039 167.19922 C 161.10039 168.69922 162.5 169.90039 164 169.90039 L 164.19922 169.90039 C 169.99922 169.40039 175.29961 169.19922 180.09961 169.19922 C 214.29961 169.19922 226.69961 179.30078 227.09961 179.80078 C 228.39961 180.90078 230.4 180.79961 231.5 179.59961 C 232.1 178.99961 232.40078 178.20078 232.30078 177.30078 C 232.30078 176.50078 231.90078 175.69961 231.30078 175.09961 C 230.68828 174.48711 217.4418 162.92637 180.71094 162.85938 z M 329.5 163 C 292.1 163 278.59961 174.69922 278.09961 175.19922 C 276.79961 176.29922 276.70078 178.29961 277.80078 179.59961 C 279.00078 180.79961 281.00078 180.90039 282.30078 179.90039 C 283.00078 179.30039 299.50039 166.3 345.40039 170 C 347.10039 170.1 348.60078 168.79961 348.80078 167.09961 C 348.90078 165.39961 347.60039 163.79922 345.90039 163.69922 C 340.00039 163.19922 334.5 163 329.5 163 z M 181.03906 195.36328 C 175.78496 195.35117 170.05078 195.57461 163.80078 196.09961 C 162.10078 196.19961 160.80039 197.7 160.90039 199.5 C 161.00039 201.2 162.50078 202.50039 164.30078 202.40039 L 164.19922 202.5 C 169.89922 202.1 175.10039 201.90039 179.90039 201.90039 C 214.50039 201.90039 227.20078 212.4 227.30078 212.5 C 228.60078 213.6 230.60078 213.39961 231.80078 212.09961 C 233.00078 210.79961 232.89961 208.79961 231.59961 207.59961 C 230.98711 207.07461 217.81777 195.44805 181.03906 195.36328 z M 329.5 195.5 C 292.1 195.5 278.59961 207.19922 278.09961 207.69922 C 276.89961 208.79922 276.80039 210.8 277.90039 212 C 279.00039 213.3 281.00078 213.50039 282.30078 212.40039 C 283.00078 211.80039 299.20039 198.7 345.40039 202.5 C 346.20039 202.6 347.09922 202.30078 347.69922 201.80078 C 348.29922 201.20078 348.70078 200.49961 348.80078 199.59961 C 349.00078 197.89961 347.7 196.39922 346 196.19922 L 345.90039 196.19922 C 340.00039 195.69922 334.5 195.5 329.5 195.5 z M 180.93945 227.96289 C 175.68535 227.95078 169.94922 228.17422 163.69922 228.69922 C 162.89922 228.79922 162.1 229.20078 161.5 229.80078 C 160.4 231.10078 160.50039 233.10078 161.90039 234.30078 C 162.60039 234.80078 163.39922 235.1 164.19922 235 C 169.79922 234.5 175.00039 234.30078 179.90039 234.30078 C 214.50039 234.30078 227.20078 244.80039 227.30078 244.90039 C 228.60078 246.00039 230.59922 245.89922 231.69922 244.69922 C 232.29922 244.09922 232.6 243.30039 232.5 242.40039 C 232.5 241.60039 232.1 240.79922 231.5 240.19922 C 230.8875 239.67422 217.71816 228.04766 180.93945 227.96289 z M 329.5 228 C 292.1 228 278.59961 239.69922 278.09961 240.19922 C 276.79961 241.39922 276.70039 243.29961 277.90039 244.59961 C 279.00039 245.89961 281.00078 246.00039 282.30078 244.90039 C 283.00078 244.40039 299.20039 231.3 345.40039 235 C 346.20039 235.1 347.09922 234.80078 347.69922 234.30078 C 348.29922 233.70078 348.70078 232.99961 348.80078 232.09961 C 348.90078 231.29961 348.59961 230.40078 348.09961 229.80078 C 347.59961 229.20078 346.80039 228.79922 345.90039 228.69922 C 340.00039 228.19922 334.5 228 329.5 228 z M 357.20898 252.15234 C 356.85681 252.15453 356.43229 252.20994 355.93555 252.32031 L 355.64844 252.38477 C 355.57125 252.39679 355.35137 252.4635 354.98828 252.58594 C 351.53164 253.74402 348.54168 254.64561 346.01953 255.28906 C 343.49739 255.9325 342.08888 256.27613 341.79297 256.32227 L 341.71484 256.33594 C 341.00808 256.36702 340.38606 256.4236 339.8457 256.50781 L 339.78711 256.51758 C 339.46548 256.5677 339.14726 256.7291 338.83398 257.00195 C 338.52067 257.2748 338.38751 257.55289 338.43164 257.83594 L 338.46094 258.0293 C 338.49903 258.27374 338.57718 258.47844 338.69531 258.64453 C 338.80258 258.82548 338.92437 259.05602 339.06055 259.33789 C 339.09427 259.38535 339.15018 259.44261 339.22656 259.50977 C 339.544 259.85563 339.70859 260.074 339.72266 260.16406 C 340.00136 261.95238 340.09859 264.42872 340.01172 267.5918 C 339.98445 268.3472 339.97821 268.98708 339.99414 269.51172 C 340.09807 271.02417 340.1302 273.09424 340.0918 275.72266 C 340.06624 278.34906 339.96443 280.14384 339.78516 281.10742 C 339.65184 281.77392 339.60075 282.21017 339.63281 282.41602 L 339.64453 282.49414 L 339.82422 283.13672 C 340.04578 284.05101 340.36034 284.5961 340.76953 284.76953 C 341.19359 284.95386 342.15879 284.92795 343.66406 284.69336 C 344.26874 284.59912 345.50801 284.26149 347.38086 283.67969 C 351.09197 282.54781 353.83694 281.80979 355.61523 281.4668 C 357.67655 281.07965 359.31701 280.4944 360.53906 279.71094 C 360.74258 279.49473 360.80856 279.14985 360.73438 278.67383 C 360.63211 278.01769 360.33235 277.57534 359.83594 277.34961 C 359.35039 277.10902 358.92664 277.01809 358.56641 277.07422 C 358.09038 277.14841 357.0013 277.50846 355.29688 278.15625 C 353.92176 278.63412 352.56138 279.07685 351.21484 279.48438 L 347.59375 280.60156 C 346.64003 280.90834 345.80542 281.09824 345.0918 281.16992 L 344.74219 281.20508 C 343.96911 281.23331 343.50054 280.93012 343.33594 280.29688 L 343.30273 280.08594 C 343.21651 279.53272 343.17192 278.23369 343.16992 276.19141 C 343.16791 274.14913 343.27425 272.92774 343.48828 272.52539 C 343.71317 272.10818 345.8725 271.34327 349.96875 270.23047 C 353.31996 269.32602 355.51122 268.67338 356.54297 268.27539 C 357.58558 267.86252 358.02575 267.12919 357.86133 266.07422 C 357.72699 265.21223 356.85624 264.90756 355.24805 265.1582 C 354.25741 265.31259 352.85702 265.76087 351.04883 266.50391 C 350.16746 266.85211 348.82332 267.27305 347.01562 267.76562 C 345.20794 268.25818 343.99937 268.53222 343.38867 268.58789 L 343.0957 268.61328 C 342.96537 267.77702 343.01849 266.04292 343.25391 263.41016 C 343.32737 262.52896 343.34086 261.72935 343.29492 261.01172 C 343.22775 260.07337 343.48602 259.40587 344.07031 259.01172 C 344.66747 258.61556 346.19128 258.20672 348.64258 257.78516 C 350.2745 257.51765 351.35931 257.29071 351.89648 257.10156 C 352.32188 256.95622 352.7188 256.84171 353.08789 256.75781 C 353.62223 256.635 354.2239 256.43568 354.89258 256.16016 C 355.56325 255.89747 356.22852 255.72689 356.88867 255.65039 C 357.56168 255.57182 357.91653 255.52277 357.95312 255.50391 C 358.1421 255.44809 358.37778 255.22843 358.66016 254.8418 C 358.94252 254.45516 359.05613 254.08094 359 253.7207 C 358.79164 252.97568 358.47489 252.5038 358.04883 252.30664 C 357.84122 252.20063 357.56116 252.15016 357.20898 252.15234 z M 327.50586 256.67188 C 327.36676 256.6672 327.23412 256.67526 327.10547 256.69531 C 326.47506 256.79357 324.41589 260.244 320.92969 267.04688 C 317.79955 273.17489 315.91729 276.35974 315.2832 276.60352 C 315.12882 276.62758 314.90025 276.47368 314.59766 276.13867 C 314.30592 275.78881 313.4209 274.21278 311.94336 271.41211 L 308.23047 264.57812 C 307.90465 264.00953 307.62039 263.49408 307.37695 263.03125 C 307.1721 262.56242 306.81273 262.0381 306.30078 261.45898 C 305.78683 260.86702 305.3438 260.60007 304.9707 260.6582 C 303.20812 260.9329 302.41345 261.6307 302.58789 262.75 C 302.75634 263.8307 302.8658 265.32962 302.91406 267.24609 C 302.96236 269.16255 302.78267 272.19503 302.375 276.34375 L 301.68164 282.93359 C 301.37455 285.86744 301.30988 287.90104 301.48633 289.0332 C 301.55449 289.47063 301.81724 289.89191 302.27539 290.29492 C 302.7464 290.69592 303.21261 290.8593 303.67578 290.78711 C 303.92022 290.74902 304.21473 290.5647 304.55859 290.23438 C 304.91529 289.90205 305.08846 289.61841 305.07812 289.38281 C 304.96751 287.48924 305.12775 283.56288 305.55664 277.60547 C 305.77133 274.50154 305.92094 271.8769 306.00781 269.72852 C 306.04641 268.7078 306.1091 267.96539 306.19531 267.50391 C 306.73617 268.18393 308.21233 270.84707 310.62305 275.49219 C 311.79566 277.77373 312.69424 279.27467 313.32031 279.99414 C 313.94437 280.70073 314.52133 281.01189 315.04883 280.92969 C 315.74356 280.82141 316.55045 280.16366 317.46875 278.95312 C 318.38704 277.74259 319.89445 275.11539 321.99219 271.07227 C 324.08791 267.01627 325.66171 264.18011 326.71484 262.56641 C 326.80129 262.69789 326.87723 262.97582 326.94336 263.40039 C 327.01156 263.83782 327.03897 264.3875 327.02344 265.04883 C 326.9873 265.83195 326.97612 266.27598 326.99219 266.37891 C 327.01625 266.53329 327.0461 266.93654 327.08203 267.58984 C 327.44346 275.74342 327.78466 280.84972 328.10547 282.9082 C 328.45636 285.15967 329.30732 286.17928 330.6582 285.96875 C 330.91552 285.92865 331.24778 285.81868 331.6543 285.63672 C 332.07368 285.45276 332.29782 285.02189 332.32422 284.3457 C 332.34862 283.65664 332.33343 283.13838 332.2793 282.79102 C 332.21112 282.35359 332.01735 281.7919 331.69922 281.10352 C 331.34131 280.32908 331.11202 279.61317 331.00977 278.95703 C 330.95362 278.5968 330.81706 276.97037 330.60352 274.07812 C 330.38794 271.17302 330.25758 268.67757 330.20898 266.58984 C 330.09502 260.95424 330.02788 258.07201 330.00781 257.94336 C 329.9617 257.64745 329.591 257.34746 328.89844 257.04688 C 328.38716 256.81029 327.92315 256.68591 327.50586 256.67188 z M 180.93945 260.56445 C 175.68535 260.55234 169.94922 260.77578 163.69922 261.30078 C 162.89922 261.40078 162.1 261.80039 161.5 262.40039 C 161 263.00039 160.70078 263.89922 160.80078 264.69922 C 160.90078 266.39922 162.3 267.69961 164 267.59961 L 164.19922 267.59961 C 169.79922 267.09961 175.00039 266.90039 179.90039 266.90039 C 214.50039 266.90039 227.20078 277.4 227.30078 277.5 C 228.60078 278.6 230.59922 278.50078 231.69922 277.30078 C 232.29922 276.70078 232.6 275.9 232.5 275 C 232.5 274.2 232.1 273.40078 231.5 272.80078 C 230.8875 272.27578 217.71816 260.64922 180.93945 260.56445 z M 289.91797 262.88086 C 289.03284 262.82443 288.03474 262.8832 286.92188 263.05664 C 283.56398 263.57996 280.47446 264.90525 277.65625 267.03125 C 274.83603 269.14438 273.63568 271.53881 274.05273 274.21484 C 274.26928 275.60432 274.95106 276.85436 276.09961 277.9668 C 277.25902 279.06438 280.0321 279.94955 284.41992 280.62305 C 287.95711 281.16555 290.17659 281.61795 291.07617 281.97852 C 291.98662 282.32422 292.48225 282.76158 292.56445 283.28906 C 292.75694 284.52416 291.60063 286.06678 289.0957 287.91992 C 286.58877 289.76021 284.12104 290.87105 281.68945 291.25 C 280.33857 291.46053 278.93338 291.41531 277.47656 291.11523 C 277.19235 291.06723 276.92137 291.06338 276.66406 291.10352 C 276.41961 291.14161 276.22067 291.46223 276.06445 292.06641 C 275.91911 292.65572 275.87541 293.14334 275.93555 293.5293 C 276.02177 294.08252 276.4919 294.47698 277.3457 294.71289 C 278.21437 294.9595 279.42764 294.96136 280.98438 294.71875 C 282.84987 294.42802 285.0473 293.65089 287.57812 292.38672 C 290.12182 291.12053 292.21297 289.52907 293.85156 287.61328 C 295.48815 285.68461 296.19707 284.01953 295.97852 282.61719 C 295.76197 281.22771 294.89699 280.15001 293.38086 279.38477 C 291.87559 278.60465 289.44749 278.00127 286.09961 277.57422 C 282.64279 277.12461 280.35715 276.57883 279.24219 275.93555 C 278.13809 275.27741 277.5024 274.40687 277.33398 273.32617 C 277.09939 271.8209 278.00433 270.36193 280.05078 268.94922 C 282.10809 267.52163 284.50103 266.59695 287.22852 266.17188 C 288.55366 265.96532 289.69079 265.9848 290.63867 266.23242 C 291.58453 266.46718 292.19035 267.44124 292.45703 269.15234 C 293.5506 268.98192 294.16679 268.45649 294.30664 267.57812 C 294.44648 266.69976 294.48224 266.0429 294.41406 265.60547 C 294.2717 264.69202 293.5452 263.95426 292.23242 263.39453 C 291.57502 263.10823 290.8031 262.93729 289.91797 262.88086 z "
   style="fill:#ffffff" />
<g
   id="g407"><rect
     x="120.3"
     y="373"
     class="st7"
     width="271.29999"
     height="2"
     id="rect346" /><g
     aria-label="SickManEmpire"
     id="text400"
     style="font-size:40px;line-height:1.25;font-family:sans-serif"><path
       d="m 119.62305,391.4108 q 0,-2.59766 -1.34766,-3.16407 -1.34766,-0.58593 -3.35937,-0.58593 -4.14063,0 -7.51954,1.64062 -3.35937,1.6211 -3.35937,3.90625 0,1.64063 1.48437,2.8711 1.50391,1.21093 6.52344,2.67578 4.86328,1.40625 6.91406,2.91015 2.07032,1.48438 2.07032,3.59375 0,2.12891 -2.8711,4.60938 -2.87109,2.46094 -6.93359,3.75 -4.04297,1.28906 -6.875,1.28906 -2.36328,0 -3.59375,-0.56641 -1.210938,-0.54687 -1.210938,-1.38671 0,-0.58594 0.351562,-1.42579 0.371096,-0.85937 0.742186,-0.85937 0.39063,0 0.80078,0.13672 2.08985,0.78125 4.14063,0.78125 3.6914,0 7.83203,-2.14844 4.14062,-2.16797 4.14062,-4.04297 0,-0.80078 -1.26953,-1.52344 -1.25,-0.74218 -6.36718,-2.36328 -6.34766,-2.01172 -7.8125,-3.90625 -1.44532,-1.91406 -1.44532,-4.02343 0,-4.0625 4.66797,-6.54297 4.66797,-2.5 9.76563,-2.5 3.3789,0 5.19531,1.15234 1.81641,1.13281 1.81641,2.51953 0,0.66406 -0.41016,1.9336 -0.41016,1.26953 -2.07031,1.26953 z"
       style="font-style:normal;font-variant:normal;font-weight:normal;font-stretch:normal;font-size:40px;font-family:'Segoe Print';-inkscape-font-specification:'Segoe Print';fill:#ffffff"
       id="path365" /><path
       d="m 132.2207,387.05533 q -0.41015,0 -0.625,-0.87891 -0.0781,-0.27344 -0.21484,-0.60547 -0.52734,-1.26953 -0.52734,-2.20703 0,-0.78125 0.91796,-1.58203 0.9375,-0.82031 2.07032,-0.82031 0.5664,0 1.26953,0.44922 0.70312,0.42968 0.70312,0.83984 0,0.64453 -0.48828,2.1875 -0.46875,1.54297 -1.52344,2.08984 -1.03515,0.52735 -1.58203,0.52735 z m -2.55859,21.8164 q 0,1.48438 0.41016,3.33985 0.0781,0.35156 0.0781,0.58594 0,0.35156 -0.64453,0.89843 -0.64453,0.56641 -1.36719,0.56641 -1.89453,0 -1.89453,-3.47656 0,-3.59375 1.48438,-11.36719 0.50781,-2.71484 0.50781,-3.33984 0,-1.23047 0.44922,-2.08985 0.44922,-0.8789 1.26953,-0.8789 0.99609,0 1.5625,0.48828 0.58594,0.46875 0.58594,1.05468 0,0.58594 -0.27344,1.54297 -1.46485,5.15625 -1.81641,7.38282 -0.35156,2.22656 -0.35156,5.29296 z"
       style="font-style:normal;font-variant:normal;font-weight:normal;font-stretch:normal;font-size:40px;font-family:'Segoe Print';-inkscape-font-specification:'Segoe Print';fill:#ffffff"
       id="path367" /><path
       d="m 142.82617,414.32095 q -2.92969,0 -4.51172,-1.67968 -1.5625,-1.67969 -1.5625,-4.70704 0,-5.09765 4.04297,-10.74218 4.04297,-5.66407 7.51953,-5.66407 1.58203,0 2.71485,1.71875 1.15234,1.69922 1.15234,3.61329 0,1.15234 -0.50781,1.99218 -0.48828,0.82032 -0.9961,0.82032 -1.13281,0 -1.60156,-2.28516 -0.52734,-2.46094 -1.52344,-2.46094 -2.03125,0 -4.80468,4.82422 -2.77344,4.82422 -2.77344,8.14453 0,3.32031 3.76953,3.32031 2.87109,0 6.75781,-2.69531 1.36719,-0.95703 2.01172,-0.95703 0.66406,0 0.66406,0.76172 0,1.48437 -3.49609,3.75 -3.49609,2.24609 -6.85547,2.24609 z"
       style="font-style:normal;font-variant:normal;font-weight:normal;font-stretch:normal;font-size:40px;font-family:'Segoe Print';-inkscape-font-specification:'Segoe Print';fill:#ffffff"
       id="path369" /><path
       d="m 161.55664,404.08658 q 0.25391,-0.33203 3.49609,-3.14453 3.06641,-2.67578 4.27735,-3.88672 4.51172,-4.51172 6.48437,-4.51172 1.52344,0 1.52344,1.46484 0,1.66016 -1.50391,2.44141 -1.95312,0.99609 -5.21484,3.32031 -3.26172,2.30469 -3.26172,3.26172 0,0.39063 2.30469,2.92969 2.30469,2.51953 3.98437,3.73047 1.67969,1.1914 3.26172,1.1914 l 0.64453,-0.0195 q 0.6836,-0.0391 0.6836,0.60547 0,0.85938 -1.07422,1.73828 -1.07422,0.89844 -2.83203,0.89844 -1.13281,0 -2.30469,-0.80078 -1.15234,-0.78125 -4.12109,-4.25781 -2.36328,-2.8711 -2.94922,-3.41797 -0.58594,-0.56641 -0.97656,-0.56641 -0.21485,0 -1.36719,1.01563 -1.15235,1.01562 -1.26953,1.54296 -0.0977,0.52735 -0.0977,4.02344 v 0.91797 q 0,0.72266 -0.68359,1.28906 -0.6836,0.56641 -1.48438,0.56641 -0.82031,0 -1.28906,-0.48828 -0.46875,-0.46875 -0.46875,-0.97656 0,-0.70313 0.52734,-3.32032 0.74219,-3.76953 1.36719,-10.09765 1.44531,-14.94141 2.22656,-16.89453 0.78125,-1.97266 2.22657,-1.97266 0.50781,0 0.83984,0.54687 0.35156,0.54688 0.35156,1.40625 0,1.5625 -1.34765,8.30079 -1.34766,6.75781 -1.95313,13.16406 z"
       style="font-style:normal;font-variant:normal;font-weight:normal;font-stretch:normal;font-size:40px;font-family:'Segoe Print';-inkscape-font-specification:'Segoe Print';fill:#ffffff"
       id="path371" /><path
       d="m 209.97461,390.18033 q -1.93359,2.14844 -5.97656,7.67578 -4.04297,5.50781 -5.6836,7.08984 -1.64062,1.58203 -2.69531,1.58203 -0.80078,0 -1.5625,-1.1914 -0.76172,-1.21094 -1.97266,-4.86328 -2.5,-7.44141 -3.14453,-8.57422 -0.23437,0.66406 -0.52734,2.16797 -0.625,3.16406 -1.66016,7.71484 -2.01172,8.73047 -2.28515,11.5625 -0.0391,0.35156 -0.64453,0.76172 -0.58594,0.41016 -0.95704,0.41016 -0.70312,0 -1.30859,-0.70313 -0.58594,-0.70312 -0.58594,-1.36719 0,-1.71875 1.13282,-5.99609 l 1.69921,-6.40625 q 1.5625,-6.05469 1.9336,-8.90625 0.37109,-2.85156 0.37109,-4.49219 0,-1.69922 2.67578,-1.69922 0.56641,0 1.19141,0.9961 0.625,0.97656 0.82031,1.71875 0.25391,0.74218 0.60547,1.66015 l 2.61719,7.32422 q 1.54297,4.49219 1.89453,5.07813 0.37109,0.5664 0.60547,0.5664 0.99609,-0.21484 7.05078,-8.57422 6.73828,-9.27734 7.69531,-9.27734 0.78125,0 1.71875,0.625 0.95703,0.60547 0.95703,1.05469 0,0.19531 -1.13281,8.57422 -0.41016,3.10547 -0.76172,7.46093 -0.35156,4.33594 -0.35156,4.88282 0,0.99609 0.35156,2.22656 0.3125,1.09375 0.3125,1.75781 0,0.52735 -0.19531,1.54297 -0.19531,0.99609 -0.85938,1.17188 -0.64453,0.17578 -1.03515,0.17578 -2.05078,0 -2.05078,-3.41797 0,-3.125 1.34765,-15.29297 0.0977,-0.97656 0.0977,-1.21094 0,-0.15625 0.23437,-1.30859 0.17579,-0.97656 0.17579,-1.64063 0,-0.64453 -0.0977,-0.85937 z"
       style="font-style:normal;font-variant:normal;font-weight:normal;font-stretch:normal;font-size:40px;font-family:'Segoe Print';-inkscape-font-specification:'Segoe Print';fill:#ffffff"
       id="path373" /><path
       d="m 232.43555,406.0983 q -2.73438,3.67187 -5.41016,5.50781 -2.67578,1.83594 -4.90234,1.83594 -1.50391,0 -2.59766,-1.26953 -1.09375,-1.26954 -1.09375,-3.26172 0,-5.13672 4.58984,-11.05469 4.58985,-5.9375 9.1211,-5.9375 1.64062,0 2.4414,1.875 0.25391,0.625 0.80079,0.625 1.5625,0 1.5625,1.21094 0,0.60547 -0.19532,1.66015 -1.05468,5.76172 -1.05468,8.125 0,4.72657 1.79687,5.66407 0.85938,0.46875 0.85938,1.15234 0,0.60547 -0.83985,1.21094 -0.83984,0.625 -1.62109,0.625 -1.50391,0 -2.48047,-2.07032 -0.97656,-2.07031 -0.97656,-5.89843 z m -1.19141,-10.9961 q -2.57812,0 -5.99609,4.84375 -3.41797,4.82422 -3.41797,8.00782 0,2.24609 1.48437,2.24609 2.14844,0 5.95703,-4.33594 3.8086,-4.33594 3.8086,-7.96875 0,-2.79297 -1.83594,-2.79297 z"
       style="font-style:normal;font-variant:normal;font-weight:normal;font-stretch:normal;font-size:40px;font-family:'Segoe Print';-inkscape-font-specification:'Segoe Print';fill:#ffffff"
       id="path375" /><path
       d="m 256.04883,398.18814 q -1.01563,0 -2.22656,1.32813 -1.19141,1.32812 -3.65235,5.95703 -3.24219,6.21093 -4.19922,7.07031 -0.9375,0.85937 -1.5625,0.85937 -2.30468,0 -2.30468,-2.22656 0,-0.9375 0.3125,-2.65625 1.07421,-5.89844 1.07421,-12.4414 0,-0.74219 0.625,-1.64063 0.64454,-0.91797 1.21094,-0.91797 1.01563,0 1.44531,0.625 0.42969,0.625 0.42969,2.51953 0,1.97266 -1.17187,8.125 -0.39063,2.03125 -0.39063,2.57813 0,0.3125 0.15625,0.3125 0.29297,0 2.71485,-4.66797 2.4414,-4.74609 4.27734,-6.67969 1.83594,-1.93359 4.04297,-1.93359 1.75781,0 2.85156,1.60156 1.11328,1.60156 1.62109,5.83984 0.54688,4.82422 0.97657,6.01563 0.44922,1.17187 1.40625,1.17187 0.60547,0 1.52343,-0.42968 0.15625,-0.0781 0.23438,-0.0781 0.83984,0 0.83984,0.97656 0,0.85938 -1.15234,1.83594 -1.15234,0.95703 -2.77344,0.95703 -1.66015,0 -2.57812,-1.30859 -0.89844,-1.32813 -1.42578,-7.05078 -0.54688,-5.74219 -2.30469,-5.74219 z"
       style="font-style:normal;font-variant:normal;font-weight:normal;font-stretch:normal;font-size:40px;font-family:'Segoe Print';-inkscape-font-specification:'Segoe Print';fill:#ffffff"
       id="path377" /><path
       d="m 291.92773,388.01236 q -0.0586,0.0195 -1.07421,-0.0195 -0.9961,-0.0391 -2.05079,0.19531 -1.05468,0.25391 -1.875,0.3125 -0.5664,0.0391 -1.23046,0.15625 -0.83985,0.15625 -3.32032,0.17578 -3.73047,0.0586 -4.70703,0.50781 -0.95703,0.44922 -1.07422,1.85547 -0.0977,1.07422 -0.41015,2.36328 -0.95703,3.84766 -0.95703,5.11719 l 0.29296,0.0195 q 0.91797,0.0586 3.71094,-0.2539 2.79297,-0.3125 4.17969,-0.625 2.85156,-0.6836 4.35547,-0.6836 2.4414,0 2.4414,1.3086 0,1.60156 -1.64062,1.97265 -1.62109,0.35157 -6.79688,0.91797 -6.32812,0.70313 -6.75781,1.26953 -0.41015,0.54688 -0.8789,3.57422 -0.46875,3.02735 -0.46875,3.86719 v 0.21484 q 0.0976,0.97657 1.25,1.11328 l 0.35156,0.0195 q 1.07422,0.0586 2.55859,-0.17579 l 3.75,-0.54687 q 2.08985,-0.29297 4.23828,-0.68359 2.67578,-0.56641 3.39844,-0.56641 0.54688,0 1.21094,0.46875 0.68359,0.44922 0.68359,1.44531 0,0.72266 -0.35156,0.9961 -1.99219,0.8789 -5.13672,0.97656 -2.71484,0.0976 -8.47656,0.91797 -2.91016,0.42968 -3.82813,0.42968 -2.28515,0 -2.87109,-0.37109 -0.56641,-0.35156 -0.68359,-1.75781 l -0.0781,-0.66406 v -0.0781 q 0,-0.3125 0.35156,-1.26953 0.48828,-1.38672 1.13282,-5.27344 0.66406,-3.88672 0.85937,-6.15234 0.0977,-0.78125 0.3125,-1.89453 0.85938,-4.66797 0.85938,-7.38282 0,-0.13671 -0.39063,-0.72265 -0.0977,-0.11719 -0.13672,-0.19531 -0.13672,-0.44922 -0.2539,-0.74219 -0.13672,-0.27344 -0.13672,-0.64453 v -0.19532 q 0,-0.42968 0.52734,-0.76171 0.52734,-0.33204 1.01563,-0.33204 h 0.0586 q 0.82031,0 1.875,0.11719 h 0.0781 q 0.44922,0 4.33594,-0.37109 3.88672,-0.3711 9.27735,-1.28906 0.5664,-0.0977 0.68359,-0.0977 l 0.29297,-0.0195 q 1.52344,-0.0977 2.08984,0.3125 0.58594,0.39062 0.72266,1.54297 0,0.54687 -0.50781,1.05468 -0.50782,0.50782 -0.80079,0.54688 z"
       style="font-style:normal;font-variant:normal;font-weight:normal;font-stretch:normal;font-size:40px;font-family:'Segoe Print';-inkscape-font-specification:'Segoe Print';fill:#ffffff"
       id="path379" /><path
       d="m 311.38086,397.75845 q -1.81641,0.0391 -7.77344,10.76172 -2.01172,3.61328 -2.34375,3.94531 -0.33203,0.3125 -1.23047,0.56641 -0.8789,0.25391 -1.46484,0.25391 -1.30859,0 -1.30859,-5.09766 0,-2.87109 1.23046,-10.39062 0.50782,-3.04688 0.50782,-4.35547 0,-1.28907 1.15234,-1.28907 2.16797,0 2.16797,3.125 0,1.46485 -0.72266,5.74219 -0.83984,4.88281 -0.85937,5.9375 1.21094,-1.17187 3.55469,-5.13672 3.32031,-5.42968 4.88281,-6.875 1.58203,-1.46484 3.26172,-1.46484 1.26953,0 2.01172,1.69922 0.76171,1.69922 0.91796,8.10547 0.0391,1.60156 0.29297,2.38281 0.25391,0.78125 0.3711,0.78125 0.91797,0 3.98437,-6.25 1.64063,-3.30078 3.1836,-5.01953 1.5625,-1.71875 3.45703,-1.71875 1.58203,0 2.30468,1.64062 0.72266,1.6211 1.03516,4.82422 0.29297,3.24219 0.89844,5.9375 0.625,2.69531 2.26562,3.45703 1.11328,0.52735 1.11328,1.23047 0,0.6836 -0.9375,1.40625 -0.9375,0.72266 -1.71875,0.72266 -1.5625,0 -2.79296,-1.91406 -1.23047,-1.91407 -1.85547,-8.28125 -0.27344,-2.5586 -0.52735,-3.63282 -0.2539,-1.07422 -0.80078,-1.07422 -0.82031,0 -1.95312,1.5625 -1.11328,1.5625 -3.61328,6.34766 -1.95313,3.73047 -2.96875,4.98047 -0.9961,1.23047 -1.9336,1.23047 -0.83984,0 -1.5039,-0.66406 -0.66407,-0.6836 -0.83985,-1.6211 -0.17578,-0.95703 -0.37109,-4.66797 -0.29297,-6.17187 -1.07422,-7.1875 z"
       style="font-style:normal;font-variant:normal;font-weight:normal;font-stretch:normal;font-size:40px;font-family:'Segoe Print';-inkscape-font-specification:'Segoe Print';fill:#ffffff"
       id="path381" /><path
       d="m 341.51758,410.94205 q -0.95703,3.51562 -1.79688,9.86328 l -0.54687,3.6914 q -0.13672,0.78125 -0.72266,1.54297 -0.58594,0.78125 -1.07422,0.78125 -0.60547,0 -1.38672,-0.625 -0.76171,-0.60547 -0.76171,-0.97656 0,-1.07422 0.48828,-2.96875 3.57422,-14.43359 3.57422,-25.35156 l -0.0195,-1.64063 q -0.0391,-2.10937 0.74219,-3.0664 0.78125,-0.95703 1.79688,-0.95703 0.46875,0 0.89843,0.74218 0.42969,0.72266 0.42969,2.07032 0,1.89453 -0.39062,4.58984 -0.50782,3.39844 -0.52735,3.90625 2.91016,-5.07813 6.17188,-7.92969 3.26172,-2.85156 6.05469,-2.85156 1.97265,0 3.32031,1.48437 1.36719,1.46485 1.36719,3.65235 0,6.36719 -4.88282,11.5625 -4.88281,5.19531 -9.51172,5.19531 -1.15234,0 -1.83593,-0.58594 -0.66407,-0.58593 -1.38672,-2.1289 z m 12.1289,-15.72266 q -2.7539,0 -6.8164,5.15625 -4.0625,5.15625 -4.0625,8.02734 0,0.70313 0.80078,1.36719 0.80078,0.66406 2.03125,0.66406 2.79297,0 6.42578,-4.12109 3.63281,-4.14062 3.63281,-8.125 0,-1.42578 -0.58593,-2.1875 -0.56641,-0.78125 -1.42579,-0.78125 z"
       style="font-style:normal;font-variant:normal;font-weight:normal;font-stretch:normal;font-size:40px;font-family:'Segoe Print';-inkscape-font-specification:'Segoe Print';fill:#ffffff"
       id="path383" /><path
       d="m 369.89648,387.05533 q -0.41015,0 -0.625,-0.87891 -0.0781,-0.27344 -0.21484,-0.60547 -0.52734,-1.26953 -0.52734,-2.20703 0,-0.78125 0.91797,-1.58203 0.9375,-0.82031 2.07031,-0.82031 0.5664,0 1.26953,0.44922 0.70312,0.42968 0.70312,0.83984 0,0.64453 -0.48828,2.1875 -0.46875,1.54297 -1.52343,2.08984 -1.03516,0.52735 -1.58204,0.52735 z m -2.55859,21.8164 q 0,1.48438 0.41016,3.33985 0.0781,0.35156 0.0781,0.58594 0,0.35156 -0.64453,0.89843 -0.64453,0.56641 -1.36719,0.56641 -1.89453,0 -1.89453,-3.47656 0,-3.59375 1.48438,-11.36719 0.50781,-2.71484 0.50781,-3.33984 0,-1.23047 0.44922,-2.08985 0.44922,-0.8789 1.26953,-0.8789 0.99609,0 1.5625,0.48828 0.58594,0.46875 0.58594,1.05468 0,0.58594 -0.27344,1.54297 -1.46484,5.15625 -1.81641,7.38282 -0.35156,2.22656 -0.35156,5.29296 z"
       style="font-style:normal;font-variant:normal;font-weight:normal;font-stretch:normal;font-size:40px;font-family:'Segoe Print';-inkscape-font-specification:'Segoe Print';fill:#ffffff"
       id="path385" /><path
       d="m 379.11523,405.45377 q 0.19532,-0.35157 0.46875,-0.97657 1.32813,-3.04687 2.44141,-4.76562 1.11328,-1.73828 2.44141,-3.32031 1.34765,-1.58204 2.4414,-2.40235 1.11328,-0.82031 2.01172,-1.13281 0.89844,-0.33203 1.73828,-0.33203 1.69922,0 2.77344,1.03515 1.07422,1.01563 1.07422,2.38282 0,0.60547 -0.39063,1.09375 -0.37109,0.48828 -1.15234,0.48828 -0.82031,0 -1.50391,-0.72266 -0.70312,-0.72265 -1.46484,-0.72265 -2.03125,0 -5.625,4.92187 -3.59375,4.92188 -4.375,10.83984 -0.19531,1.52344 -0.74219,2.01172 -0.54687,0.48828 -1.54297,0.48828 -0.95703,0 -1.38671,-1.42578 -0.42969,-1.42578 -0.42969,-4.80468 0,-0.91797 0.0976,-4.04297 0.11719,-3.69141 0.46875,-5.95703 0.0586,-0.3711 0.19532,-1.73829 0.13672,-1.5039 0.33203,-2.08984 0.21484,-0.58594 0.83984,-1.09375 0.64453,-0.50781 1.38672,-0.50781 0.72266,0 1.07422,0.46875 0.37109,0.44922 0.37109,0.97656 0,0.76172 -0.39062,2.14844 -0.44922,1.54297 -0.52735,2.1289 -0.0586,0.66407 -0.21484,1.38672 -0.19531,0.83985 -0.39062,4.41407 l -0.0195,0.72265 z"
       style="font-style:normal;font-variant:normal;font-weight:normal;font-stretch:normal;font-size:40px;font-family:'Segoe Print';-inkscape-font-specification:'Segoe Print';fill:#ffffff"
       id="path387" /><path
       d="m 412.45508,406.58658 q 0,1.99219 -3.53516,4.80469 -3.51562,2.8125 -7.26562,2.8125 -3.14453,0 -4.86328,-1.85547 -1.69922,-1.85547 -1.69922,-5.17578 0,-5.58594 3.76953,-10.625 3.76953,-5.03907 8.24219,-5.03907 1.46484,0 2.38281,0.95703 0.9375,0.95704 0.9375,2.30469 0,3.00781 -2.94922,5.76172 -2.94922,2.75391 -7.89063,5.41016 -1.01562,0.52734 -1.01562,1.36718 0,1.6211 0.9375,2.59766 0.9375,0.97656 2.77344,0.97656 4.19922,0 8.57422,-4.64843 0.64453,-0.64454 0.97656,-0.64454 0.625,0 0.625,0.9961 z m -13.57422,-3.04688 q 8.28125,-4.92187 8.28125,-7.91015 0,-1.17188 -1.05469,-1.17188 -1.79687,0 -4.0625,2.63672 -2.24609,2.63672 -3.16406,6.44531 z"
       style="font-style:normal;font-variant:normal;font-weight:normal;font-stretch:normal;font-size:40px;font-family:'Segoe Print';-inkscape-font-specification:'Segoe Print';fill:#ffffff"
       id="path389" /></g>
</g>

</svg>
